M48
; DRILL file {KiCad (6.0.10)} date Sun Jan 15 11:08:47 2023
; FORMAT={-:-/ absolute / inch / decimal}
; #@! TF.CreationDate,2023-01-15T11:08:47+01:00
; #@! TF.GenerationSoftware,Kicad,Pcbnew,(6.0.10)
; #@! TF.FileFunction,MixedPlating,1,2
FMAT,2
INCH
; #@! TA.AperFunction,Plated,PTH,ComponentDrill
T1C0.0295
; #@! TA.AperFunction,Plated,PTH,ComponentDrill
T2C0.0315
; #@! TA.AperFunction,Plated,PTH,ComponentDrill
T3C0.0394
; #@! TA.AperFunction,Plated,PTH,ComponentDrill
T4C0.0433
; #@! TA.AperFunction,NonPlated,NPTH,ComponentDrill
T5C0.0433
; #@! TA.AperFunction,NonPlated,NPTH,ComponentDrill
T6C0.0787
%
G90
G05
T1
X2.5589Y-3.7572
X2.5611Y-3.4544
X2.6089Y-3.7572
X2.6111Y-3.4544
X2.6589Y-3.7572
X2.6611Y-3.4544
X3.0046Y-3.3093
X3.0046Y-3.3593
X3.0046Y-3.4093
X3.0054Y-3.6594
X3.0054Y-3.7094
X3.0054Y-3.7594
T2
X2.5431Y-3.173
X2.565Y-2.8501
X2.6761Y-2.9966
X2.8107Y-3.3348
X2.8107Y-3.7348
X2.9431Y-3.173
X2.965Y-2.8501
X3.0761Y-2.9966
X3.1Y-2.5
X3.1733Y-3.3
X3.1733Y-3.7
X3.4511Y-3.4289
X3.4511Y-3.7289
X3.5Y-2.5
X3.5511Y-3.4289
X3.5511Y-3.7289
X3.6248Y-2.4811
X3.6248Y-2.8811
X3.6511Y-3.4289
X3.6511Y-3.7289
X3.7511Y-3.4289
X3.7511Y-3.7289
T3
X3.1991Y-2.7882
X3.1991Y-2.8882
X3.4511Y-3.899
X3.5511Y-3.899
X3.6511Y-3.899
X3.7511Y-3.899
T4
X2.6Y-2.6
X2.7Y-2.6
X3.4153Y-2.9289
X3.4153Y-3.0289
X3.4153Y-3.1289
X3.4153Y-3.2289
X3.753Y-2.5226
X3.753Y-2.6226
X3.753Y-2.7226
T5
X2.6Y-2.5
X2.7Y-2.5
T6
X3.74Y-3.0005
X3.7425Y-3.2203
T0
M30
