%TF.GenerationSoftware,KiCad,Pcbnew,(6.0.10)*%
%TF.CreationDate,2023-01-15T11:08:54+01:00*%
%TF.ProjectId,PCB_PSU_LIN_2023-01-12,5043425f-5053-4555-9f4c-494e5f323032,rev?*%
%TF.SameCoordinates,Original*%
%TF.FileFunction,Soldermask,Bot*%
%TF.FilePolarity,Negative*%
%FSLAX46Y46*%
G04 Gerber Fmt 4.6, Leading zero omitted, Abs format (unit mm)*
G04 Created by KiCad (PCBNEW (6.0.10)) date 2023-01-15 11:08:54*
%MOMM*%
%LPD*%
G01*
G04 APERTURE LIST*
%ADD10C,2.000000*%
%ADD11C,1.600000*%
%ADD12O,1.600000X1.600000*%
%ADD13R,1.050000X1.500000*%
%ADD14O,1.050000X1.500000*%
%ADD15R,1.700000X1.700000*%
%ADD16O,1.700000X1.700000*%
%ADD17R,2.000000X1.905000*%
%ADD18O,2.000000X1.905000*%
%ADD19R,1.500000X1.050000*%
%ADD20O,1.500000X1.050000*%
%ADD21C,1.100000*%
%ADD22R,2.200000X2.200000*%
%ADD23C,2.200000*%
%ADD24R,1.600000X2.400000*%
%ADD25O,1.600000X2.400000*%
G04 APERTURE END LIST*
D10*
%TO.C,REF\u002A\u002A*%
X94995570Y-76212882D03*
%TD*%
D11*
%TO.C,R4*%
X75311107Y-72393220D03*
D12*
X65151107Y-72393220D03*
%TD*%
D13*
%TO.C,Q4*%
X65052674Y-87741994D03*
D14*
X66322674Y-87741994D03*
X67592674Y-87741994D03*
%TD*%
D15*
%TO.C,P4*%
X87657000Y-99035000D03*
D16*
X90197000Y-99035000D03*
X92737000Y-99035000D03*
X95277000Y-99035000D03*
%TD*%
D17*
%TO.C,Q1*%
X95325935Y-64073305D03*
D18*
X95325935Y-66613305D03*
X95325935Y-69153305D03*
%TD*%
D11*
%TO.C,R1*%
X92069811Y-63019768D03*
D12*
X92069811Y-73179768D03*
%TD*%
D11*
%TO.C,R2*%
X80601521Y-83820000D03*
D12*
X80601521Y-93980000D03*
%TD*%
D19*
%TO.C,Q5*%
X76317065Y-86595803D03*
D20*
X76317065Y-85325803D03*
X76317065Y-84055803D03*
%TD*%
D11*
%TO.C,R7*%
X74755012Y-80595080D03*
D12*
X64595012Y-80595080D03*
%TD*%
D19*
%TO.C,Q2*%
X76336262Y-95490000D03*
D20*
X76336262Y-94220000D03*
X76336262Y-92950000D03*
%TD*%
D11*
%TO.C,R6*%
X71392679Y-84704598D03*
D12*
X71392679Y-94864598D03*
%TD*%
D15*
%TO.C,P3*%
X81258320Y-70820081D03*
D16*
X81258320Y-73360081D03*
%TD*%
D11*
%TO.C,R5*%
X78132375Y-76114116D03*
D12*
X67972375Y-76114116D03*
%TD*%
D11*
%TO.C,R3*%
X78740000Y-63500000D03*
D12*
X88900000Y-63500000D03*
%TD*%
D21*
%TO.C,P2*%
X66040000Y-63500000D03*
X68580000Y-63500000D03*
D22*
X68580000Y-66040000D03*
D23*
X66040000Y-66040000D03*
%TD*%
D10*
%TO.C,REF\u002A\u002A*%
X95059983Y-81794719D03*
%TD*%
D22*
%TO.C,P1*%
X86748032Y-82015000D03*
D23*
X86748032Y-79475000D03*
X86748032Y-76935000D03*
X86748032Y-74395000D03*
%TD*%
D24*
%TO.C,IC1*%
X87657000Y-94713000D03*
D25*
X90197000Y-94713000D03*
X92737000Y-94713000D03*
X95277000Y-94713000D03*
X95277000Y-87093000D03*
X92737000Y-87093000D03*
X90197000Y-87093000D03*
X87657000Y-87093000D03*
%TD*%
D13*
%TO.C,Q3*%
X64996066Y-95433173D03*
D14*
X66266066Y-95433173D03*
X67536066Y-95433173D03*
%TD*%
M02*
