<svg id="wifi" fill="currentcolor" data-name="Ebene 1" xmlns="http://www.w3.org/2000/svg" viewBox="0 0 203.12 144.64">
  <g>
    <path d="M210.12,413.59l-19.06-17.92c49.47-52.57,144.07-59.39,203.12-1.24l-19.71,17.85c-22.21-20.45-49.75-32.07-82-31.92C260.35,380.5,233,392.18,210.12,413.59Z" transform="translate(-191.06 -353.48)"/>
    <path d="M358.5,431.9c-6.86,6.52-13.48,12.81-20.15,19.13-29.48-23-62.31-22.93-90.64,0l-19.78-19.6C256.53,398,326.53,397.51,358.5,431.9Z" transform="translate(-191.06 -353.48)"/>
    <path d="M319.25,471.62,294,498.11l-28.17-25.05C278.05,454.91,305.56,454.55,319.25,471.62Z" transform="translate(-191.06 -353.48)"/>
  </g>
</svg>