%TF.GenerationSoftware,KiCad,Pcbnew,(6.0.10)*%
%TF.CreationDate,2023-01-15T11:08:51+01:00*%
%TF.ProjectId,PCB_PSU_LIN_2023-01-12,5043425f-5053-4555-9f4c-494e5f323032,rev?*%
%TF.SameCoordinates,Original*%
%TF.FileFunction,Drillmap*%
%TF.FilePolarity,Positive*%
%FSLAX45Y45*%
G04 Gerber Fmt 4.5, Leading zero omitted, Abs format (unit mm)*
G04 Created by KiCad (PCBNEW (6.0.10)) date 2023-01-15 11:08:51*
%MOMM*%
%LPD*%
G01*
G04 APERTURE LIST*
%ADD10C,0.254000*%
%ADD11C,0.200000*%
%ADD12C,0.075000*%
%ADD13C,0.080000*%
%ADD14C,0.100000*%
%ADD15C,0.110000*%
G04 APERTURE END LIST*
D10*
X9906000Y-10160000D02*
X6232900Y-10160000D01*
X6232900Y-10160000D02*
X6232900Y-6096000D01*
X9906000Y-6096000D02*
X9906000Y-10160000D01*
X6232900Y-6096000D02*
X9906000Y-6096000D01*
D11*
D12*
X6462107Y-9505817D02*
X6537107Y-9580817D01*
X6537107Y-9505817D02*
X6462107Y-9580817D01*
X6467767Y-8736699D02*
X6542767Y-8811699D01*
X6542767Y-8736699D02*
X6467767Y-8811699D01*
X6589107Y-9505817D02*
X6664107Y-9580817D01*
X6664107Y-9505817D02*
X6589107Y-9580817D01*
X6594767Y-8736699D02*
X6669767Y-8811699D01*
X6669767Y-8736699D02*
X6594767Y-8811699D01*
X6716107Y-9505817D02*
X6791107Y-9580817D01*
X6791107Y-9505817D02*
X6716107Y-9580817D01*
X6721767Y-8736699D02*
X6796767Y-8811699D01*
X6796767Y-8736699D02*
X6721767Y-8811699D01*
X7594206Y-8368080D02*
X7669206Y-8443080D01*
X7669206Y-8368080D02*
X7594206Y-8443080D01*
X7594206Y-8495080D02*
X7669206Y-8570080D01*
X7669206Y-8495080D02*
X7594206Y-8570080D01*
X7594206Y-8622080D02*
X7669206Y-8697080D01*
X7669206Y-8622080D02*
X7594206Y-8697080D01*
X7596126Y-9257500D02*
X7671126Y-9332500D01*
X7671126Y-9257500D02*
X7596126Y-9332500D01*
X7596126Y-9384500D02*
X7671126Y-9459500D01*
X7671126Y-9384500D02*
X7596126Y-9459500D01*
X7596126Y-9511500D02*
X7671126Y-9586500D01*
X7671126Y-9511500D02*
X7596126Y-9586500D01*
D13*
X6499501Y-8059508D02*
G75*
G03*
X6499501Y-8059508I-40000J0D01*
G01*
X6555111Y-7239322D02*
G75*
G03*
X6555111Y-7239322I-40000J0D01*
G01*
X6837237Y-7611412D02*
G75*
G03*
X6837237Y-7611412I-40000J0D01*
G01*
X7179268Y-8470460D02*
G75*
G03*
X7179268Y-8470460I-40000J0D01*
G01*
X7179268Y-9486460D02*
G75*
G03*
X7179268Y-9486460I-40000J0D01*
G01*
X7515501Y-8059508D02*
G75*
G03*
X7515501Y-8059508I-40000J0D01*
G01*
X7571111Y-7239322D02*
G75*
G03*
X7571111Y-7239322I-40000J0D01*
G01*
X7853237Y-7611412D02*
G75*
G03*
X7853237Y-7611412I-40000J0D01*
G01*
X7914000Y-6350000D02*
G75*
G03*
X7914000Y-6350000I-40000J0D01*
G01*
X8100152Y-8382000D02*
G75*
G03*
X8100152Y-8382000I-40000J0D01*
G01*
X8100152Y-9398000D02*
G75*
G03*
X8100152Y-9398000I-40000J0D01*
G01*
X8805700Y-8709300D02*
G75*
G03*
X8805700Y-8709300I-40000J0D01*
G01*
X8805700Y-9471300D02*
G75*
G03*
X8805700Y-9471300I-40000J0D01*
G01*
X8930000Y-6350000D02*
G75*
G03*
X8930000Y-6350000I-40000J0D01*
G01*
X9059700Y-8709300D02*
G75*
G03*
X9059700Y-8709300I-40000J0D01*
G01*
X9059700Y-9471300D02*
G75*
G03*
X9059700Y-9471300I-40000J0D01*
G01*
X9246981Y-6301977D02*
G75*
G03*
X9246981Y-6301977I-40000J0D01*
G01*
X9246981Y-7317977D02*
G75*
G03*
X9246981Y-7317977I-40000J0D01*
G01*
X9313700Y-8709300D02*
G75*
G03*
X9313700Y-8709300I-40000J0D01*
G01*
X9313700Y-9471300D02*
G75*
G03*
X9313700Y-9471300I-40000J0D01*
G01*
X9567700Y-8709300D02*
G75*
G03*
X9567700Y-8709300I-40000J0D01*
G01*
X9567700Y-9471300D02*
G75*
G03*
X9567700Y-9471300I-40000J0D01*
G01*
D14*
X8125832Y-7032008D02*
X8125832Y-7132008D01*
X8075832Y-7082008D02*
X8175832Y-7082008D01*
X8125832Y-7286008D02*
X8125832Y-7386008D01*
X8075832Y-7336008D02*
X8175832Y-7336008D01*
X8765700Y-9853500D02*
X8765700Y-9953500D01*
X8715700Y-9903500D02*
X8815700Y-9903500D01*
X9019700Y-9853500D02*
X9019700Y-9953500D01*
X8969700Y-9903500D02*
X9069700Y-9903500D01*
X9273700Y-9853500D02*
X9273700Y-9953500D01*
X9223700Y-9903500D02*
X9323700Y-9903500D01*
X9527700Y-9853500D02*
X9527700Y-9953500D01*
X9477700Y-9903500D02*
X9577700Y-9903500D01*
D15*
X6642891Y-6642891D02*
X6642891Y-6565109D01*
X6565109Y-6565109D01*
X6565109Y-6642891D01*
X6642891Y-6642891D01*
X6896891Y-6642891D02*
X6896891Y-6565109D01*
X6819109Y-6565109D01*
X6819109Y-6642891D01*
X6896891Y-6642891D01*
X8713694Y-7478391D02*
X8713694Y-7400609D01*
X8635912Y-7400609D01*
X8635912Y-7478391D01*
X8713694Y-7478391D01*
X8713694Y-7732391D02*
X8713694Y-7654609D01*
X8635912Y-7654609D01*
X8635912Y-7732391D01*
X8713694Y-7732391D01*
X8713694Y-7986391D02*
X8713694Y-7908609D01*
X8635912Y-7908609D01*
X8635912Y-7986391D01*
X8713694Y-7986391D01*
X8713694Y-8240391D02*
X8713694Y-8162609D01*
X8635912Y-8162609D01*
X8635912Y-8240391D01*
X8713694Y-8240391D01*
X9571485Y-6446222D02*
X9571485Y-6368439D01*
X9493702Y-6368439D01*
X9493702Y-6446222D01*
X9571485Y-6446222D01*
X9571485Y-6700222D02*
X9571485Y-6622439D01*
X9493702Y-6622439D01*
X9493702Y-6700222D01*
X9571485Y-6700222D01*
X9571485Y-6954222D02*
X9571485Y-6876439D01*
X9493702Y-6876439D01*
X9493702Y-6954222D01*
X9571485Y-6954222D01*
X6604000Y-6405000D02*
X6659000Y-6350000D01*
X6604000Y-6295000D01*
X6549000Y-6350000D01*
X6604000Y-6405000D01*
X6858000Y-6405000D02*
X6913000Y-6350000D01*
X6858000Y-6295000D01*
X6803000Y-6350000D01*
X6858000Y-6405000D01*
D11*
X9399557Y-7521288D02*
X9599557Y-7721288D01*
X9599557Y-7521288D02*
X9399557Y-7721288D01*
X9599557Y-7621288D02*
G75*
G03*
X9599557Y-7621288I-100000J0D01*
G01*
X9405998Y-8079472D02*
X9605998Y-8279472D01*
X9605998Y-8079472D02*
X9405998Y-8279472D01*
X9605998Y-8179472D02*
G75*
G03*
X9605998Y-8179472I-100000J0D01*
G01*
X6477819Y-10483176D02*
X6477819Y-10283176D01*
X6525438Y-10283176D01*
X6554009Y-10292700D01*
X6573057Y-10311748D01*
X6582581Y-10330795D01*
X6592105Y-10368890D01*
X6592105Y-10397462D01*
X6582581Y-10435557D01*
X6573057Y-10454605D01*
X6554009Y-10473652D01*
X6525438Y-10483176D01*
X6477819Y-10483176D01*
X6677819Y-10483176D02*
X6677819Y-10349843D01*
X6677819Y-10387938D02*
X6687343Y-10368890D01*
X6696867Y-10359367D01*
X6715914Y-10349843D01*
X6734962Y-10349843D01*
X6801628Y-10483176D02*
X6801628Y-10349843D01*
X6801628Y-10283176D02*
X6792105Y-10292700D01*
X6801628Y-10302224D01*
X6811152Y-10292700D01*
X6801628Y-10283176D01*
X6801628Y-10302224D01*
X6925438Y-10483176D02*
X6906390Y-10473652D01*
X6896867Y-10454605D01*
X6896867Y-10283176D01*
X7030200Y-10483176D02*
X7011152Y-10473652D01*
X7001628Y-10454605D01*
X7001628Y-10283176D01*
X7258771Y-10483176D02*
X7258771Y-10283176D01*
X7325438Y-10426033D01*
X7392105Y-10283176D01*
X7392105Y-10483176D01*
X7573057Y-10483176D02*
X7573057Y-10378414D01*
X7563533Y-10359367D01*
X7544486Y-10349843D01*
X7506390Y-10349843D01*
X7487343Y-10359367D01*
X7573057Y-10473652D02*
X7554009Y-10483176D01*
X7506390Y-10483176D01*
X7487343Y-10473652D01*
X7477819Y-10454605D01*
X7477819Y-10435557D01*
X7487343Y-10416510D01*
X7506390Y-10406986D01*
X7554009Y-10406986D01*
X7573057Y-10397462D01*
X7668295Y-10349843D02*
X7668295Y-10549843D01*
X7668295Y-10359367D02*
X7687343Y-10349843D01*
X7725438Y-10349843D01*
X7744486Y-10359367D01*
X7754009Y-10368890D01*
X7763533Y-10387938D01*
X7763533Y-10445081D01*
X7754009Y-10464129D01*
X7744486Y-10473652D01*
X7725438Y-10483176D01*
X7687343Y-10483176D01*
X7668295Y-10473652D01*
X7849248Y-10464129D02*
X7858771Y-10473652D01*
X7849248Y-10483176D01*
X7839724Y-10473652D01*
X7849248Y-10464129D01*
X7849248Y-10483176D01*
X7849248Y-10359367D02*
X7858771Y-10368890D01*
X7849248Y-10378414D01*
X7839724Y-10368890D01*
X7849248Y-10359367D01*
X7849248Y-10378414D01*
D12*
X6145200Y-10775200D02*
X6220200Y-10850200D01*
X6220200Y-10775200D02*
X6145200Y-10850200D01*
D11*
X6515914Y-10703176D02*
X6534962Y-10703176D01*
X6554009Y-10712700D01*
X6563533Y-10722224D01*
X6573057Y-10741271D01*
X6582581Y-10779367D01*
X6582581Y-10826986D01*
X6573057Y-10865081D01*
X6563533Y-10884129D01*
X6554009Y-10893652D01*
X6534962Y-10903176D01*
X6515914Y-10903176D01*
X6496867Y-10893652D01*
X6487343Y-10884129D01*
X6477819Y-10865081D01*
X6468295Y-10826986D01*
X6468295Y-10779367D01*
X6477819Y-10741271D01*
X6487343Y-10722224D01*
X6496867Y-10712700D01*
X6515914Y-10703176D01*
X6668295Y-10884129D02*
X6677819Y-10893652D01*
X6668295Y-10903176D01*
X6658771Y-10893652D01*
X6668295Y-10884129D01*
X6668295Y-10903176D01*
X6744486Y-10703176D02*
X6877819Y-10703176D01*
X6792105Y-10903176D01*
X7049248Y-10703176D02*
X6954009Y-10703176D01*
X6944486Y-10798414D01*
X6954009Y-10788890D01*
X6973057Y-10779367D01*
X7020676Y-10779367D01*
X7039724Y-10788890D01*
X7049248Y-10798414D01*
X7058771Y-10817462D01*
X7058771Y-10865081D01*
X7049248Y-10884129D01*
X7039724Y-10893652D01*
X7020676Y-10903176D01*
X6973057Y-10903176D01*
X6954009Y-10893652D01*
X6944486Y-10884129D01*
X7182581Y-10703176D02*
X7201628Y-10703176D01*
X7220676Y-10712700D01*
X7230200Y-10722224D01*
X7239724Y-10741271D01*
X7249248Y-10779367D01*
X7249248Y-10826986D01*
X7239724Y-10865081D01*
X7230200Y-10884129D01*
X7220676Y-10893652D01*
X7201628Y-10903176D01*
X7182581Y-10903176D01*
X7163533Y-10893652D01*
X7154009Y-10884129D01*
X7144486Y-10865081D01*
X7134962Y-10826986D01*
X7134962Y-10779367D01*
X7144486Y-10741271D01*
X7154009Y-10722224D01*
X7163533Y-10712700D01*
X7182581Y-10703176D01*
X7334962Y-10903176D02*
X7334962Y-10769843D01*
X7334962Y-10788890D02*
X7344486Y-10779367D01*
X7363533Y-10769843D01*
X7392105Y-10769843D01*
X7411152Y-10779367D01*
X7420676Y-10798414D01*
X7420676Y-10903176D01*
X7420676Y-10798414D02*
X7430200Y-10779367D01*
X7449248Y-10769843D01*
X7477819Y-10769843D01*
X7496867Y-10779367D01*
X7506390Y-10798414D01*
X7506390Y-10903176D01*
X7601628Y-10903176D02*
X7601628Y-10769843D01*
X7601628Y-10788890D02*
X7611152Y-10779367D01*
X7630200Y-10769843D01*
X7658771Y-10769843D01*
X7677819Y-10779367D01*
X7687343Y-10798414D01*
X7687343Y-10903176D01*
X7687343Y-10798414D02*
X7696867Y-10779367D01*
X7715914Y-10769843D01*
X7744486Y-10769843D01*
X7763533Y-10779367D01*
X7773057Y-10798414D01*
X7773057Y-10903176D01*
X8163533Y-10693652D02*
X7992105Y-10950795D01*
X8420676Y-10703176D02*
X8439724Y-10703176D01*
X8458771Y-10712700D01*
X8468295Y-10722224D01*
X8477819Y-10741271D01*
X8487343Y-10779367D01*
X8487343Y-10826986D01*
X8477819Y-10865081D01*
X8468295Y-10884129D01*
X8458771Y-10893652D01*
X8439724Y-10903176D01*
X8420676Y-10903176D01*
X8401629Y-10893652D01*
X8392105Y-10884129D01*
X8382581Y-10865081D01*
X8373057Y-10826986D01*
X8373057Y-10779367D01*
X8382581Y-10741271D01*
X8392105Y-10722224D01*
X8401629Y-10712700D01*
X8420676Y-10703176D01*
X8573057Y-10884129D02*
X8582581Y-10893652D01*
X8573057Y-10903176D01*
X8563533Y-10893652D01*
X8573057Y-10884129D01*
X8573057Y-10903176D01*
X8706390Y-10703176D02*
X8725438Y-10703176D01*
X8744486Y-10712700D01*
X8754010Y-10722224D01*
X8763533Y-10741271D01*
X8773057Y-10779367D01*
X8773057Y-10826986D01*
X8763533Y-10865081D01*
X8754010Y-10884129D01*
X8744486Y-10893652D01*
X8725438Y-10903176D01*
X8706390Y-10903176D01*
X8687343Y-10893652D01*
X8677819Y-10884129D01*
X8668295Y-10865081D01*
X8658771Y-10826986D01*
X8658771Y-10779367D01*
X8668295Y-10741271D01*
X8677819Y-10722224D01*
X8687343Y-10712700D01*
X8706390Y-10703176D01*
X8849248Y-10722224D02*
X8858771Y-10712700D01*
X8877819Y-10703176D01*
X8925438Y-10703176D01*
X8944486Y-10712700D01*
X8954010Y-10722224D01*
X8963533Y-10741271D01*
X8963533Y-10760319D01*
X8954010Y-10788890D01*
X8839724Y-10903176D01*
X8963533Y-10903176D01*
X9058771Y-10903176D02*
X9096867Y-10903176D01*
X9115914Y-10893652D01*
X9125438Y-10884129D01*
X9144486Y-10855557D01*
X9154010Y-10817462D01*
X9154010Y-10741271D01*
X9144486Y-10722224D01*
X9134962Y-10712700D01*
X9115914Y-10703176D01*
X9077819Y-10703176D01*
X9058771Y-10712700D01*
X9049248Y-10722224D01*
X9039724Y-10741271D01*
X9039724Y-10788890D01*
X9049248Y-10807938D01*
X9058771Y-10817462D01*
X9077819Y-10826986D01*
X9115914Y-10826986D01*
X9134962Y-10817462D01*
X9144486Y-10807938D01*
X9154010Y-10788890D01*
X9334962Y-10703176D02*
X9239724Y-10703176D01*
X9230200Y-10798414D01*
X9239724Y-10788890D01*
X9258771Y-10779367D01*
X9306390Y-10779367D01*
X9325438Y-10788890D01*
X9334962Y-10798414D01*
X9344486Y-10817462D01*
X9344486Y-10865081D01*
X9334962Y-10884129D01*
X9325438Y-10893652D01*
X9306390Y-10903176D01*
X9258771Y-10903176D01*
X9239724Y-10893652D01*
X9230200Y-10884129D01*
X9420676Y-10703176D02*
X9420676Y-10741271D01*
X9496867Y-10703176D02*
X9496867Y-10741271D01*
X9792105Y-10979367D02*
X9782581Y-10969843D01*
X9763533Y-10941271D01*
X9754010Y-10922224D01*
X9744486Y-10893652D01*
X9734962Y-10846033D01*
X9734962Y-10807938D01*
X9744486Y-10760319D01*
X9754010Y-10731748D01*
X9763533Y-10712700D01*
X9782581Y-10684129D01*
X9792105Y-10674605D01*
X9973057Y-10903176D02*
X9858771Y-10903176D01*
X9915914Y-10903176D02*
X9915914Y-10703176D01*
X9896867Y-10731748D01*
X9877819Y-10750795D01*
X9858771Y-10760319D01*
X10049248Y-10722224D02*
X10058771Y-10712700D01*
X10077819Y-10703176D01*
X10125438Y-10703176D01*
X10144486Y-10712700D01*
X10154010Y-10722224D01*
X10163533Y-10741271D01*
X10163533Y-10760319D01*
X10154010Y-10788890D01*
X10039724Y-10903176D01*
X10163533Y-10903176D01*
X10401629Y-10903176D02*
X10401629Y-10703176D01*
X10487343Y-10903176D02*
X10487343Y-10798414D01*
X10477819Y-10779367D01*
X10458771Y-10769843D01*
X10430200Y-10769843D01*
X10411152Y-10779367D01*
X10401629Y-10788890D01*
X10611152Y-10903176D02*
X10592105Y-10893652D01*
X10582581Y-10884129D01*
X10573057Y-10865081D01*
X10573057Y-10807938D01*
X10582581Y-10788890D01*
X10592105Y-10779367D01*
X10611152Y-10769843D01*
X10639724Y-10769843D01*
X10658771Y-10779367D01*
X10668295Y-10788890D01*
X10677819Y-10807938D01*
X10677819Y-10865081D01*
X10668295Y-10884129D01*
X10658771Y-10893652D01*
X10639724Y-10903176D01*
X10611152Y-10903176D01*
X10792105Y-10903176D02*
X10773057Y-10893652D01*
X10763533Y-10874605D01*
X10763533Y-10703176D01*
X10944486Y-10893652D02*
X10925438Y-10903176D01*
X10887343Y-10903176D01*
X10868295Y-10893652D01*
X10858771Y-10874605D01*
X10858771Y-10798414D01*
X10868295Y-10779367D01*
X10887343Y-10769843D01*
X10925438Y-10769843D01*
X10944486Y-10779367D01*
X10954010Y-10798414D01*
X10954010Y-10817462D01*
X10858771Y-10836510D01*
X11030200Y-10893652D02*
X11049248Y-10903176D01*
X11087343Y-10903176D01*
X11106390Y-10893652D01*
X11115914Y-10874605D01*
X11115914Y-10865081D01*
X11106390Y-10846033D01*
X11087343Y-10836510D01*
X11058771Y-10836510D01*
X11039724Y-10826986D01*
X11030200Y-10807938D01*
X11030200Y-10798414D01*
X11039724Y-10779367D01*
X11058771Y-10769843D01*
X11087343Y-10769843D01*
X11106390Y-10779367D01*
X11182581Y-10979367D02*
X11192105Y-10969843D01*
X11211152Y-10941271D01*
X11220676Y-10922224D01*
X11230200Y-10893652D01*
X11239724Y-10846033D01*
X11239724Y-10807938D01*
X11230200Y-10760319D01*
X11220676Y-10731748D01*
X11211152Y-10712700D01*
X11192105Y-10684129D01*
X11182581Y-10674605D01*
D13*
X6220200Y-11076700D02*
G75*
G03*
X6220200Y-11076700I-40000J0D01*
G01*
D11*
X6515914Y-10967176D02*
X6534962Y-10967176D01*
X6554009Y-10976700D01*
X6563533Y-10986224D01*
X6573057Y-11005271D01*
X6582581Y-11043367D01*
X6582581Y-11090986D01*
X6573057Y-11129081D01*
X6563533Y-11148129D01*
X6554009Y-11157652D01*
X6534962Y-11167176D01*
X6515914Y-11167176D01*
X6496867Y-11157652D01*
X6487343Y-11148129D01*
X6477819Y-11129081D01*
X6468295Y-11090986D01*
X6468295Y-11043367D01*
X6477819Y-11005271D01*
X6487343Y-10986224D01*
X6496867Y-10976700D01*
X6515914Y-10967176D01*
X6668295Y-11148129D02*
X6677819Y-11157652D01*
X6668295Y-11167176D01*
X6658771Y-11157652D01*
X6668295Y-11148129D01*
X6668295Y-11167176D01*
X6792105Y-11052890D02*
X6773057Y-11043367D01*
X6763533Y-11033843D01*
X6754009Y-11014795D01*
X6754009Y-11005271D01*
X6763533Y-10986224D01*
X6773057Y-10976700D01*
X6792105Y-10967176D01*
X6830200Y-10967176D01*
X6849248Y-10976700D01*
X6858771Y-10986224D01*
X6868295Y-11005271D01*
X6868295Y-11014795D01*
X6858771Y-11033843D01*
X6849248Y-11043367D01*
X6830200Y-11052890D01*
X6792105Y-11052890D01*
X6773057Y-11062414D01*
X6763533Y-11071938D01*
X6754009Y-11090986D01*
X6754009Y-11129081D01*
X6763533Y-11148129D01*
X6773057Y-11157652D01*
X6792105Y-11167176D01*
X6830200Y-11167176D01*
X6849248Y-11157652D01*
X6858771Y-11148129D01*
X6868295Y-11129081D01*
X6868295Y-11090986D01*
X6858771Y-11071938D01*
X6849248Y-11062414D01*
X6830200Y-11052890D01*
X6992105Y-10967176D02*
X7011152Y-10967176D01*
X7030200Y-10976700D01*
X7039724Y-10986224D01*
X7049248Y-11005271D01*
X7058771Y-11043367D01*
X7058771Y-11090986D01*
X7049248Y-11129081D01*
X7039724Y-11148129D01*
X7030200Y-11157652D01*
X7011152Y-11167176D01*
X6992105Y-11167176D01*
X6973057Y-11157652D01*
X6963533Y-11148129D01*
X6954009Y-11129081D01*
X6944486Y-11090986D01*
X6944486Y-11043367D01*
X6954009Y-11005271D01*
X6963533Y-10986224D01*
X6973057Y-10976700D01*
X6992105Y-10967176D01*
X7182581Y-10967176D02*
X7201628Y-10967176D01*
X7220676Y-10976700D01*
X7230200Y-10986224D01*
X7239724Y-11005271D01*
X7249248Y-11043367D01*
X7249248Y-11090986D01*
X7239724Y-11129081D01*
X7230200Y-11148129D01*
X7220676Y-11157652D01*
X7201628Y-11167176D01*
X7182581Y-11167176D01*
X7163533Y-11157652D01*
X7154009Y-11148129D01*
X7144486Y-11129081D01*
X7134962Y-11090986D01*
X7134962Y-11043367D01*
X7144486Y-11005271D01*
X7154009Y-10986224D01*
X7163533Y-10976700D01*
X7182581Y-10967176D01*
X7334962Y-11167176D02*
X7334962Y-11033843D01*
X7334962Y-11052890D02*
X7344486Y-11043367D01*
X7363533Y-11033843D01*
X7392105Y-11033843D01*
X7411152Y-11043367D01*
X7420676Y-11062414D01*
X7420676Y-11167176D01*
X7420676Y-11062414D02*
X7430200Y-11043367D01*
X7449248Y-11033843D01*
X7477819Y-11033843D01*
X7496867Y-11043367D01*
X7506390Y-11062414D01*
X7506390Y-11167176D01*
X7601628Y-11167176D02*
X7601628Y-11033843D01*
X7601628Y-11052890D02*
X7611152Y-11043367D01*
X7630200Y-11033843D01*
X7658771Y-11033843D01*
X7677819Y-11043367D01*
X7687343Y-11062414D01*
X7687343Y-11167176D01*
X7687343Y-11062414D02*
X7696867Y-11043367D01*
X7715914Y-11033843D01*
X7744486Y-11033843D01*
X7763533Y-11043367D01*
X7773057Y-11062414D01*
X7773057Y-11167176D01*
X8163533Y-10957652D02*
X7992105Y-11214795D01*
X8420676Y-10967176D02*
X8439724Y-10967176D01*
X8458771Y-10976700D01*
X8468295Y-10986224D01*
X8477819Y-11005271D01*
X8487343Y-11043367D01*
X8487343Y-11090986D01*
X8477819Y-11129081D01*
X8468295Y-11148129D01*
X8458771Y-11157652D01*
X8439724Y-11167176D01*
X8420676Y-11167176D01*
X8401629Y-11157652D01*
X8392105Y-11148129D01*
X8382581Y-11129081D01*
X8373057Y-11090986D01*
X8373057Y-11043367D01*
X8382581Y-11005271D01*
X8392105Y-10986224D01*
X8401629Y-10976700D01*
X8420676Y-10967176D01*
X8573057Y-11148129D02*
X8582581Y-11157652D01*
X8573057Y-11167176D01*
X8563533Y-11157652D01*
X8573057Y-11148129D01*
X8573057Y-11167176D01*
X8706390Y-10967176D02*
X8725438Y-10967176D01*
X8744486Y-10976700D01*
X8754010Y-10986224D01*
X8763533Y-11005271D01*
X8773057Y-11043367D01*
X8773057Y-11090986D01*
X8763533Y-11129081D01*
X8754010Y-11148129D01*
X8744486Y-11157652D01*
X8725438Y-11167176D01*
X8706390Y-11167176D01*
X8687343Y-11157652D01*
X8677819Y-11148129D01*
X8668295Y-11129081D01*
X8658771Y-11090986D01*
X8658771Y-11043367D01*
X8668295Y-11005271D01*
X8677819Y-10986224D01*
X8687343Y-10976700D01*
X8706390Y-10967176D01*
X8839724Y-10967176D02*
X8963533Y-10967176D01*
X8896867Y-11043367D01*
X8925438Y-11043367D01*
X8944486Y-11052890D01*
X8954010Y-11062414D01*
X8963533Y-11081462D01*
X8963533Y-11129081D01*
X8954010Y-11148129D01*
X8944486Y-11157652D01*
X8925438Y-11167176D01*
X8868295Y-11167176D01*
X8849248Y-11157652D01*
X8839724Y-11148129D01*
X9154010Y-11167176D02*
X9039724Y-11167176D01*
X9096867Y-11167176D02*
X9096867Y-10967176D01*
X9077819Y-10995748D01*
X9058771Y-11014795D01*
X9039724Y-11024319D01*
X9334962Y-10967176D02*
X9239724Y-10967176D01*
X9230200Y-11062414D01*
X9239724Y-11052890D01*
X9258771Y-11043367D01*
X9306390Y-11043367D01*
X9325438Y-11052890D01*
X9334962Y-11062414D01*
X9344486Y-11081462D01*
X9344486Y-11129081D01*
X9334962Y-11148129D01*
X9325438Y-11157652D01*
X9306390Y-11167176D01*
X9258771Y-11167176D01*
X9239724Y-11157652D01*
X9230200Y-11148129D01*
X9420676Y-10967176D02*
X9420676Y-11005271D01*
X9496867Y-10967176D02*
X9496867Y-11005271D01*
X9792105Y-11243367D02*
X9782581Y-11233843D01*
X9763533Y-11205271D01*
X9754010Y-11186224D01*
X9744486Y-11157652D01*
X9734962Y-11110033D01*
X9734962Y-11071938D01*
X9744486Y-11024319D01*
X9754010Y-10995748D01*
X9763533Y-10976700D01*
X9782581Y-10948129D01*
X9792105Y-10938605D01*
X9858771Y-10986224D02*
X9868295Y-10976700D01*
X9887343Y-10967176D01*
X9934962Y-10967176D01*
X9954010Y-10976700D01*
X9963533Y-10986224D01*
X9973057Y-11005271D01*
X9973057Y-11024319D01*
X9963533Y-11052890D01*
X9849248Y-11167176D01*
X9973057Y-11167176D01*
X10049248Y-10986224D02*
X10058771Y-10976700D01*
X10077819Y-10967176D01*
X10125438Y-10967176D01*
X10144486Y-10976700D01*
X10154010Y-10986224D01*
X10163533Y-11005271D01*
X10163533Y-11024319D01*
X10154010Y-11052890D01*
X10039724Y-11167176D01*
X10163533Y-11167176D01*
X10401629Y-11167176D02*
X10401629Y-10967176D01*
X10487343Y-11167176D02*
X10487343Y-11062414D01*
X10477819Y-11043367D01*
X10458771Y-11033843D01*
X10430200Y-11033843D01*
X10411152Y-11043367D01*
X10401629Y-11052890D01*
X10611152Y-11167176D02*
X10592105Y-11157652D01*
X10582581Y-11148129D01*
X10573057Y-11129081D01*
X10573057Y-11071938D01*
X10582581Y-11052890D01*
X10592105Y-11043367D01*
X10611152Y-11033843D01*
X10639724Y-11033843D01*
X10658771Y-11043367D01*
X10668295Y-11052890D01*
X10677819Y-11071938D01*
X10677819Y-11129081D01*
X10668295Y-11148129D01*
X10658771Y-11157652D01*
X10639724Y-11167176D01*
X10611152Y-11167176D01*
X10792105Y-11167176D02*
X10773057Y-11157652D01*
X10763533Y-11138605D01*
X10763533Y-10967176D01*
X10944486Y-11157652D02*
X10925438Y-11167176D01*
X10887343Y-11167176D01*
X10868295Y-11157652D01*
X10858771Y-11138605D01*
X10858771Y-11062414D01*
X10868295Y-11043367D01*
X10887343Y-11033843D01*
X10925438Y-11033843D01*
X10944486Y-11043367D01*
X10954010Y-11062414D01*
X10954010Y-11081462D01*
X10858771Y-11100510D01*
X11030200Y-11157652D02*
X11049248Y-11167176D01*
X11087343Y-11167176D01*
X11106390Y-11157652D01*
X11115914Y-11138605D01*
X11115914Y-11129081D01*
X11106390Y-11110033D01*
X11087343Y-11100510D01*
X11058771Y-11100510D01*
X11039724Y-11090986D01*
X11030200Y-11071938D01*
X11030200Y-11062414D01*
X11039724Y-11043367D01*
X11058771Y-11033843D01*
X11087343Y-11033843D01*
X11106390Y-11043367D01*
X11182581Y-11243367D02*
X11192105Y-11233843D01*
X11211152Y-11205271D01*
X11220676Y-11186224D01*
X11230200Y-11157652D01*
X11239724Y-11110033D01*
X11239724Y-11071938D01*
X11230200Y-11024319D01*
X11220676Y-10995748D01*
X11211152Y-10976700D01*
X11192105Y-10948129D01*
X11182581Y-10938605D01*
D14*
X6170200Y-11290700D02*
X6170200Y-11390700D01*
X6120200Y-11340700D02*
X6220200Y-11340700D01*
D11*
X6582581Y-11431176D02*
X6468295Y-11431176D01*
X6525438Y-11431176D02*
X6525438Y-11231176D01*
X6506390Y-11259748D01*
X6487343Y-11278795D01*
X6468295Y-11288319D01*
X6668295Y-11412128D02*
X6677819Y-11421652D01*
X6668295Y-11431176D01*
X6658771Y-11421652D01*
X6668295Y-11412128D01*
X6668295Y-11431176D01*
X6801628Y-11231176D02*
X6820676Y-11231176D01*
X6839724Y-11240700D01*
X6849248Y-11250224D01*
X6858771Y-11269271D01*
X6868295Y-11307367D01*
X6868295Y-11354986D01*
X6858771Y-11393081D01*
X6849248Y-11412128D01*
X6839724Y-11421652D01*
X6820676Y-11431176D01*
X6801628Y-11431176D01*
X6782581Y-11421652D01*
X6773057Y-11412128D01*
X6763533Y-11393081D01*
X6754009Y-11354986D01*
X6754009Y-11307367D01*
X6763533Y-11269271D01*
X6773057Y-11250224D01*
X6782581Y-11240700D01*
X6801628Y-11231176D01*
X6992105Y-11231176D02*
X7011152Y-11231176D01*
X7030200Y-11240700D01*
X7039724Y-11250224D01*
X7049248Y-11269271D01*
X7058771Y-11307367D01*
X7058771Y-11354986D01*
X7049248Y-11393081D01*
X7039724Y-11412128D01*
X7030200Y-11421652D01*
X7011152Y-11431176D01*
X6992105Y-11431176D01*
X6973057Y-11421652D01*
X6963533Y-11412128D01*
X6954009Y-11393081D01*
X6944486Y-11354986D01*
X6944486Y-11307367D01*
X6954009Y-11269271D01*
X6963533Y-11250224D01*
X6973057Y-11240700D01*
X6992105Y-11231176D01*
X7182581Y-11231176D02*
X7201628Y-11231176D01*
X7220676Y-11240700D01*
X7230200Y-11250224D01*
X7239724Y-11269271D01*
X7249248Y-11307367D01*
X7249248Y-11354986D01*
X7239724Y-11393081D01*
X7230200Y-11412128D01*
X7220676Y-11421652D01*
X7201628Y-11431176D01*
X7182581Y-11431176D01*
X7163533Y-11421652D01*
X7154009Y-11412128D01*
X7144486Y-11393081D01*
X7134962Y-11354986D01*
X7134962Y-11307367D01*
X7144486Y-11269271D01*
X7154009Y-11250224D01*
X7163533Y-11240700D01*
X7182581Y-11231176D01*
X7334962Y-11431176D02*
X7334962Y-11297843D01*
X7334962Y-11316890D02*
X7344486Y-11307367D01*
X7363533Y-11297843D01*
X7392105Y-11297843D01*
X7411152Y-11307367D01*
X7420676Y-11326414D01*
X7420676Y-11431176D01*
X7420676Y-11326414D02*
X7430200Y-11307367D01*
X7449248Y-11297843D01*
X7477819Y-11297843D01*
X7496867Y-11307367D01*
X7506390Y-11326414D01*
X7506390Y-11431176D01*
X7601628Y-11431176D02*
X7601628Y-11297843D01*
X7601628Y-11316890D02*
X7611152Y-11307367D01*
X7630200Y-11297843D01*
X7658771Y-11297843D01*
X7677819Y-11307367D01*
X7687343Y-11326414D01*
X7687343Y-11431176D01*
X7687343Y-11326414D02*
X7696867Y-11307367D01*
X7715914Y-11297843D01*
X7744486Y-11297843D01*
X7763533Y-11307367D01*
X7773057Y-11326414D01*
X7773057Y-11431176D01*
X8163533Y-11221652D02*
X7992105Y-11478795D01*
X8420676Y-11231176D02*
X8439724Y-11231176D01*
X8458771Y-11240700D01*
X8468295Y-11250224D01*
X8477819Y-11269271D01*
X8487343Y-11307367D01*
X8487343Y-11354986D01*
X8477819Y-11393081D01*
X8468295Y-11412128D01*
X8458771Y-11421652D01*
X8439724Y-11431176D01*
X8420676Y-11431176D01*
X8401629Y-11421652D01*
X8392105Y-11412128D01*
X8382581Y-11393081D01*
X8373057Y-11354986D01*
X8373057Y-11307367D01*
X8382581Y-11269271D01*
X8392105Y-11250224D01*
X8401629Y-11240700D01*
X8420676Y-11231176D01*
X8573057Y-11412128D02*
X8582581Y-11421652D01*
X8573057Y-11431176D01*
X8563533Y-11421652D01*
X8573057Y-11412128D01*
X8573057Y-11431176D01*
X8706390Y-11231176D02*
X8725438Y-11231176D01*
X8744486Y-11240700D01*
X8754010Y-11250224D01*
X8763533Y-11269271D01*
X8773057Y-11307367D01*
X8773057Y-11354986D01*
X8763533Y-11393081D01*
X8754010Y-11412128D01*
X8744486Y-11421652D01*
X8725438Y-11431176D01*
X8706390Y-11431176D01*
X8687343Y-11421652D01*
X8677819Y-11412128D01*
X8668295Y-11393081D01*
X8658771Y-11354986D01*
X8658771Y-11307367D01*
X8668295Y-11269271D01*
X8677819Y-11250224D01*
X8687343Y-11240700D01*
X8706390Y-11231176D01*
X8839724Y-11231176D02*
X8963533Y-11231176D01*
X8896867Y-11307367D01*
X8925438Y-11307367D01*
X8944486Y-11316890D01*
X8954010Y-11326414D01*
X8963533Y-11345462D01*
X8963533Y-11393081D01*
X8954010Y-11412128D01*
X8944486Y-11421652D01*
X8925438Y-11431176D01*
X8868295Y-11431176D01*
X8849248Y-11421652D01*
X8839724Y-11412128D01*
X9058771Y-11431176D02*
X9096867Y-11431176D01*
X9115914Y-11421652D01*
X9125438Y-11412128D01*
X9144486Y-11383557D01*
X9154010Y-11345462D01*
X9154010Y-11269271D01*
X9144486Y-11250224D01*
X9134962Y-11240700D01*
X9115914Y-11231176D01*
X9077819Y-11231176D01*
X9058771Y-11240700D01*
X9049248Y-11250224D01*
X9039724Y-11269271D01*
X9039724Y-11316890D01*
X9049248Y-11335938D01*
X9058771Y-11345462D01*
X9077819Y-11354986D01*
X9115914Y-11354986D01*
X9134962Y-11345462D01*
X9144486Y-11335938D01*
X9154010Y-11316890D01*
X9325438Y-11297843D02*
X9325438Y-11431176D01*
X9277819Y-11221652D02*
X9230200Y-11364509D01*
X9354010Y-11364509D01*
X9420676Y-11231176D02*
X9420676Y-11269271D01*
X9496867Y-11231176D02*
X9496867Y-11269271D01*
X9792105Y-11507367D02*
X9782581Y-11497843D01*
X9763533Y-11469271D01*
X9754010Y-11450224D01*
X9744486Y-11421652D01*
X9734962Y-11374033D01*
X9734962Y-11335938D01*
X9744486Y-11288319D01*
X9754010Y-11259748D01*
X9763533Y-11240700D01*
X9782581Y-11212128D01*
X9792105Y-11202605D01*
X9954010Y-11231176D02*
X9915914Y-11231176D01*
X9896867Y-11240700D01*
X9887343Y-11250224D01*
X9868295Y-11278795D01*
X9858771Y-11316890D01*
X9858771Y-11393081D01*
X9868295Y-11412128D01*
X9877819Y-11421652D01*
X9896867Y-11431176D01*
X9934962Y-11431176D01*
X9954010Y-11421652D01*
X9963533Y-11412128D01*
X9973057Y-11393081D01*
X9973057Y-11345462D01*
X9963533Y-11326414D01*
X9954010Y-11316890D01*
X9934962Y-11307367D01*
X9896867Y-11307367D01*
X9877819Y-11316890D01*
X9868295Y-11326414D01*
X9858771Y-11345462D01*
X10211152Y-11431176D02*
X10211152Y-11231176D01*
X10296867Y-11431176D02*
X10296867Y-11326414D01*
X10287343Y-11307367D01*
X10268295Y-11297843D01*
X10239724Y-11297843D01*
X10220676Y-11307367D01*
X10211152Y-11316890D01*
X10420676Y-11431176D02*
X10401629Y-11421652D01*
X10392105Y-11412128D01*
X10382581Y-11393081D01*
X10382581Y-11335938D01*
X10392105Y-11316890D01*
X10401629Y-11307367D01*
X10420676Y-11297843D01*
X10449248Y-11297843D01*
X10468295Y-11307367D01*
X10477819Y-11316890D01*
X10487343Y-11335938D01*
X10487343Y-11393081D01*
X10477819Y-11412128D01*
X10468295Y-11421652D01*
X10449248Y-11431176D01*
X10420676Y-11431176D01*
X10601629Y-11431176D02*
X10582581Y-11421652D01*
X10573057Y-11402605D01*
X10573057Y-11231176D01*
X10754010Y-11421652D02*
X10734962Y-11431176D01*
X10696867Y-11431176D01*
X10677819Y-11421652D01*
X10668295Y-11402605D01*
X10668295Y-11326414D01*
X10677819Y-11307367D01*
X10696867Y-11297843D01*
X10734962Y-11297843D01*
X10754010Y-11307367D01*
X10763533Y-11326414D01*
X10763533Y-11345462D01*
X10668295Y-11364509D01*
X10839724Y-11421652D02*
X10858771Y-11431176D01*
X10896867Y-11431176D01*
X10915914Y-11421652D01*
X10925438Y-11402605D01*
X10925438Y-11393081D01*
X10915914Y-11374033D01*
X10896867Y-11364509D01*
X10868295Y-11364509D01*
X10849248Y-11354986D01*
X10839724Y-11335938D01*
X10839724Y-11326414D01*
X10849248Y-11307367D01*
X10868295Y-11297843D01*
X10896867Y-11297843D01*
X10915914Y-11307367D01*
X10992105Y-11507367D02*
X11001629Y-11497843D01*
X11020676Y-11469271D01*
X11030200Y-11450224D01*
X11039724Y-11421652D01*
X11049248Y-11374033D01*
X11049248Y-11335938D01*
X11039724Y-11288319D01*
X11030200Y-11259748D01*
X11020676Y-11240700D01*
X11001629Y-11212128D01*
X10992105Y-11202605D01*
D15*
X6204091Y-11643591D02*
X6204091Y-11565809D01*
X6126309Y-11565809D01*
X6126309Y-11643591D01*
X6204091Y-11643591D01*
D11*
X6582581Y-11695176D02*
X6468295Y-11695176D01*
X6525438Y-11695176D02*
X6525438Y-11495176D01*
X6506390Y-11523748D01*
X6487343Y-11542795D01*
X6468295Y-11552319D01*
X6668295Y-11676128D02*
X6677819Y-11685652D01*
X6668295Y-11695176D01*
X6658771Y-11685652D01*
X6668295Y-11676128D01*
X6668295Y-11695176D01*
X6868295Y-11695176D02*
X6754009Y-11695176D01*
X6811152Y-11695176D02*
X6811152Y-11495176D01*
X6792105Y-11523748D01*
X6773057Y-11542795D01*
X6754009Y-11552319D01*
X6992105Y-11495176D02*
X7011152Y-11495176D01*
X7030200Y-11504700D01*
X7039724Y-11514224D01*
X7049248Y-11533271D01*
X7058771Y-11571367D01*
X7058771Y-11618986D01*
X7049248Y-11657081D01*
X7039724Y-11676128D01*
X7030200Y-11685652D01*
X7011152Y-11695176D01*
X6992105Y-11695176D01*
X6973057Y-11685652D01*
X6963533Y-11676128D01*
X6954009Y-11657081D01*
X6944486Y-11618986D01*
X6944486Y-11571367D01*
X6954009Y-11533271D01*
X6963533Y-11514224D01*
X6973057Y-11504700D01*
X6992105Y-11495176D01*
X7182581Y-11495176D02*
X7201628Y-11495176D01*
X7220676Y-11504700D01*
X7230200Y-11514224D01*
X7239724Y-11533271D01*
X7249248Y-11571367D01*
X7249248Y-11618986D01*
X7239724Y-11657081D01*
X7230200Y-11676128D01*
X7220676Y-11685652D01*
X7201628Y-11695176D01*
X7182581Y-11695176D01*
X7163533Y-11685652D01*
X7154009Y-11676128D01*
X7144486Y-11657081D01*
X7134962Y-11618986D01*
X7134962Y-11571367D01*
X7144486Y-11533271D01*
X7154009Y-11514224D01*
X7163533Y-11504700D01*
X7182581Y-11495176D01*
X7334962Y-11695176D02*
X7334962Y-11561843D01*
X7334962Y-11580890D02*
X7344486Y-11571367D01*
X7363533Y-11561843D01*
X7392105Y-11561843D01*
X7411152Y-11571367D01*
X7420676Y-11590414D01*
X7420676Y-11695176D01*
X7420676Y-11590414D02*
X7430200Y-11571367D01*
X7449248Y-11561843D01*
X7477819Y-11561843D01*
X7496867Y-11571367D01*
X7506390Y-11590414D01*
X7506390Y-11695176D01*
X7601628Y-11695176D02*
X7601628Y-11561843D01*
X7601628Y-11580890D02*
X7611152Y-11571367D01*
X7630200Y-11561843D01*
X7658771Y-11561843D01*
X7677819Y-11571367D01*
X7687343Y-11590414D01*
X7687343Y-11695176D01*
X7687343Y-11590414D02*
X7696867Y-11571367D01*
X7715914Y-11561843D01*
X7744486Y-11561843D01*
X7763533Y-11571367D01*
X7773057Y-11590414D01*
X7773057Y-11695176D01*
X8163533Y-11485652D02*
X7992105Y-11742795D01*
X8420676Y-11495176D02*
X8439724Y-11495176D01*
X8458771Y-11504700D01*
X8468295Y-11514224D01*
X8477819Y-11533271D01*
X8487343Y-11571367D01*
X8487343Y-11618986D01*
X8477819Y-11657081D01*
X8468295Y-11676128D01*
X8458771Y-11685652D01*
X8439724Y-11695176D01*
X8420676Y-11695176D01*
X8401629Y-11685652D01*
X8392105Y-11676128D01*
X8382581Y-11657081D01*
X8373057Y-11618986D01*
X8373057Y-11571367D01*
X8382581Y-11533271D01*
X8392105Y-11514224D01*
X8401629Y-11504700D01*
X8420676Y-11495176D01*
X8573057Y-11676128D02*
X8582581Y-11685652D01*
X8573057Y-11695176D01*
X8563533Y-11685652D01*
X8573057Y-11676128D01*
X8573057Y-11695176D01*
X8706390Y-11495176D02*
X8725438Y-11495176D01*
X8744486Y-11504700D01*
X8754010Y-11514224D01*
X8763533Y-11533271D01*
X8773057Y-11571367D01*
X8773057Y-11618986D01*
X8763533Y-11657081D01*
X8754010Y-11676128D01*
X8744486Y-11685652D01*
X8725438Y-11695176D01*
X8706390Y-11695176D01*
X8687343Y-11685652D01*
X8677819Y-11676128D01*
X8668295Y-11657081D01*
X8658771Y-11618986D01*
X8658771Y-11571367D01*
X8668295Y-11533271D01*
X8677819Y-11514224D01*
X8687343Y-11504700D01*
X8706390Y-11495176D01*
X8944486Y-11561843D02*
X8944486Y-11695176D01*
X8896867Y-11485652D02*
X8849248Y-11628509D01*
X8973057Y-11628509D01*
X9030200Y-11495176D02*
X9154010Y-11495176D01*
X9087343Y-11571367D01*
X9115914Y-11571367D01*
X9134962Y-11580890D01*
X9144486Y-11590414D01*
X9154010Y-11609462D01*
X9154010Y-11657081D01*
X9144486Y-11676128D01*
X9134962Y-11685652D01*
X9115914Y-11695176D01*
X9058771Y-11695176D01*
X9039724Y-11685652D01*
X9030200Y-11676128D01*
X9220676Y-11495176D02*
X9344486Y-11495176D01*
X9277819Y-11571367D01*
X9306390Y-11571367D01*
X9325438Y-11580890D01*
X9334962Y-11590414D01*
X9344486Y-11609462D01*
X9344486Y-11657081D01*
X9334962Y-11676128D01*
X9325438Y-11685652D01*
X9306390Y-11695176D01*
X9249248Y-11695176D01*
X9230200Y-11685652D01*
X9220676Y-11676128D01*
X9420676Y-11495176D02*
X9420676Y-11533271D01*
X9496867Y-11495176D02*
X9496867Y-11533271D01*
X9792105Y-11771367D02*
X9782581Y-11761843D01*
X9763533Y-11733271D01*
X9754010Y-11714224D01*
X9744486Y-11685652D01*
X9734962Y-11638033D01*
X9734962Y-11599938D01*
X9744486Y-11552319D01*
X9754010Y-11523748D01*
X9763533Y-11504700D01*
X9782581Y-11476128D01*
X9792105Y-11466605D01*
X9877819Y-11695176D02*
X9915914Y-11695176D01*
X9934962Y-11685652D01*
X9944486Y-11676128D01*
X9963533Y-11647557D01*
X9973057Y-11609462D01*
X9973057Y-11533271D01*
X9963533Y-11514224D01*
X9954010Y-11504700D01*
X9934962Y-11495176D01*
X9896867Y-11495176D01*
X9877819Y-11504700D01*
X9868295Y-11514224D01*
X9858771Y-11533271D01*
X9858771Y-11580890D01*
X9868295Y-11599938D01*
X9877819Y-11609462D01*
X9896867Y-11618986D01*
X9934962Y-11618986D01*
X9954010Y-11609462D01*
X9963533Y-11599938D01*
X9973057Y-11580890D01*
X10211152Y-11695176D02*
X10211152Y-11495176D01*
X10296867Y-11695176D02*
X10296867Y-11590414D01*
X10287343Y-11571367D01*
X10268295Y-11561843D01*
X10239724Y-11561843D01*
X10220676Y-11571367D01*
X10211152Y-11580890D01*
X10420676Y-11695176D02*
X10401629Y-11685652D01*
X10392105Y-11676128D01*
X10382581Y-11657081D01*
X10382581Y-11599938D01*
X10392105Y-11580890D01*
X10401629Y-11571367D01*
X10420676Y-11561843D01*
X10449248Y-11561843D01*
X10468295Y-11571367D01*
X10477819Y-11580890D01*
X10487343Y-11599938D01*
X10487343Y-11657081D01*
X10477819Y-11676128D01*
X10468295Y-11685652D01*
X10449248Y-11695176D01*
X10420676Y-11695176D01*
X10601629Y-11695176D02*
X10582581Y-11685652D01*
X10573057Y-11666605D01*
X10573057Y-11495176D01*
X10754010Y-11685652D02*
X10734962Y-11695176D01*
X10696867Y-11695176D01*
X10677819Y-11685652D01*
X10668295Y-11666605D01*
X10668295Y-11590414D01*
X10677819Y-11571367D01*
X10696867Y-11561843D01*
X10734962Y-11561843D01*
X10754010Y-11571367D01*
X10763533Y-11590414D01*
X10763533Y-11609462D01*
X10668295Y-11628509D01*
X10839724Y-11685652D02*
X10858771Y-11695176D01*
X10896867Y-11695176D01*
X10915914Y-11685652D01*
X10925438Y-11666605D01*
X10925438Y-11657081D01*
X10915914Y-11638033D01*
X10896867Y-11628509D01*
X10868295Y-11628509D01*
X10849248Y-11618986D01*
X10839724Y-11599938D01*
X10839724Y-11590414D01*
X10849248Y-11571367D01*
X10868295Y-11561843D01*
X10896867Y-11561843D01*
X10915914Y-11571367D01*
X10992105Y-11771367D02*
X11001629Y-11761843D01*
X11020676Y-11733271D01*
X11030200Y-11714224D01*
X11039724Y-11685652D01*
X11049248Y-11638033D01*
X11049248Y-11599938D01*
X11039724Y-11552319D01*
X11030200Y-11523748D01*
X11020676Y-11504700D01*
X11001629Y-11476128D01*
X10992105Y-11466605D01*
D15*
X6165200Y-11923700D02*
X6220200Y-11868700D01*
X6165200Y-11813700D01*
X6110200Y-11868700D01*
X6165200Y-11923700D01*
D11*
X6582581Y-11959176D02*
X6468295Y-11959176D01*
X6525438Y-11959176D02*
X6525438Y-11759176D01*
X6506390Y-11787748D01*
X6487343Y-11806795D01*
X6468295Y-11816319D01*
X6668295Y-11940128D02*
X6677819Y-11949652D01*
X6668295Y-11959176D01*
X6658771Y-11949652D01*
X6668295Y-11940128D01*
X6668295Y-11959176D01*
X6868295Y-11959176D02*
X6754009Y-11959176D01*
X6811152Y-11959176D02*
X6811152Y-11759176D01*
X6792105Y-11787748D01*
X6773057Y-11806795D01*
X6754009Y-11816319D01*
X6992105Y-11759176D02*
X7011152Y-11759176D01*
X7030200Y-11768700D01*
X7039724Y-11778224D01*
X7049248Y-11797271D01*
X7058771Y-11835367D01*
X7058771Y-11882986D01*
X7049248Y-11921081D01*
X7039724Y-11940128D01*
X7030200Y-11949652D01*
X7011152Y-11959176D01*
X6992105Y-11959176D01*
X6973057Y-11949652D01*
X6963533Y-11940128D01*
X6954009Y-11921081D01*
X6944486Y-11882986D01*
X6944486Y-11835367D01*
X6954009Y-11797271D01*
X6963533Y-11778224D01*
X6973057Y-11768700D01*
X6992105Y-11759176D01*
X7182581Y-11759176D02*
X7201628Y-11759176D01*
X7220676Y-11768700D01*
X7230200Y-11778224D01*
X7239724Y-11797271D01*
X7249248Y-11835367D01*
X7249248Y-11882986D01*
X7239724Y-11921081D01*
X7230200Y-11940128D01*
X7220676Y-11949652D01*
X7201628Y-11959176D01*
X7182581Y-11959176D01*
X7163533Y-11949652D01*
X7154009Y-11940128D01*
X7144486Y-11921081D01*
X7134962Y-11882986D01*
X7134962Y-11835367D01*
X7144486Y-11797271D01*
X7154009Y-11778224D01*
X7163533Y-11768700D01*
X7182581Y-11759176D01*
X7334962Y-11959176D02*
X7334962Y-11825843D01*
X7334962Y-11844890D02*
X7344486Y-11835367D01*
X7363533Y-11825843D01*
X7392105Y-11825843D01*
X7411152Y-11835367D01*
X7420676Y-11854414D01*
X7420676Y-11959176D01*
X7420676Y-11854414D02*
X7430200Y-11835367D01*
X7449248Y-11825843D01*
X7477819Y-11825843D01*
X7496867Y-11835367D01*
X7506390Y-11854414D01*
X7506390Y-11959176D01*
X7601628Y-11959176D02*
X7601628Y-11825843D01*
X7601628Y-11844890D02*
X7611152Y-11835367D01*
X7630200Y-11825843D01*
X7658771Y-11825843D01*
X7677819Y-11835367D01*
X7687343Y-11854414D01*
X7687343Y-11959176D01*
X7687343Y-11854414D02*
X7696867Y-11835367D01*
X7715914Y-11825843D01*
X7744486Y-11825843D01*
X7763533Y-11835367D01*
X7773057Y-11854414D01*
X7773057Y-11959176D01*
X8163533Y-11749652D02*
X7992105Y-12006795D01*
X8420676Y-11759176D02*
X8439724Y-11759176D01*
X8458771Y-11768700D01*
X8468295Y-11778224D01*
X8477819Y-11797271D01*
X8487343Y-11835367D01*
X8487343Y-11882986D01*
X8477819Y-11921081D01*
X8468295Y-11940128D01*
X8458771Y-11949652D01*
X8439724Y-11959176D01*
X8420676Y-11959176D01*
X8401629Y-11949652D01*
X8392105Y-11940128D01*
X8382581Y-11921081D01*
X8373057Y-11882986D01*
X8373057Y-11835367D01*
X8382581Y-11797271D01*
X8392105Y-11778224D01*
X8401629Y-11768700D01*
X8420676Y-11759176D01*
X8573057Y-11940128D02*
X8582581Y-11949652D01*
X8573057Y-11959176D01*
X8563533Y-11949652D01*
X8573057Y-11940128D01*
X8573057Y-11959176D01*
X8706390Y-11759176D02*
X8725438Y-11759176D01*
X8744486Y-11768700D01*
X8754010Y-11778224D01*
X8763533Y-11797271D01*
X8773057Y-11835367D01*
X8773057Y-11882986D01*
X8763533Y-11921081D01*
X8754010Y-11940128D01*
X8744486Y-11949652D01*
X8725438Y-11959176D01*
X8706390Y-11959176D01*
X8687343Y-11949652D01*
X8677819Y-11940128D01*
X8668295Y-11921081D01*
X8658771Y-11882986D01*
X8658771Y-11835367D01*
X8668295Y-11797271D01*
X8677819Y-11778224D01*
X8687343Y-11768700D01*
X8706390Y-11759176D01*
X8944486Y-11825843D02*
X8944486Y-11959176D01*
X8896867Y-11749652D02*
X8849248Y-11892509D01*
X8973057Y-11892509D01*
X9030200Y-11759176D02*
X9154010Y-11759176D01*
X9087343Y-11835367D01*
X9115914Y-11835367D01*
X9134962Y-11844890D01*
X9144486Y-11854414D01*
X9154010Y-11873462D01*
X9154010Y-11921081D01*
X9144486Y-11940128D01*
X9134962Y-11949652D01*
X9115914Y-11959176D01*
X9058771Y-11959176D01*
X9039724Y-11949652D01*
X9030200Y-11940128D01*
X9220676Y-11759176D02*
X9344486Y-11759176D01*
X9277819Y-11835367D01*
X9306390Y-11835367D01*
X9325438Y-11844890D01*
X9334962Y-11854414D01*
X9344486Y-11873462D01*
X9344486Y-11921081D01*
X9334962Y-11940128D01*
X9325438Y-11949652D01*
X9306390Y-11959176D01*
X9249248Y-11959176D01*
X9230200Y-11949652D01*
X9220676Y-11940128D01*
X9420676Y-11759176D02*
X9420676Y-11797271D01*
X9496867Y-11759176D02*
X9496867Y-11797271D01*
X9792105Y-12035367D02*
X9782581Y-12025843D01*
X9763533Y-11997271D01*
X9754010Y-11978224D01*
X9744486Y-11949652D01*
X9734962Y-11902033D01*
X9734962Y-11863938D01*
X9744486Y-11816319D01*
X9754010Y-11787748D01*
X9763533Y-11768700D01*
X9782581Y-11740128D01*
X9792105Y-11730605D01*
X9858771Y-11778224D02*
X9868295Y-11768700D01*
X9887343Y-11759176D01*
X9934962Y-11759176D01*
X9954010Y-11768700D01*
X9963533Y-11778224D01*
X9973057Y-11797271D01*
X9973057Y-11816319D01*
X9963533Y-11844890D01*
X9849248Y-11959176D01*
X9973057Y-11959176D01*
X10211152Y-11959176D02*
X10211152Y-11759176D01*
X10296867Y-11959176D02*
X10296867Y-11854414D01*
X10287343Y-11835367D01*
X10268295Y-11825843D01*
X10239724Y-11825843D01*
X10220676Y-11835367D01*
X10211152Y-11844890D01*
X10420676Y-11959176D02*
X10401629Y-11949652D01*
X10392105Y-11940128D01*
X10382581Y-11921081D01*
X10382581Y-11863938D01*
X10392105Y-11844890D01*
X10401629Y-11835367D01*
X10420676Y-11825843D01*
X10449248Y-11825843D01*
X10468295Y-11835367D01*
X10477819Y-11844890D01*
X10487343Y-11863938D01*
X10487343Y-11921081D01*
X10477819Y-11940128D01*
X10468295Y-11949652D01*
X10449248Y-11959176D01*
X10420676Y-11959176D01*
X10601629Y-11959176D02*
X10582581Y-11949652D01*
X10573057Y-11930605D01*
X10573057Y-11759176D01*
X10754010Y-11949652D02*
X10734962Y-11959176D01*
X10696867Y-11959176D01*
X10677819Y-11949652D01*
X10668295Y-11930605D01*
X10668295Y-11854414D01*
X10677819Y-11835367D01*
X10696867Y-11825843D01*
X10734962Y-11825843D01*
X10754010Y-11835367D01*
X10763533Y-11854414D01*
X10763533Y-11873462D01*
X10668295Y-11892509D01*
X10839724Y-11949652D02*
X10858771Y-11959176D01*
X10896867Y-11959176D01*
X10915914Y-11949652D01*
X10925438Y-11930605D01*
X10925438Y-11921081D01*
X10915914Y-11902033D01*
X10896867Y-11892509D01*
X10868295Y-11892509D01*
X10849248Y-11882986D01*
X10839724Y-11863938D01*
X10839724Y-11854414D01*
X10849248Y-11835367D01*
X10868295Y-11825843D01*
X10896867Y-11825843D01*
X10915914Y-11835367D01*
X10992105Y-12035367D02*
X11001629Y-12025843D01*
X11020676Y-11997271D01*
X11030200Y-11978224D01*
X11039724Y-11949652D01*
X11049248Y-11902033D01*
X11049248Y-11863938D01*
X11039724Y-11816319D01*
X11030200Y-11787748D01*
X11020676Y-11768700D01*
X11001629Y-11740128D01*
X10992105Y-11730605D01*
X11354009Y-12035367D02*
X11344486Y-12025843D01*
X11325438Y-11997271D01*
X11315914Y-11978224D01*
X11306390Y-11949652D01*
X11296867Y-11902033D01*
X11296867Y-11863938D01*
X11306390Y-11816319D01*
X11315914Y-11787748D01*
X11325438Y-11768700D01*
X11344486Y-11740128D01*
X11354009Y-11730605D01*
X11430200Y-11825843D02*
X11430200Y-11959176D01*
X11430200Y-11844890D02*
X11439724Y-11835367D01*
X11458771Y-11825843D01*
X11487343Y-11825843D01*
X11506390Y-11835367D01*
X11515914Y-11854414D01*
X11515914Y-11959176D01*
X11639724Y-11959176D02*
X11620676Y-11949652D01*
X11611152Y-11940128D01*
X11601628Y-11921081D01*
X11601628Y-11863938D01*
X11611152Y-11844890D01*
X11620676Y-11835367D01*
X11639724Y-11825843D01*
X11668295Y-11825843D01*
X11687343Y-11835367D01*
X11696867Y-11844890D01*
X11706390Y-11863938D01*
X11706390Y-11921081D01*
X11696867Y-11940128D01*
X11687343Y-11949652D01*
X11668295Y-11959176D01*
X11639724Y-11959176D01*
X11763533Y-11825843D02*
X11839724Y-11825843D01*
X11792105Y-11759176D02*
X11792105Y-11930605D01*
X11801628Y-11949652D01*
X11820676Y-11959176D01*
X11839724Y-11959176D01*
X12058771Y-11825843D02*
X12058771Y-12025843D01*
X12058771Y-11835367D02*
X12077819Y-11825843D01*
X12115914Y-11825843D01*
X12134962Y-11835367D01*
X12144486Y-11844890D01*
X12154009Y-11863938D01*
X12154009Y-11921081D01*
X12144486Y-11940128D01*
X12134962Y-11949652D01*
X12115914Y-11959176D01*
X12077819Y-11959176D01*
X12058771Y-11949652D01*
X12268295Y-11959176D02*
X12249248Y-11949652D01*
X12239724Y-11930605D01*
X12239724Y-11759176D01*
X12430200Y-11959176D02*
X12430200Y-11854414D01*
X12420676Y-11835367D01*
X12401628Y-11825843D01*
X12363533Y-11825843D01*
X12344486Y-11835367D01*
X12430200Y-11949652D02*
X12411152Y-11959176D01*
X12363533Y-11959176D01*
X12344486Y-11949652D01*
X12334962Y-11930605D01*
X12334962Y-11911557D01*
X12344486Y-11892509D01*
X12363533Y-11882986D01*
X12411152Y-11882986D01*
X12430200Y-11873462D01*
X12496867Y-11825843D02*
X12573057Y-11825843D01*
X12525438Y-11759176D02*
X12525438Y-11930605D01*
X12534962Y-11949652D01*
X12554009Y-11959176D01*
X12573057Y-11959176D01*
X12715914Y-11949652D02*
X12696867Y-11959176D01*
X12658771Y-11959176D01*
X12639724Y-11949652D01*
X12630200Y-11930605D01*
X12630200Y-11854414D01*
X12639724Y-11835367D01*
X12658771Y-11825843D01*
X12696867Y-11825843D01*
X12715914Y-11835367D01*
X12725438Y-11854414D01*
X12725438Y-11873462D01*
X12630200Y-11892509D01*
X12896867Y-11959176D02*
X12896867Y-11759176D01*
X12896867Y-11949652D02*
X12877819Y-11959176D01*
X12839724Y-11959176D01*
X12820676Y-11949652D01*
X12811152Y-11940128D01*
X12801628Y-11921081D01*
X12801628Y-11863938D01*
X12811152Y-11844890D01*
X12820676Y-11835367D01*
X12839724Y-11825843D01*
X12877819Y-11825843D01*
X12896867Y-11835367D01*
X12973057Y-12035367D02*
X12982581Y-12025843D01*
X13001628Y-11997271D01*
X13011152Y-11978224D01*
X13020676Y-11949652D01*
X13030200Y-11902033D01*
X13030200Y-11863938D01*
X13020676Y-11816319D01*
X13011152Y-11787748D01*
X13001628Y-11768700D01*
X12982581Y-11740128D01*
X12973057Y-11730605D01*
X6020200Y-12032700D02*
X6220200Y-12232700D01*
X6220200Y-12032700D02*
X6020200Y-12232700D01*
X6220200Y-12132700D02*
G75*
G03*
X6220200Y-12132700I-100000J0D01*
G01*
X6468295Y-12042224D02*
X6477819Y-12032700D01*
X6496867Y-12023176D01*
X6544486Y-12023176D01*
X6563533Y-12032700D01*
X6573057Y-12042224D01*
X6582581Y-12061271D01*
X6582581Y-12080319D01*
X6573057Y-12108890D01*
X6458771Y-12223176D01*
X6582581Y-12223176D01*
X6668295Y-12204128D02*
X6677819Y-12213652D01*
X6668295Y-12223176D01*
X6658771Y-12213652D01*
X6668295Y-12204128D01*
X6668295Y-12223176D01*
X6801628Y-12023176D02*
X6820676Y-12023176D01*
X6839724Y-12032700D01*
X6849248Y-12042224D01*
X6858771Y-12061271D01*
X6868295Y-12099367D01*
X6868295Y-12146986D01*
X6858771Y-12185081D01*
X6849248Y-12204128D01*
X6839724Y-12213652D01*
X6820676Y-12223176D01*
X6801628Y-12223176D01*
X6782581Y-12213652D01*
X6773057Y-12204128D01*
X6763533Y-12185081D01*
X6754009Y-12146986D01*
X6754009Y-12099367D01*
X6763533Y-12061271D01*
X6773057Y-12042224D01*
X6782581Y-12032700D01*
X6801628Y-12023176D01*
X6992105Y-12023176D02*
X7011152Y-12023176D01*
X7030200Y-12032700D01*
X7039724Y-12042224D01*
X7049248Y-12061271D01*
X7058771Y-12099367D01*
X7058771Y-12146986D01*
X7049248Y-12185081D01*
X7039724Y-12204128D01*
X7030200Y-12213652D01*
X7011152Y-12223176D01*
X6992105Y-12223176D01*
X6973057Y-12213652D01*
X6963533Y-12204128D01*
X6954009Y-12185081D01*
X6944486Y-12146986D01*
X6944486Y-12099367D01*
X6954009Y-12061271D01*
X6963533Y-12042224D01*
X6973057Y-12032700D01*
X6992105Y-12023176D01*
X7182581Y-12023176D02*
X7201628Y-12023176D01*
X7220676Y-12032700D01*
X7230200Y-12042224D01*
X7239724Y-12061271D01*
X7249248Y-12099367D01*
X7249248Y-12146986D01*
X7239724Y-12185081D01*
X7230200Y-12204128D01*
X7220676Y-12213652D01*
X7201628Y-12223176D01*
X7182581Y-12223176D01*
X7163533Y-12213652D01*
X7154009Y-12204128D01*
X7144486Y-12185081D01*
X7134962Y-12146986D01*
X7134962Y-12099367D01*
X7144486Y-12061271D01*
X7154009Y-12042224D01*
X7163533Y-12032700D01*
X7182581Y-12023176D01*
X7334962Y-12223176D02*
X7334962Y-12089843D01*
X7334962Y-12108890D02*
X7344486Y-12099367D01*
X7363533Y-12089843D01*
X7392105Y-12089843D01*
X7411152Y-12099367D01*
X7420676Y-12118414D01*
X7420676Y-12223176D01*
X7420676Y-12118414D02*
X7430200Y-12099367D01*
X7449248Y-12089843D01*
X7477819Y-12089843D01*
X7496867Y-12099367D01*
X7506390Y-12118414D01*
X7506390Y-12223176D01*
X7601628Y-12223176D02*
X7601628Y-12089843D01*
X7601628Y-12108890D02*
X7611152Y-12099367D01*
X7630200Y-12089843D01*
X7658771Y-12089843D01*
X7677819Y-12099367D01*
X7687343Y-12118414D01*
X7687343Y-12223176D01*
X7687343Y-12118414D02*
X7696867Y-12099367D01*
X7715914Y-12089843D01*
X7744486Y-12089843D01*
X7763533Y-12099367D01*
X7773057Y-12118414D01*
X7773057Y-12223176D01*
X8163533Y-12013652D02*
X7992105Y-12270795D01*
X8420676Y-12023176D02*
X8439724Y-12023176D01*
X8458771Y-12032700D01*
X8468295Y-12042224D01*
X8477819Y-12061271D01*
X8487343Y-12099367D01*
X8487343Y-12146986D01*
X8477819Y-12185081D01*
X8468295Y-12204128D01*
X8458771Y-12213652D01*
X8439724Y-12223176D01*
X8420676Y-12223176D01*
X8401629Y-12213652D01*
X8392105Y-12204128D01*
X8382581Y-12185081D01*
X8373057Y-12146986D01*
X8373057Y-12099367D01*
X8382581Y-12061271D01*
X8392105Y-12042224D01*
X8401629Y-12032700D01*
X8420676Y-12023176D01*
X8573057Y-12204128D02*
X8582581Y-12213652D01*
X8573057Y-12223176D01*
X8563533Y-12213652D01*
X8573057Y-12204128D01*
X8573057Y-12223176D01*
X8706390Y-12023176D02*
X8725438Y-12023176D01*
X8744486Y-12032700D01*
X8754010Y-12042224D01*
X8763533Y-12061271D01*
X8773057Y-12099367D01*
X8773057Y-12146986D01*
X8763533Y-12185081D01*
X8754010Y-12204128D01*
X8744486Y-12213652D01*
X8725438Y-12223176D01*
X8706390Y-12223176D01*
X8687343Y-12213652D01*
X8677819Y-12204128D01*
X8668295Y-12185081D01*
X8658771Y-12146986D01*
X8658771Y-12099367D01*
X8668295Y-12061271D01*
X8677819Y-12042224D01*
X8687343Y-12032700D01*
X8706390Y-12023176D01*
X8839724Y-12023176D02*
X8973057Y-12023176D01*
X8887343Y-12223176D01*
X9077819Y-12108890D02*
X9058771Y-12099367D01*
X9049248Y-12089843D01*
X9039724Y-12070795D01*
X9039724Y-12061271D01*
X9049248Y-12042224D01*
X9058771Y-12032700D01*
X9077819Y-12023176D01*
X9115914Y-12023176D01*
X9134962Y-12032700D01*
X9144486Y-12042224D01*
X9154010Y-12061271D01*
X9154010Y-12070795D01*
X9144486Y-12089843D01*
X9134962Y-12099367D01*
X9115914Y-12108890D01*
X9077819Y-12108890D01*
X9058771Y-12118414D01*
X9049248Y-12127938D01*
X9039724Y-12146986D01*
X9039724Y-12185081D01*
X9049248Y-12204128D01*
X9058771Y-12213652D01*
X9077819Y-12223176D01*
X9115914Y-12223176D01*
X9134962Y-12213652D01*
X9144486Y-12204128D01*
X9154010Y-12185081D01*
X9154010Y-12146986D01*
X9144486Y-12127938D01*
X9134962Y-12118414D01*
X9115914Y-12108890D01*
X9220676Y-12023176D02*
X9354010Y-12023176D01*
X9268295Y-12223176D01*
X9420676Y-12023176D02*
X9420676Y-12061271D01*
X9496867Y-12023176D02*
X9496867Y-12061271D01*
X9792105Y-12299367D02*
X9782581Y-12289843D01*
X9763533Y-12261271D01*
X9754010Y-12242224D01*
X9744486Y-12213652D01*
X9734962Y-12166033D01*
X9734962Y-12127938D01*
X9744486Y-12080319D01*
X9754010Y-12051748D01*
X9763533Y-12032700D01*
X9782581Y-12004128D01*
X9792105Y-11994605D01*
X9858771Y-12042224D02*
X9868295Y-12032700D01*
X9887343Y-12023176D01*
X9934962Y-12023176D01*
X9954010Y-12032700D01*
X9963533Y-12042224D01*
X9973057Y-12061271D01*
X9973057Y-12080319D01*
X9963533Y-12108890D01*
X9849248Y-12223176D01*
X9973057Y-12223176D01*
X10211152Y-12223176D02*
X10211152Y-12023176D01*
X10296867Y-12223176D02*
X10296867Y-12118414D01*
X10287343Y-12099367D01*
X10268295Y-12089843D01*
X10239724Y-12089843D01*
X10220676Y-12099367D01*
X10211152Y-12108890D01*
X10420676Y-12223176D02*
X10401629Y-12213652D01*
X10392105Y-12204128D01*
X10382581Y-12185081D01*
X10382581Y-12127938D01*
X10392105Y-12108890D01*
X10401629Y-12099367D01*
X10420676Y-12089843D01*
X10449248Y-12089843D01*
X10468295Y-12099367D01*
X10477819Y-12108890D01*
X10487343Y-12127938D01*
X10487343Y-12185081D01*
X10477819Y-12204128D01*
X10468295Y-12213652D01*
X10449248Y-12223176D01*
X10420676Y-12223176D01*
X10601629Y-12223176D02*
X10582581Y-12213652D01*
X10573057Y-12194605D01*
X10573057Y-12023176D01*
X10754010Y-12213652D02*
X10734962Y-12223176D01*
X10696867Y-12223176D01*
X10677819Y-12213652D01*
X10668295Y-12194605D01*
X10668295Y-12118414D01*
X10677819Y-12099367D01*
X10696867Y-12089843D01*
X10734962Y-12089843D01*
X10754010Y-12099367D01*
X10763533Y-12118414D01*
X10763533Y-12137462D01*
X10668295Y-12156509D01*
X10839724Y-12213652D02*
X10858771Y-12223176D01*
X10896867Y-12223176D01*
X10915914Y-12213652D01*
X10925438Y-12194605D01*
X10925438Y-12185081D01*
X10915914Y-12166033D01*
X10896867Y-12156509D01*
X10868295Y-12156509D01*
X10849248Y-12146986D01*
X10839724Y-12127938D01*
X10839724Y-12118414D01*
X10849248Y-12099367D01*
X10868295Y-12089843D01*
X10896867Y-12089843D01*
X10915914Y-12099367D01*
X10992105Y-12299367D02*
X11001629Y-12289843D01*
X11020676Y-12261271D01*
X11030200Y-12242224D01*
X11039724Y-12213652D01*
X11049248Y-12166033D01*
X11049248Y-12127938D01*
X11039724Y-12080319D01*
X11030200Y-12051748D01*
X11020676Y-12032700D01*
X11001629Y-12004128D01*
X10992105Y-11994605D01*
X11354009Y-12299367D02*
X11344486Y-12289843D01*
X11325438Y-12261271D01*
X11315914Y-12242224D01*
X11306390Y-12213652D01*
X11296867Y-12166033D01*
X11296867Y-12127938D01*
X11306390Y-12080319D01*
X11315914Y-12051748D01*
X11325438Y-12032700D01*
X11344486Y-12004128D01*
X11354009Y-11994605D01*
X11430200Y-12089843D02*
X11430200Y-12223176D01*
X11430200Y-12108890D02*
X11439724Y-12099367D01*
X11458771Y-12089843D01*
X11487343Y-12089843D01*
X11506390Y-12099367D01*
X11515914Y-12118414D01*
X11515914Y-12223176D01*
X11639724Y-12223176D02*
X11620676Y-12213652D01*
X11611152Y-12204128D01*
X11601628Y-12185081D01*
X11601628Y-12127938D01*
X11611152Y-12108890D01*
X11620676Y-12099367D01*
X11639724Y-12089843D01*
X11668295Y-12089843D01*
X11687343Y-12099367D01*
X11696867Y-12108890D01*
X11706390Y-12127938D01*
X11706390Y-12185081D01*
X11696867Y-12204128D01*
X11687343Y-12213652D01*
X11668295Y-12223176D01*
X11639724Y-12223176D01*
X11763533Y-12089843D02*
X11839724Y-12089843D01*
X11792105Y-12023176D02*
X11792105Y-12194605D01*
X11801628Y-12213652D01*
X11820676Y-12223176D01*
X11839724Y-12223176D01*
X12058771Y-12089843D02*
X12058771Y-12289843D01*
X12058771Y-12099367D02*
X12077819Y-12089843D01*
X12115914Y-12089843D01*
X12134962Y-12099367D01*
X12144486Y-12108890D01*
X12154009Y-12127938D01*
X12154009Y-12185081D01*
X12144486Y-12204128D01*
X12134962Y-12213652D01*
X12115914Y-12223176D01*
X12077819Y-12223176D01*
X12058771Y-12213652D01*
X12268295Y-12223176D02*
X12249248Y-12213652D01*
X12239724Y-12194605D01*
X12239724Y-12023176D01*
X12430200Y-12223176D02*
X12430200Y-12118414D01*
X12420676Y-12099367D01*
X12401628Y-12089843D01*
X12363533Y-12089843D01*
X12344486Y-12099367D01*
X12430200Y-12213652D02*
X12411152Y-12223176D01*
X12363533Y-12223176D01*
X12344486Y-12213652D01*
X12334962Y-12194605D01*
X12334962Y-12175557D01*
X12344486Y-12156509D01*
X12363533Y-12146986D01*
X12411152Y-12146986D01*
X12430200Y-12137462D01*
X12496867Y-12089843D02*
X12573057Y-12089843D01*
X12525438Y-12023176D02*
X12525438Y-12194605D01*
X12534962Y-12213652D01*
X12554009Y-12223176D01*
X12573057Y-12223176D01*
X12715914Y-12213652D02*
X12696867Y-12223176D01*
X12658771Y-12223176D01*
X12639724Y-12213652D01*
X12630200Y-12194605D01*
X12630200Y-12118414D01*
X12639724Y-12099367D01*
X12658771Y-12089843D01*
X12696867Y-12089843D01*
X12715914Y-12099367D01*
X12725438Y-12118414D01*
X12725438Y-12137462D01*
X12630200Y-12156509D01*
X12896867Y-12223176D02*
X12896867Y-12023176D01*
X12896867Y-12213652D02*
X12877819Y-12223176D01*
X12839724Y-12223176D01*
X12820676Y-12213652D01*
X12811152Y-12204128D01*
X12801628Y-12185081D01*
X12801628Y-12127938D01*
X12811152Y-12108890D01*
X12820676Y-12099367D01*
X12839724Y-12089843D01*
X12877819Y-12089843D01*
X12896867Y-12099367D01*
X12973057Y-12299367D02*
X12982581Y-12289843D01*
X13001628Y-12261271D01*
X13011152Y-12242224D01*
X13020676Y-12213652D01*
X13030200Y-12166033D01*
X13030200Y-12127938D01*
X13020676Y-12080319D01*
X13011152Y-12051748D01*
X13001628Y-12032700D01*
X12982581Y-12004128D01*
X12973057Y-11994605D01*
M02*
