<?xml version="1.0" encoding="UTF-8"?><svg id="oil_temp" xmlns="http://www.w3.org/2000/svg" xmlns:xlink="http://www.w3.org/1999/xlink" viewBox="0 0 22.63 14.09"><defs><style>.cls-1{mask:url(#mask);}.cls-2{stroke-linecap:round;}.cls-2,.cls-3{fill:none;stroke:#dbdbdb;}.cls-4{fill:#d9d9d9;}</style><mask id="mask" x="-.38" y="-4.66" width="24" height="24" maskUnits="userSpaceOnUse"><g id="mask0_138_327"><rect class="cls-4" x="-.38" y="-4.66" width="24" height="24"/></g></mask></defs><g class="cls-1"><path class="cls-3" d="M9.76,12.39c0,.66-.53,1.19-1.19,1.19s-1.19-.53-1.19-1.19.53-1.19,1.19-1.19,1.19.53,1.19,1.19Z"/><path class="cls-3" d="M21.87,7.4c-.17.18-.36.26-.6.26s-.42-.08-.6-.26c-.17-.18-.26-.4-.26-.68,0-.13.01-.22.03-.28.01-.05.05-.13.13-.25l.69-.87.7.89c.08.13.12.21.13.25.02.05.03.14.03.27,0,.28-.09.49-.26.68Z"/><path class="cls-2" d="M7.04,8.67h-2.54V2.23L1.28.7l-.68,2.37,3.9,1.52M21.28,2.74c-.17-1.02-.3-1.08-1.52-.68-2.71.9-3.56,1.19-6.61,2.2-1.19.4-1.81-.68-1.86-1.19h-6.78M11.28,8.67h2.71l5.08-6.38M7.04.87h2.88M8.57,3.08V.87M8.57,4.94v5.76M10.12,7.65h-1.52M10.12,9.51h-1.52M10.15,5.84h-1.52"/></g></svg>