<?xml version="1.0" encoding="UTF-8"?><svg id="car" xmlns="http://www.w3.org/2000/svg" viewBox="0 0 418.13 326.64"><path d="M306.07,277.93H112.06c0,5.75.01,11.34,0,16.93-.04,17.32-10.66,29.94-27.99,31.17-13.56.96-27.32.74-40.88-.29-14.84-1.13-25.79-14.08-26.12-29.11-.15-6.75.11-13.5-.15-20.24-.06-1.53-1.12-3.53-2.37-4.43C4.85,264.88-.08,255.55,0,243.47c.12-18.36.07-36.72.02-55.09-.06-18.37,6.12-34.31,18.28-48.03,4.99-5.63,9.86-11.35,15.66-18.04-2.83,0-4.72.02-6.61,0-13.34-.2-23.24-9.62-23.74-22.91-.18-4.68-.31-9.52.68-14.04,2.24-10.25,11.68-17.35,22.28-17.53,2.35-.04,4.71-.09,7.06.02,5.6.25,9.54,4.08,9.8,9.4.28,5.62-2.86,9.6-8.46,10.61-1.23.22-2.49.27-3.74.3-7.03.14-10.6,5.08-7.11,11.26,2.96,5.26,8.9,1.37,13.39,2.35,2.29.5,3.55-.43,4.3-2.97,4.45-14.99,9.08-29.93,13.75-44.85C66,20.58,93.93.02,128.76,0c53.52-.01,107.03-.01,160.55,0,34.97,0,62.79,20.44,73.22,53.83,4.57,14.63,9.05,29.29,13.4,43.98.9,3.04,2.21,4.44,5.54,4.05,2.79-.33,5.65-.17,8.47-.04,3.27.15,4.56-1.49,4.56-4.53,0-1.26-.07-2.52.02-3.77.26-3.73-1.27-5.61-5.18-5.39-1.87.11-3.78.07-5.63-.18-5.91-.82-9.26-4.84-9.02-10.61.23-5.52,4.27-9.24,10.18-9.53,8.34-.41,16.34.22,22.69,6.63,4.13,4.17,6.81,9.05,6.89,14.99.07,5,.42,10.15-.55,14.99-2.03,10.17-11.5,17.46-22.09,17.87-2.16.08-4.32.01-7.57.01,5.42,6.28,10.08,11.88,14.96,17.3,12.86,14.27,19.16,30.91,18.95,50.15-.2,17.89-.14,35.78,0,53.67.09,11.9-4.64,21.3-14.25,28.1-2.3,1.63-2.86,3.26-2.82,5.77.11,6.43.15,12.87,0,19.3-.35,15.22-11.3,28.1-26.56,29.18-14.18,1-28.55.91-42.74-.1-14.56-1.04-25.51-14.23-25.67-28.91-.07-6.1-.01-12.21-.01-18.83ZM20.82,216.5c15.53,0,30.57.21,45.6-.09,7.23-.14,11.68-5.34,11.82-12.61.07-3.29.03-6.59.02-9.89-.03-10.18-4.34-14.54-14.6-14.65-7.37-.08-14.76.12-22.12-.13-6.1-.21-10.08-4.57-9.92-10.26.16-5.73,4.26-9.66,10.47-9.73,8.32-.09,16.64-.1,24.95.03,15.46.24,28.39,11.12,30.88,26.4.9,5.52.82,11.24.82,16.86,0,20.47-13.67,34.13-34.22,34.25-12.87.08-25.74.02-38.61.02-1.66,0-3.32,0-4.87,0-1.98,13.77,1.96,21.07,17.32,20.77,30.59-.6,61.2-.18,91.81-.18,1.81,0,3.62,0,5.72,0,0-10.77-.02-20.8,0-30.83.03-10.02,3.56-13.52,13.66-13.52,39.86,0,79.73,0,119.59,0,.94,0,1.89-.03,2.82.02,6.5.37,10.42,4.33,10.48,10.86.09,9.57.03,19.15.03,28.72,0,1.5,0,3,0,4.67,35.21,0,69.73.1,104.24-.19,2.84-.02,6.29-2.18,8.33-4.38,4.06-4.39,3.07-10.08,2.74-15.66-1.72-.11-2.94-.26-4.17-.26-14.44-.06-28.89.26-43.31-.25-14.43-.51-26.21-10.06-29.16-24.24-1.54-7.39-1.26-15.28-.99-22.91.49-14,10.17-26.7,23.9-28.88,11.49-1.82,23.42-1.17,35.14-.9,2.29.05,5.26,2.95,6.59,5.29,3.64,6.37-1.07,13.97-8.75,14.29-7.68.33-15.38,0-23.06.17-9.21.21-13.79,4.92-13.93,14.08-.05,3.14-.07,6.28,0,9.42.21,8.77,5.08,13.64,13.84,13.75,7.22.08,14.44.02,21.66.02,7.33,0,14.65,0,22.34,0,0-10.55.17-20.55-.04-30.55-.26-12.25-4.95-22.8-13.01-31.94-5.29-6-10.7-11.92-15.7-18.15-2.29-2.85-4.34-6.18-5.44-9.63-7.05-22.04-13.73-44.2-20.69-66.27-7.91-25.09-26.77-39.52-53.13-39.66-53.83-.29-107.66-.29-161.49,0-25.99.14-45.39,15.09-53.16,39.83-6.79,21.63-13.32,43.35-20.3,64.92-1.35,4.17-3.81,8.16-6.5,11.66-4.49,5.83-9.58,11.21-14.43,16.76-7.08,8.1-12.32,17.3-13.01,28.1-.73,11.39-.16,22.86-.16,34.89ZM261.71,233.6h-105.23v23.18h105.23v-23.18ZM37.54,277.92c0,6.02-.06,11.65.02,17.27.09,6.48,3.6,10.51,9.99,10.64,11.45.24,22.91.21,34.36,0,5.09-.09,9.12-3.24,9.41-7.59.44-6.66.11-13.37.11-20.32h-53.89ZM326.46,277.89c0,6.41-.18,12.37.05,18.3.23,5.73,3.71,9.46,9.52,9.6,11.6.29,23.22.25,34.83.02,5.16-.1,9.26-3.59,9.51-8.11.36-6.52.09-13.07.09-19.82h-54.01Z"/><path d="M209.01,101.73c39.84,0,79.67-.02,119.51.02,9.07,0,14.52,8.16,9.84,15.12-1.61,2.4-5.09,3.7-7.93,5.07-1.29.62-3.09.21-4.65.21-77.79,0-155.58,0-233.37-.02-2.18,0-4.42-.07-6.52-.56-5.01-1.16-7.97-5.34-7.67-10.35.29-4.84,4.02-8.82,8.94-9.4,1.55-.18,3.13-.09,4.7-.09,39.05,0,78.1,0,117.16,0Z"/><path d="M209,178.98c-26.97,0-53.94.02-80.91-.02-6.86,0-11.19-3.88-11.28-9.85-.08-5.22,3.41-9.36,8.59-10.03,1.86-.24,3.75-.24,5.63-.24,52.06-.01,104.12-.01,156.18,0,1.57,0,3.14-.01,4.7.14,5.83.55,9.55,4.65,9.4,10.26-.15,5.5-4.21,9.63-9.99,9.68-13.8.12-27.6.06-41.4.06-13.64,0-27.28,0-40.93,0Z"/></svg>