<?xml version="1.0" encoding="utf-8"?>
<!-- Generator: Adobe Illustrator 25.0.0, SVG Export Plug-In . SVG Version: 6.00 Build 0)  -->
<svg version="1.1" id="exit" xmlns="http://www.w3.org/2000/svg" xmlns:xlink="http://www.w3.org/1999/xlink" x="0px" y="0px"
	 viewBox="0 0 595.3 841.9" style="enable-background:new 0 0 595.3 841.9;" xml:space="preserve">
<g>
	<path d="M143,392.2c0,36,0.1,72-0.1,108c0,4.8,1.5,5.7,5.9,5.7c53.7-0.1,107.3-0.1,161,0c4.5,0,5.6-1.2,5.5-5.6
		c-0.3-16.3-0.2-32.7,0-49c0.1-10.2,6.1-16.8,15.1-17.1c8.9-0.2,16.1,5.9,16.2,15.4c0.3,24.2,0.3,48.3,0,72.5
		c-0.1,9.3-6.5,15.1-15.8,15.1c-67.5,0.1-135,0.1-202.5,0c-10.4,0-16.4-6.6-16.4-17.2c0-85,0-170,0-255c0-11.1,6.4-17.5,17.8-17.5
		c38.7,0,77.3,0,116,0c27.7,0,55.3,0,83,0c12.1,0,18.1,5.9,18.1,18.1c0.1,22.7,0.1,45.3,0,68c-0.1,12.2-10.4,19.9-21.2,15.9
		c-6.5-2.4-9.8-7.4-10-14.1c-0.3-9.7-0.2-19.3-0.2-29c0-7.7-0.1-15.3,0-23c0.1-3-0.6-4.4-4.1-4.4c-54.7,0.1-109.3,0.1-164,0
		c-4.4,0-4.2,2.3-4.2,5.4C143.1,320.2,143,356.2,143,392.2z"/>
	<path d="M418.3,407.6c-3.1,0-5,0-6.9,0c-59.5,0.2-119,0.5-178.5,0.6c-4,0-8.4-0.7-12-2.5c-6.1-3-8.7-10-7.3-16.6
		c1.4-6.7,6.8-11.6,13.9-12.4c2-0.2,4-0.2,6-0.2c59.5,0,119-0.1,178.5-0.1c1.8,0,3.5,0,6.5,0c-7.4-7.6-13.9-14.3-20.5-21
		c-4.7-4.8-9.4-9.4-14-14.3c-6.4-6.7-6.4-15.6-0.3-22c6.2-6.4,15.7-6.9,22.3-0.3c20.5,20.5,41,41.1,61.2,61.8c6.8,7,6.6,16-0.5,23.2
		c-20.3,20.7-40.8,41.2-61.4,61.6c-6.2,6.2-15.4,5.6-21.4-0.6c-6-6.2-6.1-15.6,0.2-22c10.1-10.4,20.4-20.7,30.5-31
		C415.5,410.8,416.5,409.6,418.3,407.6z"/>
</g>
</svg>
