<?xml version="1.0" encoding="UTF-8"?>
<svg id="gauge2" xmlns="http://www.w3.org/2000/svg" viewBox="0 0 383.27 383.26">
<g id="XMLID_1_">
    <path d="M129.12,122.41c9.75-11.55,15.11-24.42,16.31-39.22-2.04,0-3.96.01-5.87,0-3.08-.03-5.36-2.15-5.41-5.01-.05-2.94,2.24-5.1,5.45-5.12,1.91-.01,3.83,0,5.83,0-1.22-14.82-6.59-27.7-16.39-39.34-1.34,1.5-2.5,2.95-3.81,4.25-2.38,2.37-5.52,2.46-7.6.32-2.08-2.14-1.95-5.07.41-7.47,1.27-1.28,2.62-2.48,4.14-3.91-11.4-9.7-24.26-15-39.14-16.33,0,1.6.03,3.03-.01,4.46-.03,1.05-.03,2.12-.26,3.13-.52,2.25-2.77,3.83-5.09,3.72-2.26-.11-4.37-1.77-4.64-4.02-.28-2.3-.24-4.64-.36-7.25-14.65,1.24-27.49,6.57-38.86,16.13,1.54,1.58,3.04,3.02,4.43,4.56,1.6,1.77,1.83,3.83.78,5.82-1.01,1.94-3,3.07-5.26,2.57-1.17-.26-2.34-1.02-3.26-1.84-1.34-1.18-2.46-2.61-3.79-4.06-9.72,11.53-15.1,24.4-16.33,39.26,1.97,0,3.88-.01,5.79,0,3.22.02,5.53,2.15,5.53,5.07,0,2.9-2.35,5.05-5.55,5.07-1.86.01-3.72,0-5.58,0-.44,11.17,7.71,30.91,16.24,39.1,1.26-1.36,2.48-2.77,3.8-4.08,2.3-2.28,5.43-2.4,7.49-.37,2.13,2.1,2.08,5.08-.23,7.47-2.47,2.56-4.99,5.09-7.55,7.56-2.59,2.49-5.43,2.46-7.86-.02C10.19,120.32,2.69,105.37.59,87.96-4.09,49.09,19.35,13.49,57.11,3.12c27.51-7.56,52.33-1.28,73.59,17.79,13.35,11.97,21.5,27.12,24.13,44.84,3.82,25.74-3.41,48.2-21.45,67.06-2.44,2.55-5.28,2.58-7.84.1-2.64-2.56-5.24-5.16-7.8-7.81-2.12-2.19-2.1-5.19-.08-7.21,2-1.98,5.01-1.98,7.24.02.74.66,1.44,1.37,2.11,2.1.68.72,1.31,1.49,2.1,2.4Z"/>
    <path d="M65.31,76.74c.17-3.76,2.42-7.6,6.89-9.88,4.41-2.25,8.85-1.96,12.88.94,1.3.94,2.24.92,3.58.35,6.75-2.87,13.52-5.68,20.31-8.47,2.38-.98,4.72-.37,6.14,1.46,1.39,1.8,1.49,4.43.02,6.15-.69.8-1.67,1.46-2.66,1.88-6.74,2.87-13.52,5.68-20.29,8.47-1.01.42-1.6.83-1.77,2.15-.87,6.55-6.85,11.46-13.05,10.95-7.07-.58-12.06-5.87-12.04-14.02Z"/>
  </g>
</svg>