<?xml version="1.0" encoding="UTF-8"?>
<svg id="io" xmlns="http://www.w3.org/2000/svg" viewBox="0 0 352.14 372.87">
  <path d="M162.97,372.87c-6.44-.95-13.03-1.35-19.3-2.95-12.02-3.06-24.11-6.14-35.73-10.42-17.48-6.44-33.36-15.99-47.27-28.49-6.89-6.2-13.32-12.93-19.85-19.53-10.16-10.27-16.86-22.84-23.58-35.47C4.17,251.45-.4,225.09.03,197.63c.34-21.31,4.59-41.91,13.29-61.32,6.17-13.77,13.55-27.04,23.25-38.69,6.17-7.41,12.78-14.58,20.01-20.93,15.53-13.63,32.82-24.63,52.21-32.06,4.22-1.62,8.15-.2,10.13,3.76,2.31,4.6,4.55,9.24,6.54,13.98,2.14,5.09.95,8.46-4.01,10.64-15.23,6.7-29.45,15.02-42.18,25.79-2.58,2.19-4.95,4.65-7.32,7.07-15.17,15.56-25.91,33.65-33.09,54.28-9.09,26.11-9.29,52.31-2.04,78.43,4.28,15.41,10.72,30.36,20.69,43.17,6.29,8.08,12.98,16.07,20.62,22.83,22.05,19.53,47.79,31.58,77.1,35.6,24.93,3.42,49.17.95,72.78-7.96,15.19-5.73,28.9-13.75,41.56-23.96,8.68-7.01,15.66-15.36,22.7-23.84,9.9-11.94,15.71-25.86,20.93-40.23,8.93-24.58,9.35-49.61,2.99-74.55-4.18-16.35-10.59-32.21-20.95-45.8-6.56-8.62-13.8-16.91-21.74-24.25-12.5-11.56-27.24-19.93-42.92-26.55-4.11-1.74-5.99-5.23-4.36-9.3,2.17-5.44,4.67-10.78,7.36-15.98,1.79-3.46,5.64-4.66,9.39-3.22,4.06,1.55,8.12,3.15,11.99,5.11,12.96,6.58,25.61,13.74,36.27,23.79,7.45,7.03,14.52,14.46,21.73,21.74,9.32,9.41,15.24,21.06,21.45,32.55,14.67,27.12,19.11,56.33,17.36,86.66-1.15,19.85-5.52,39.2-14.39,57.02-5.94,11.93-12.95,23.54-20.95,34.18-11.54,15.32-25.84,28.14-42.06,38.48-25.05,15.99-52.36,25.64-82.08,28.13-1.07.09-2.11.44-3.16.67h-26.17Z"/>
  <path d="M192.4,70.12c0,19.66,0,39.31,0,58.97,0,8.46-2.33,10.76-10.8,10.77-4.48,0-8.96.05-13.44-.02-5.23-.08-7.99-2.75-8.39-7.99-.07-.97-.05-1.94-.05-2.91,0-39.31,0-78.62,0-117.93,0-1.45.03-2.92.24-4.35.58-3.86,3.19-6.4,7.07-6.51,5.81-.16,11.63-.21,17.44-.02,5.32.18,7.86,3.21,7.9,9.22.07,11.4.02,22.81.02,34.21,0,8.86,0,17.71,0,26.57Z"/>
</svg>