<?xml version="1.0" encoding="UTF-8"?>
<svg id="volvo" data-name="volvo" xmlns="http://www.w3.org/2000/svg" viewBox="0 0 245.9 245.66">
    <g>
      <path d="m192.86,21.73c-4.26,4.26-8.39,8.38-12.54,12.54-1.26-.76-2.56-1.55-3.87-2.34-2.7-1.63-5.47-3.13-8.35-4.42-2.2-.99-4.39-2-6.63-2.88-2.11-.83-4.26-1.54-6.42-2.26-1.72-.57-3.46-1.1-5.2-1.59-1.09-.31-2.21-.53-3.33-.77-1.39-.3-2.78-.61-4.17-.87-1.59-.3-3.19-.59-4.8-.81-1.78-.25-3.57-.44-5.35-.61-1.25-.12-2.5-.19-3.75-.24-2.39-.08-4.79-.22-7.18-.16-2.84.08-5.68.34-8.52.55-1.16.09-2.33.2-3.49.37-2.05.3-4.11.61-6.15,1-2.32.44-4.63.94-6.92,1.49-1.43.34-2.84.81-4.24,1.26-1.75.56-3.52,1.1-5.24,1.75-2.44.93-4.86,1.9-7.25,2.94-3.31,1.44-6.49,3.13-9.6,4.94-3.34,1.95-6.59,4.04-9.67,6.39-2.01,1.54-4.04,3.07-5.96,4.72-3.44,2.96-6.74,6.07-9.71,9.5-1.53,1.77-3.07,3.53-4.52,5.35-1.24,1.56-2.42,3.17-3.55,4.81-1.38,2.02-2.73,4.06-4.01,6.15-2.18,3.56-4.11,7.26-5.81,11.08-1.25,2.83-2.46,5.67-3.41,8.62-.7,2.19-1.39,4.38-2.04,6.58-.46,1.58-.89,3.17-1.26,4.78-.32,1.39-.54,2.79-.8,4.19-.12.67-.26,1.34-.35,2.02-.31,2.2-.68,4.4-.89,6.61-.23,2.32-.37,4.66-.43,6.99-.07,2.82-.07,5.65.03,8.47.08,2.13.34,4.26.55,6.38.11,1.19.23,2.38.41,3.57.28,1.8.61,3.59.93,5.38.15.84.3,1.68.48,2.51.24,1.11.5,2.22.8,3.31.38,1.43.79,2.85,1.22,4.26.47,1.55.94,3.09,1.48,4.61.61,1.71,1.29,3.4,1.96,5.08,1.87,4.65,4.13,9.1,6.67,13.41,1.82,3.09,3.79,6.09,5.93,8.96,2.33,3.13,4.76,6.18,7.48,9,1.09,1.13,2.12,2.32,3.25,3.41,2.48,2.4,5.03,4.72,7.7,6.9,4.09,3.33,8.39,6.35,12.93,9.02,2.54,1.5,5.16,2.87,7.81,4.16,2.37,1.15,4.79,2.19,7.25,3.14,2.77,1.07,5.59,2.06,8.42,2.96,1.92.61,3.89,1.03,5.85,1.51,1.32.33,2.65.65,3.99.91,1.53.3,3.08.55,4.62.78,1.49.23,2.99.47,4.49.6,2.18.2,4.37.37,6.57.44,2.45.09,4.91.12,7.36.06,2.16-.05,4.33-.19,6.48-.38,2.35-.21,4.7-.49,7.05-.78.96-.12,1.9-.35,2.85-.53.67-.13,1.35-.23,2.01-.38,1.99-.45,4-.87,5.97-1.4,2.46-.67,4.93-1.33,7.33-2.18,4.98-1.75,9.82-3.82,14.5-6.28,3.88-2.04,7.62-4.29,11.21-6.79,2.12-1.48,4.15-3.09,6.2-4.68,3.55-2.75,6.79-5.84,9.88-9.08,1.96-2.06,3.81-4.24,5.66-6.4,2.26-2.64,4.27-5.48,6.19-8.37,2.09-3.15,4.06-6.39,5.73-9.78,1.39-2.83,2.71-5.69,3.95-8.58.86-2,1.55-4.08,2.27-6.14.57-1.63,1.1-3.28,1.6-4.93.31-1.03.53-2.09.78-3.14.29-1.19.58-2.37.83-3.57.31-1.47.6-2.95.86-4.43.24-1.37.47-2.75.64-4.14.21-1.75.35-3.52.5-5.28.43-4.78.34-9.57.17-14.36-.07-1.93-.32-3.86-.54-5.79-.23-1.95-.49-3.9-.78-5.84-.14-.93-.37-1.84-.56-2.76-.13-.64-.24-1.29-.38-1.92-.31-1.36-.62-2.72-.97-4.06-.45-1.7-.92-3.4-1.45-5.08-.58-1.84-1.16-3.68-1.87-5.47-1.17-2.92-2.37-5.84-3.71-8.69-1.53-3.26-3.3-6.41-5.2-9.48-.31-.51-.63-1.01-.95-1.52q-.38-.6.14-1.11c.77-.76,1.54-1.53,2.3-2.29,3.02-3.03,6.05-6.05,9.07-9.08.17-.17.37-.32.66-.57,5.76,8.28,10.37,17.05,13.88,26.39,7.59,20.23,9.76,41.09,6.44,62.41-3.44,22.14-12.25,42.01-26.66,59.19-22.12,26.37-50.46,41.09-84.74,44.32-35.56,2.4-66.65-8.22-93.24-31.97C-11.65,165.79-12.79,87.04,33.94,38.06,57.83,13.03,88.95,1.09,118.07.08c27.27-.94,52.15,6.31,74.79,21.65Z"/>
      <path d="m205.91,57.76c-.16-.22-.27-.42-.42-.59-1.73-2.04-3.39-4.15-5.22-6.1-1.99-2.12-4.11-4.11-6.22-6.11-1.2-1.14-2.47-2.19-3.72-3.27-.52-.45-1.08-.84-1.6-1.28-.59-.5-.58-.53-.06-1.05,5.47-5.46,10.93-10.92,16.4-16.39.08-.08.16-.16.24-.24.29-.27.21-.48-.07-.7-2.06-1.57-4.07-3.22-6.18-4.71-2.62-1.85-5.3-3.62-8.01-5.36-1.79-1.15-3.65-2.19-5.51-3.22-.66-.36-.97-.76-.88-1.54.08-.73.02-1.47.02-2.19.67-.21,55.51-.23,56.35-.02.01.2.04.42.04.64,0,18.17,0,36.35,0,54.52,0,.14,0,.29,0,.43,0,.3-.14.49-.46.49-.88,0-1.77.04-2.65-.03-.24-.02-.52-.32-.67-.56-1.25-2.07-2.42-4.18-3.71-6.22-1.48-2.33-3.02-4.62-4.63-6.86-1.62-2.27-3.36-4.45-5.05-6.67-.12-.16-.26-.3-.46-.52-5.83,5.83-11.63,11.63-17.54,17.54Z"/>
      <path d="m89.94,110.19c1.92-.02,3.82.15,5.68.6,2.59.63,4.99,1.7,6.89,3.67,1.8,1.87,2.72,4.1,2.77,6.68.05,2.34-.5,4.5-1.9,6.42-1.08,1.49-2.49,2.57-4.12,3.37-2.35,1.16-4.86,1.74-7.48,1.8-1.51.03-3.02.04-4.52-.06-2.9-.2-5.65-.97-8.07-2.64-1.84-1.27-3.22-2.91-3.97-5.08-.53-1.54-.75-3.11-.56-4.69.28-2.35,1.27-4.41,3.01-6.06,1.64-1.55,3.59-2.54,5.76-3.17,2.13-.62,4.3-.79,6.49-.84Zm5.33,11.16c-.02-.43-.06-.85-.07-1.28-.06-1.39-.44-2.71-1.14-3.89-.91-1.56-2.2-2.6-4.14-2.55-1.82.05-3.01,1.1-3.92,2.52-.99,1.56-1.26,3.34-1.36,5.14-.07,1.35.23,2.66.58,3.95.32,1.15.93,2.12,1.77,2.97,1.4,1.4,3.91,1.38,5.22.5.87-.58,1.46-1.35,1.91-2.25.8-1.6,1.13-3.33,1.13-5.12Z"/>
      <path d="m215.4,121.38c.09,2.81-.85,5.14-2.64,7.11-1.35,1.48-3.06,2.44-4.92,3.13-2.55.95-5.21,1.19-7.89,1.18-1.8,0-3.6-.1-5.35-.53-2.34-.57-4.56-1.47-6.39-3.08-1.46-1.29-2.46-2.87-3.01-4.77-.46-1.57-.48-3.16-.27-4.74.25-1.84,1.06-3.48,2.3-4.87,1.43-1.61,3.22-2.67,5.22-3.42,2.94-1.1,6-1.29,9.08-1.18,1.79.07,3.58.29,5.3.85,3.33,1.08,6.15,2.81,7.71,6.11.64,1.36.97,2.79.87,4.19Zm-20.58.74c-.02,1.43.35,3.39,1.48,5.14.75,1.15,1.78,1.9,3.18,2.06,2.13.24,3.6-.76,4.61-2.54,1.1-1.94,1.42-4.07,1.3-6.26-.1-1.74-.53-3.41-1.53-4.9-1.85-2.75-5.65-2.52-7.35-.02-1.21,1.79-1.68,3.76-1.69,6.51Z"/>
      <path d="m30.41,110.75h21.61c0,.99.03,1.92-.01,2.85-.02.39-.38.35-.67.35-1.2,0-2.4,0-3.59,0-.27,0-.53.02-.93.04,2.42,4.41,4.76,8.67,7.1,12.94.13-.03.25-.02.28-.07,2.24-4.11,4.48-8.22,6.7-12.33.07-.14.07-.32.12-.57-.6,0-1.13,0-1.66,0-.66,0-1.31.01-1.97,0-.27,0-.55-.05-.55-.39-.02-.91,0-1.81,0-2.68.7-.22,14.11-.25,15.03-.04,0,.9.02,1.83-.01,2.76-.02.39-.38.36-.66.36-1.14,0-2.29.04-3.42-.03-.65-.04-1.01.22-1.29.74-1.04,1.93-2.08,3.85-3.12,5.78-1.97,3.65-3.94,7.3-5.9,10.95-.33.61-.73.86-1.48.85-3.25-.06-6.5-.05-9.76,0-.71.01-1.04-.3-1.33-.83-1.26-2.29-2.52-4.58-3.78-6.87-1.82-3.31-3.65-6.61-5.44-9.93-.27-.49-.56-.71-1.13-.68-1.14.04-2.28.02-3.42.02-.68,0-.72-.05-.73-.73,0-.79,0-1.58,0-2.46Z"/>
      <path d="m164.26,127.04c2.35-4.31,4.62-8.49,6.89-12.68.05-.09.02-.21.03-.39-.25-.01-.47-.03-.68-.03-.91,0-1.83.01-2.74,0-.6,0-.66-.06-.67-.62-.01-.82,0-1.65,0-2.55.3-.03.54-.08.79-.08,4.42,0,8.85,0,13.27,0,.84,0,.86.02.86.86,0,.57,0,1.14,0,1.71,0,.62-.03.68-.67.68-1.11,0-2.23.03-3.34-.02-.66-.03-1.03.17-1.35.77-1.53,2.89-3.11,5.75-4.66,8.62-1.49,2.75-2.99,5.49-4.45,8.26-.27.5-.58.67-1.14.67-3.28-.03-6.56-.05-9.84,0-.75.01-1.15-.23-1.48-.85-.73-1.38-1.5-2.74-2.26-4.11-2.33-4.23-4.66-8.46-6.97-12.69-.27-.49-.59-.68-1.15-.66-1.14.04-2.28.02-3.42.02-.66,0-.71-.07-.7-.75,0-.6,0-1.2,0-1.8,0-.63.06-.7.67-.71,1.08-.01,2.17,0,3.25,0,5.56,0,11.13,0,16.69,0,.17,0,.34,0,.51,0,.35.01.51.19.5.55-.02.66-.03,1.31-.02,1.97,0,.69-.03.74-.69.74-1.23,0-2.45,0-3.68-.01-.19,0-.39.02-.64.03.03.2.02.38.09.51,2.16,3.97,4.33,7.93,6.5,11.89.11.19.26.36.5.68Z"/>
      <path d="m111.38,110.73c.3-.01.58-.04.86-.04,5.99,0,11.99,0,17.98,0,.17,0,.34,0,.51,0,.39,0,.56.19.55.58-.02.66,0,1.31,0,1.97,0,.63-.05.7-.67.7-1.11.01-2.23,0-3.34,0-.25,0-.5,0-.84,0-.18,1.71-.06,3.35-.08,4.99-.02,1.63,0,3.25,0,4.88,0,1.65,0,3.29,0,4.97.3.03.49.07.68.07,1.2,0,2.4.03,3.6,0,1.67-.05,3.27-.37,4.68-1.36,1.22-.85,1.99-2.01,2.35-3.44.16-.6.26-1.22.42-1.93.55,0,1.13,0,1.72,0,1.59,0,1.53-.33,1.52,1.56-.02,2.6,0,5.19,0,7.79,0,.64-.12.77-.72.76-4.94,0-9.87-.01-14.81-.01-4.57,0-9.13,0-13.7.01-.71,0-.79-.08-.79-.77,0-.82,0-1.64,0-2.54.34-.03.62-.06.89-.06,1.17,0,2.34,0,3.51,0,.62,0,.69-.07.69-.69,0-4.51,0-9.02,0-13.53,0-.63-.09-.7-.77-.71-1.14,0-2.28,0-3.42,0-.81,0-.82-.02-.81-.8,0-.76,0-1.53,0-2.42Z"/>
    </g>
</svg>