<?xml version="1.0" encoding="UTF-8"?>
<svg id="moose" data-name="moose" xmlns="http://www.w3.org/2000/svg" viewBox="0 0 114.48 77.53">
  <path class="cls-1" d="M82.59,30.7c-.49,0-.98-.05-1.46.01-.9.11-1.46-.3-1.89-1.06-2.79-4.82-3.89-9.94-2.36-15.39.68-2.44,1.83-4.71,3.42-6.77,1.31-1.7,2.87-3.09,4.58-4.28,2.09-1.46,4.47-2.35,6.98-2.84,4.06-.8,7.89-.15,11.64,1.59,3.3,1.54,5.83,3.95,7.82,6.87,1.58,2.34,2.56,5.01,2.98,7.9.52,3.62-.03,7-1.51,10.31-1.02,2.27-2.41,4.3-4.14,6-1.66,1.62-3.61,2.93-5.82,3.85-2.8,1.17-5.69,1.62-8.68,1.7-6.53.17-13.05.36-19.58.54-.15,0-.3-.02-.44.02-.16.05-.31.16-.46.25.08.12.13.27.23.35.74.56,1.48,1.12,2.23,1.66,2.12,1.52,3.68,3.52,4.62,5.93,1.14,2.91,1.64,5.99,1.22,9.1-.42,3.05-1.23,5.99-2.83,8.72-1.73,2.94-3.99,5.35-6.67,7.32-3,2.22-6.37,3.75-10.06,4.45-2.64.51-5.27.67-7.97.41-2.71-.26-5.26-.98-7.75-1.94-2.75-1.07-5.13-2.77-7.35-4.71-2.14-1.86-3.76-4.11-4.99-6.63-.7-1.44-1.21-2.99-1.67-4.53-.59-1.99-.73-4.04-.62-6.12.19-3.73,1.25-7.08,3.72-9.97,1.17-1.37,2.62-2.33,3.98-3.43.19-.15.41-.27.6-.42.06-.05.14-.21.12-.23-.08-.1-.2-.22-.31-.22-1.31-.07-2.63-.13-3.94-.17-1.02-.03-2.05-.02-3.07-.04-4.38-.1-8.77-.23-13.15-.32-3.87-.08-7.53-.99-10.85-2.99-1.7-1.03-3.19-2.36-4.5-3.92-1.8-2.14-3.1-4.52-3.89-7.17C-.6,19.93-.08,15.5,1.88,11.19c1.51-3.31,3.89-5.87,6.77-7.94,1.78-1.28,3.85-2.1,5.98-2.66C19.01-.56,23.21.01,27.3,1.89c2.13.97,3.96,2.36,5.56,3.99,1.96,2,3.33,4.43,4.34,7.08.78,2.05,1.14,4.19,1.14,6.33,0,2.04-.31,4.12-1.1,6.04-.58,1.4-1.27,2.75-1.9,4.13-.35.76-.9,1.06-1.75,1.02-1.22-.06-2.44-.03-3.66,0-.43,0-.88.06-1.3.17-.47.12-.73.45-.77.96-.04.5.15.9.58,1.1.34.16.74.25,1.12.27,1.02.05,2.05.04,3.07.08,3.07.1,6.13.18,9.2.33,1.73.09,2.51-.63,2.63-2.19.07-.95.42-1.92.86-2.78.66-1.31,1.44-2.57,2.27-3.77,1.98-2.88,4.82-4.18,8.23-4.26,1.46-.03,2.94-.05,4.37.19,2.83.47,5.03,2.04,6.63,4.43,1.37,2.04,2.45,4.23,3.13,6.61.38,1.33.9,1.77,2.28,1.77,1.32,0,2.63-.05,3.95-.1,2.48-.09,4.96-.18,7.44-.3.53-.03,1.08-.09,1.56-.29.46-.19.8-.63.67-1.18-.12-.51-.5-.84-1.06-.86-.73-.02-1.46,0-2.19,0,0,.02,0,.04,0,.06ZM73.03,53.56c-.09-1.4-.34-3.31-1.61-4.96-.79-1.02-1.82-1.56-3.01-1.54-1.59.02-3.08.55-4.22,1.73-1.25,1.3-2.44,2.65-3.08,4.42-.59,1.61-1.12,3.22-1.39,4.93-.42,2.66.09,5.06,1.64,7.23,1.01,1.43,2.73,1.95,4.41,1.37,1.63-.56,2.95-1.62,3.95-2.93,2.17-2.82,3.31-6.07,3.32-10.25ZM54.64,59.68c-.52-3.49-1.16-7.01-3.76-9.86-1.05-1.15-2.13-2.12-3.64-2.56-2.3-.67-4.42.38-5.27,2.51-.48,1.21-.8,2.55-.83,3.85-.08,3.19.65,6.17,2.44,8.91,1,1.52,2.19,2.74,3.68,3.68,2.43,1.53,4.78.49,5.85-1.25.99-1.61,1.28-3.36,1.53-5.28ZM95.4,32.51c7.36.09,13.32-5.99,13.15-13.21-.18-7.81-5.54-13.14-13.15-13.29-7.64-.15-13.22,5.66-13.33,13.51-.1,7.05,6.58,13.14,13.33,12.99ZM19.01,32.51c7.03.14,13.61-5.75,13.4-13.34-.22-7.59-5.54-13.08-12.8-13.16-8.02-.08-13.53,5.5-13.64,13.34-.1,7.25,5.92,13.23,13.05,13.15ZM47.22,34.68c.26.39.45.85.78,1.16.69.64,1.88.45,2.57-.38.74-.89.86-.84,1.76-.1.11.09.22.2.33.28.78.59,1.66.5,2.34-.22.63-.67.63-1.47,0-2.24-.18-.23-.39-.44-.62-.62-.51-.39-.47-.8-.09-1.24.16-.18.32-.37.47-.56.62-.78.62-1.72.01-2.36-.56-.58-1.53-.65-2.25-.09-.42.32-.8,1.02-1.17,1-.47-.02-.91-.62-1.38-.93-.78-.51-1.77-.35-2.37.36-.54.65-.54,1.6.02,2.29.15.19.35.34.52.52q.62.65,0,1.42c-.15.19-.36.35-.47.56-.18.34-.29.7-.47,1.17ZM66.3,29.24c.02-.77-.31-1.25-.95-1.56-.77-.37-1.42-.07-2.05.34-.36.24-.68.79-1,.77-.38-.02-.74-.49-1.12-.76-.65-.45-1.97-.39-2.46.11-.53.53-.55,1.82-.04,2.44.34.4.95.79.96,1.19.01.41-.58.82-.89,1.25-.56.81-.5,1.64.13,2.26.63.62,1.68.64,2.39.04.11-.09.19-.22.29-.32q.78-.82,1.72-.14c.16.11.31.24.47.35.83.55,1.64.44,2.33-.3.62-.66.63-1.23.01-2.11-.17-.24-.39-.43-.59-.64-.7-.71-.73-.73.03-1.47.44-.43.77-.88.75-1.46Z"/>
  <path class="cls-1" d="M75.7,77.53c-1.61.01-2.89-.37-4.07-1.1-.46-.28-.47-.44-.04-.72.57-.37,1.16-.71,1.73-1.08.41-.27.87-.5,1.17-.86.87-1.03,1.78-1.33,3.01-.58.55.34,1.15.09,1.4-.34.27-.46.05-.85-.23-1.2-.15-.19-.33-.36-.5-.54-.29-.31-.25-.62.03-.9,1.33-1.31,2.31-2.88,3.15-4.53.07-.13.15-.26.23-.37.33-.47.56-.49.86.02,1.1,1.88,1.52,3.9.94,6.04-.98,3.63-4.19,6.26-7.69,6.17Z"/>
  <path class="cls-1" d="M95.21,30.39c-3.62-.21-6.57-1.69-8.82-4.65-1.5-1.96-2.1-4.19-2.19-6.57-.06-1.37.25-2.75.87-3.98.93-1.83,1.96-3.56,3.68-4.84,1.38-1.02,2.86-1.65,4.49-1.99,3.73-.77,6.99.38,9.68,2.88,1.87,1.73,3.15,3.98,3.36,6.67.16,2.03.12,4.04-.84,5.89-.88,1.7-1.9,3.29-3.59,4.32-.95.58-1.8,1.32-2.9,1.66-1.22.37-2.42.76-3.74.61ZM95.17,27.21c4.51.18,8.31-3.65,8.25-7.91-.07-4.57-4.05-8.11-7.92-8.09-4.89.02-8.09,3.54-8.11,8.33-.03,4.2,3.48,7.72,7.78,7.67Z"/>
  <path class="cls-1" d="M19.14,30.38c-5.56.12-11.36-5.03-11.06-11.43.29-6.01,5.11-10.74,10.96-10.82,6.78-.09,11.18,5.74,11.22,11.16.04,6.06-5.41,11.27-11.12,11.1ZM11.18,19.27c-.48,3.83,3.61,7.95,7.97,8,4.2.04,8.09-3.61,7.99-7.85-.11-4.49-3.04-8.01-7.66-8.2-4.8-.2-8.57,4.32-8.29,8.06Z"/>
  <path class="cls-1" d="M92.1,20.2c-.04.17-.03.29-.08.35-.53.7-1.05,1.4-1.61,2.07-.33.4-.62.34-.9-.13-.5-.87-.41-1.27.49-1.77.51-.28,1.06-.47,1.61-.66.14-.05.33.09.5.14Z"/>
  <path class="cls-1" d="M94.48,16.16c-.18-.03-.3-.02-.36-.07-.7-.59-1.4-1.18-2.09-1.78-.34-.29-.31-.56.04-.84.74-.59,1.16-.57,1.65.23.38.61.63,1.3.89,1.97.05.13-.08.33-.12.48Z"/>
  <path class="cls-1" d="M96.69,14.36c0,.29.02.59,0,.88-.03.39-.04.85-.56.85-.11,0-.23-.45-.33-.69-.27-.63-.54-1.25-.81-1.88-.28-.66-.21-.8.44-.83,1.17-.05,1.29.11,1.26,1.67Z"/>
  <path class="cls-1" d="M92.47,25.04c-.99.05-1.58-.69-1.19-1.41.37-.68.87-1.28,1.34-1.9.05-.07.26-.04.38,0,.05.01.1.16.09.25-.09.87-.17,1.74-.3,2.61-.03.19-.24.35-.32.46Z"/>
  <path class="cls-1" d="M100.32,20.7c-.55-.13-1.1-.26-1.65-.42-.04-.01-.05-.4,0-.43.88-.38,1.77-.73,2.68-1.06.12-.04.39.08.46.21.43.77-.03,1.57-.9,1.61-.19,0-.39,0-.58,0,0,.03-.02.06-.02.09Z"/>
  <path class="cls-1" d="M96.29,22.32c.13.07.23.1.3.16.69.61,1.37,1.22,2.06,1.83.27.24.35.46,0,.7-.78.55-1.31.48-1.83-.32-.39-.6-.84-1.22-.7-2.02.02-.12.1-.22.16-.34Z"/>
  <path class="cls-1" d="M98.13,13.28c.52.34,1.02.53,1.28.89.15.2,0,.75-.17,1.04-.36.57-.83,1.07-1.26,1.59-.05.06-.2.09-.26.06-.06-.03-.11-.17-.1-.25.08-.92.17-1.84.27-2.76.02-.16.13-.31.24-.56Z"/>
  <path class="cls-1" d="M101.07,22.25c-.12,1.07-.83,1.47-1.61,1.01-.57-.34-1.1-.75-1.64-1.15-.08-.06-.13-.29-.09-.38.04-.08.24-.13.37-.12.8.08,1.61.16,2.4.29.22.04.42.25.57.35Z"/>
  <path class="cls-1" d="M101.4,16.89c-.05.12-.08.31-.18.37-.75.44-1.51.86-2.28,1.25-.09.05-.36-.06-.37-.12-.03-.17,0-.39.09-.51.45-.57.94-1.12,1.42-1.67.56-.64.92-.57,1.22.24.05.14.07.28.11.45Z"/>
  <path class="cls-1" d="M93.95,24.21c.13-.56.25-1.11.39-1.66.02-.08.16-.2.2-.19.12.05.3.16.3.25.03.96.41,1.78.88,2.59.21.37.01.65-.42.71-.85.13-1.18-.12-1.24-.95-.02-.24,0-.49,0-.73-.03,0-.07-.01-.1-.02Z"/>
  <path class="cls-1" d="M93.07,16.89c-.12.06-.24.17-.35.16-.95-.15-1.9-.31-2.85-.51-.14-.03-.34-.24-.34-.36,0-.83.83-1.36,1.51-.95.66.4,1.27.9,1.89,1.37.06.05.08.16.13.29Z"/>
  <path class="cls-1" d="M88.77,18.91c.01-.71.15-.92.8-.94.72-.02,1.44.03,2.15.09.14.01.35.23.36.37,0,.12-.2.31-.35.37-.67.25-1.36.44-2.03.69-.77.29-.95.2-.93-.58Z"/>
  <path class="cls-1" d="M95.34,20.23c-.42-.02-.95-.58-.93-.98.02-.5.47-.92.96-.89.45.02.94.51.95.95.02.39-.57.95-.98.92Z"/>
  <path class="cls-1" d="M20.53,24.46c0,.24.03.49,0,.73-.11.69-1.18,1.04-1.71.55-.1-.09-.14-.39-.07-.5.47-.76.76-1.57.8-2.47,0-.15.22-.28.34-.42.13.13.33.25.38.4.15.55.25,1.12.37,1.69-.04,0-.07.01-.11.02Z"/>
  <path class="cls-1" d="M22.83,13.79c-.06.15-.07.26-.14.31-.77.67-1.54,1.34-2.33,1.99-.09.07-.31.07-.4.01-.09-.06-.18-.29-.14-.37.41-.83.82-1.66,1.3-2.44.09-.15.54-.21.76-.13.35.13.64.41.94.62Z"/>
  <path class="cls-1" d="M18.88,12.7c.74,0,.82.15.57.84-.26.72-.46,1.47-.71,2.2-.05.16-.22.36-.36.37-.12.01-.37-.18-.39-.31-.12-.67-.23-1.34-.24-2.02-.01-.9.21-1.08,1.13-1.08Z"/>
  <path class="cls-1" d="M14.01,20.61c-.24,0-.51.07-.71-.02-.28-.12-.64-.32-.71-.56-.09-.33.05-.73.14-1.08.02-.08.25-.18.35-.14.95.32,1.89.67,2.83,1.02.07.03.18.16.17.2-.05.12-.13.28-.23.31-.6.14-1.21.24-1.81.36,0-.03-.01-.05-.02-.08Z"/>
  <path class="cls-1" d="M22.85,20.02c.93.14,1.62.58,2.2,1.16.38.37.14,1.37-.39,1.64-.12.06-.45-.08-.57-.22-.53-.62-1.03-1.28-1.53-1.93-.08-.1-.16-.32-.11-.38.1-.13.29-.2.4-.26Z"/>
  <path class="cls-1" d="M16.17,18.29c-.15.08-.31.25-.45.23-1-.12-1.8-.68-2.52-1.33-.31-.28-.05-.96.47-1.36.36-.28.51.06.69.26.54.61,1.08,1.24,1.61,1.86.06.07.1.16.2.34Z"/>
  <path class="cls-1" d="M16.28,13.36c.14.25.28.39.3.55.07.63.1,1.26.14,1.9.02.32.13.89.06.92-.53.18-.74-.31-.99-.64-.24-.31-.41-.66-.6-1-.16-.28-.51-.59-.16-.9.34-.31.78-.52,1.25-.82Z"/>
  <path class="cls-1" d="M18.59,23.03c-.43.69-.84,1.45-1.36,2.14-.27.35-1.32.07-1.49-.38-.05-.14.11-.44.26-.58.59-.57,1.2-1.11,1.82-1.65.11-.1.37-.21.43-.16.13.11.18.32.34.63Z"/>
  <path class="cls-1" d="M22.08,25.03c-.06-.08-.24-.21-.26-.36-.09-.91-.02-1.85-.47-2.71-.03-.05.03-.22.09-.25.12-.05.35-.1.39-.05.55.79,1.12,1.57,1.58,2.41.19.35-.68,1-1.33.95Z"/>
  <path class="cls-1" d="M16.62,21.72c-.12-.08.01-.03.08.07.04.05,0,.2-.05.27-.59.76-1.38,1.21-2.28,1.45-.16.05-.5-.24-.63-.45-.17-.26-.23-.6-.27-.92,0-.06.3-.21.47-.23.81-.08,1.62-.12,2.68-.19Z"/>
  <path class="cls-1" d="M24.15,17.96c.29,0,.58-.03.87,0,.7.09,1.08.94.66,1.53-.09.12-.36.23-.49.18-.86-.29-1.71-.61-2.55-.94-.1-.04-.2-.23-.18-.34.02-.11.16-.27.27-.29.47-.09.95-.14,1.42-.21,0,.02,0,.04,0,.06Z"/>
  <path class="cls-1" d="M21.73,16.98s-.12-.05-.15-.12c-.03-.07-.02-.23.03-.27.7-.5,1.38-1.06,2.13-1.47.5-.27,1.26.51,1.15,1.11-.02.11-.16.26-.27.28-.94.16-1.89.3-2.89.46Z"/>
  <path class="cls-1" d="M19.21,18.34c.47.02.81.37.82.85,0,.47-.44,1-.87,1.02-.44.03-.9-.48-.88-.97.02-.55.41-.93.93-.91Z"/>
</svg>