<svg id="Ebene_1" data-name="Ebene 1" xmlns="http://www.w3.org/2000/svg" viewBox="0 0 768.58 217.31">
  <path id="mask" d="M761.81,13.21H245a187.38,187.38,0,0,0-148,72.42L1.23,209a3.29,3.29,0,0,0,4.52,4.7l106.93-76.91A226.84,226.84,0,0,1,245.1,94.08H667.81A48.85,48.85,0,0,0,702.1,80l62-61.17A3.29,3.29,0,0,0,761.81,13.21Z" transform="translate(1.49 1.5)" />
  <path id="indicator" d="M0,193.75S68.38,104.44,90.84,74.42C131.33,20.28,190.62,0,248.81,0H765.59" transform="translate(1.49 1.5)" />
</svg>