<?xml version="1.0" encoding="UTF-8"?>
<svg id="settings2" xmlns="http://www.w3.org/2000/svg" viewBox="0 0 383.27 383.26">
<g id="XMLID_1_">
  <path d="M0,238.79c2.51-7,6.5-12.66,14.17-14.5,2.87-.69,5.91-.76,8.89-.82,6.77-.13,7.46-.52,10.05-6.66.43-1.03.85-2.07,1.33-3.08,1.4-3,.63-5.54-1.58-7.81-1.91-1.97-3.91-3.87-5.63-5.98-6.06-7.42-6.18-17.54.27-24.62,6.37-7,13.08-13.73,20.06-20.12,7.17-6.55,17.5-6.32,24.91-.02,1.8,1.53,3.38,3.31,5.15,4.88,1.01.89,2.09,1.9,3.32,2.32,5.82,2,14.82-4.45,14.9-10.53.04-2.86-.21-5.8.31-8.58,1.59-8.52,8.31-14.83,17.03-15.22,10.07-.44,20.18-.41,30.25.08,8.01.39,15.13,7.87,15.98,15.86.33,3.09.37,6.22.43,9.33.06,3.22,1.45,5.45,4.45,6.67,1.73.7,3.4,1.54,5.15,2.18,3.07,1.14,5.82.73,8.2-1.75,1.9-1.97,3.84-3.94,5.98-5.63,7.47-5.91,17.3-5.95,24.31.45,6.99,6.38,13.7,13.1,20.1,20.08,6.56,7.16,6.38,17.46.12,24.91-1.52,1.81-3.2,3.5-4.93,5.11-2.84,2.65-3.33,5.67-1.76,9.14.62,1.36,1.15,2.75,1.67,4.15,1.25,3.33,3.65,4.78,7.18,4.84,3.6.07,7.3-.03,10.77.75,7.95,1.77,13.8,8.44,14.15,16.73.42,9.94.42,19.94-.06,29.88-.43,8.85-8.52,16.14-17.36,16.58-1.62.08-3.24.04-4.86.05-6.99,0-7.94.63-10.65,6.99-2.92,6.85-2.76,7.65,2.64,13.05,10.62,10.64,10.58,21.07-.12,31.77-4.94,4.94-9.84,9.91-14.83,14.8-8.85,8.69-19.88,8.72-28.88.14-.27-.26-.53-.53-.8-.79-6.49-6.41-10.01-6.88-17.43-1.41-1.66,1.23-2.5,4.09-2.93,6.36-.66,3.52-.2,7.26-.99,10.73-1.75,7.68-7.48,11.66-14.48,14.17h-33.68c-7.18-2.76-12.93-7.05-14.49-15.06-.63-3.26.01-6.76-.6-10.02-.42-2.24-1.46-5.05-3.18-6.23-8.09-5.57-10.75-5.13-17.7,1.72-.27.26-.52.53-.8.79-8.45,7.99-19.33,8.24-27.8.31-6.1-5.71-12.01-11.63-17.73-17.71-7.96-8.46-7.75-19.39.23-27.8,1.46-1.54,3.22-2.85,4.4-4.57.99-1.45,2.01-3.41,1.86-5.04-.78-8.53-5.04-12.18-13.61-12.19-1,0-2,.01-2.99-.02-5.54-.19-10.24-2.37-13.65-6.66C2.78,278.3,1.55,275.26,0,272.48c0-11.23,0-22.46,0-33.68ZM84.69,335.33c5.36.63,11.99,2.98,17.58,7.64,4.22,3.52,6.27,8.27,6.29,13.83,0,1.87-.02,3.74.03,5.61.14,5.55,2.5,7.99,8.03,8.07,5.74.09,11.48-.04,17.21.03,9.46.13,13.55.62,13.05-12.8-.32-8.48,4.02-14.64,11.75-18.37,13.53-6.53,21.78-5.51,31.35,5.35.16.19.35.35.54.52,3.42,3.1,6.56,3.24,9.89.02,5.83-5.64,11.56-11.37,17.19-17.21,2.97-3.08,2.84-6.4-.05-9.64-1.24-1.4-2.64-2.65-3.94-3.99-11.32-11.7-5.12-34.66,10.67-38.9,3.41-.91,7.15-.61,10.74-.79,5.17-.27,7.52-2.58,7.56-7.67.05-5.86-.09-11.73.03-17.59.21-10.43.39-13.45-12.65-13.01-7.23.24-13.2-2.89-16.86-9.21-2.15-3.72-3.68-7.89-4.97-12.01-1.9-6.06-.14-11.57,3.68-16.43,1.38-1.76,3.04-3.3,4.6-4.91,4.46-4.57,4.51-7.61.07-12.09-4.65-4.7-9.34-9.36-14.02-14.03-5.7-5.69-8.2-5.7-13.94.09-3.37,3.4-6.94,6.27-11.79,7.5-6.93,1.76-12.7-1.31-18.55-3.97-7.25-3.3-10.83-9.26-11.37-17.1-.14-2.11,0-4.24-.05-6.36-.11-4.79-2.37-7.16-7.11-7.2-7.86-.07-15.72-.06-23.58,0-4.89.03-7.24,2.38-7.48,7.35-.1,2.12,0,4.24-.06,6.36-.19,6.88-3.19,12.34-9.09,15.76-3.62,2.1-7.63,3.69-11.64,4.91-6.76,2.06-12.78.07-17.97-4.54-1.86-1.65-3.5-3.57-5.39-5.18-2.89-2.45-6.09-2.64-8.76-.08-6.21,5.95-12.28,12.06-18.24,18.26-2.51,2.61-2.3,5.69-.02,8.45,1.42,1.72,3.03,3.33,4.7,4.82,12.76,11.38,1.81,35.91-10.1,38.63-3.59.82-7.39.9-11.1,1.02-5.76.19-8.09,2.38-8.14,8.25-.06,7.11-.04,14.22,0,21.33.03,6.23,2.39,8.58,8.59,8.66,1,.01,2,0,2.99,0,15.16.06,27.67,16.97,22.55,31.33-1.58,4.44-5.49,8.12-8.62,11.92-3.04,3.69-3.55,6.81-.54,9.93,5.8,6.01,11.72,11.92,17.74,17.72,2.81,2.71,6.04,2.59,9.05-.02,2.07-1.8,3.92-3.85,5.98-5.65,3.5-3.07,7.61-4.64,14.17-4.59Z"/>
  <path d="M210.96.02c6.24,0,12.47-.04,18.71.01,11.08.09,19.31,8.21,19.53,19.35.12,6.23.13,12.48,0,18.71-.08,3.8,1.67,6.05,5.05,7.41,5.19,2.09,10.4,4.15,15.5,6.44,3.58,1.61,6.42.96,9.1-1.79,4.08-4.21,8.24-8.34,12.44-12.43,8.77-8.55,19.8-8.69,28.59-.15,8.77,8.52,17.42,17.16,25.95,25.91,8.4,8.62,8.32,19.69-.02,28.32-4.16,4.3-8.4,8.53-12.69,12.71-2.76,2.69-3.3,5.55-1.7,9.11,2.29,5.1,4.34,10.31,6.4,15.51,1.36,3.42,3.7,5.05,7.46,4.96,5.98-.14,11.97-.08,17.96-.02,11.84.12,19.97,8.24,20.01,20.01.04,12.22.03,24.45,0,36.67-.03,11.82-7.91,19.91-19.84,20.23-6.11.16-12.23.15-18.33,0-3.83-.09-6.01,1.7-7.35,5.09-2.02,5.08-4.02,10.18-6.29,15.15-1.69,3.7-1.09,6.65,1.78,9.43,4.12,3.99,8.16,8.07,12.17,12.17,8.9,9.1,8.95,20.03,0,29.13-8.3,8.45-16.7,16.82-25.15,25.13-9.1,8.94-20.08,8.95-29.13.07-6.59-6.46-13.09-13.02-19.6-19.56-2.33-2.34-3.12-5.13-1.52-8.16,1.46-2.75,4.03-3.87,6.95-3.04,1.68.48,3.3,1.71,4.59,2.97,6.08,5.91,12.03,11.96,18.05,17.94,4.52,4.49,7.61,4.5,12.07.06,8.04-8.01,16.07-16.03,24.08-24.08,4.39-4.41,4.4-7.38.06-11.79-4.11-4.18-8.31-8.27-12.4-12.47-6.32-6.5-7.67-13.95-4.11-22.31,2.14-5.03,4.29-10.06,6.32-15.14,3.65-9.15,9.83-13.52,19.73-13.68,5.74-.09,11.48.02,17.21-.03,5.6-.05,7.89-2.3,7.92-7.98.06-11.6.07-23.2,0-34.8-.03-5.62-2.33-7.89-8-8.01-6.61-.14-13.23.08-19.82-.25-7.83-.4-13.25-4.56-16.33-11.72-2.55-5.94-5.04-11.91-7.43-17.91-2.95-7.41-1.78-14.24,3.58-20.11,4.29-4.69,8.94-9.05,13.39-13.6,4.24-4.33,4.27-7.27.07-11.5-8.18-8.23-16.38-16.43-24.61-24.61-4.21-4.19-7.16-4.15-11.5.11-4.1,4.02-8.09,8.14-12.2,12.14-6.87,6.7-14.12,7.99-22.91,4.24-4.92-2.1-9.85-4.17-14.81-6.14-9.13-3.61-13.36-9.48-13.59-19.34-.13-5.74.03-11.48-.05-17.21-.08-6.07-2.35-8.31-8.44-8.33-11.35-.04-22.7-.04-34.05,0-6.09.02-8.23,2.25-8.32,8.35-.11,6.98.08,13.98-.51,20.92-.6,7.02-4.79,11.92-11.17,14.75-6.02,2.67-12.13,5.15-18.26,7.57-7.71,3.05-14.69,1.64-20.69-4.03-4.44-4.2-8.66-8.63-13.02-12.91-4.4-4.32-7.37-4.29-11.79.12-8.04,8.01-16.07,16.04-24.08,24.08-4.44,4.46-4.41,7.52.11,12.07,6.24,6.29,12.53,12.52,18.75,18.83,2.3,2.34,3.15,5.07,1.41,8.14-1.47,2.58-3.82,3.7-6.62,3.01-1.59-.39-3.2-1.4-4.39-2.55-6.52-6.36-12.98-12.78-19.32-19.31-8.29-8.54-8.53-19.46-.33-28.04,8.62-9.01,17.45-17.83,26.45-26.47,8.7-8.36,19.6-8.08,28.32.37,4.21,4.08,8.36,8.22,12.44,12.43,2.8,2.88,5.76,3.38,9.44,1.7,4.97-2.27,10.07-4.27,15.15-6.29,3.4-1.35,5.11-3.6,5-7.41-.17-5.86-.1-11.73-.03-17.59C172.45,7.99,180.51.04,193,.02c5.99-.01,11.97,0,17.96,0Z"/>
  <path d="M207.43,89.54c21.37-.58,40.47,5.64,56.87,19.46,14.69,12.38,24.23,28.05,27.78,46.94,5.39,28.64-2.17,53.69-22.2,74.9-2.73,2.89-6.76,2.99-9.36.54-2.66-2.5-2.83-6.25.03-9.33,6.15-6.63,11.3-13.85,14.99-22.16,19.09-43.04-10.97-93.67-57.9-97.5-21.03-1.71-39.24,4.61-54.75,18.85-.46.42-.89.87-1.37,1.27-3.39,2.79-7.09,2.73-9.63-.14-2.39-2.7-2.33-6.76.94-9.25,6.89-5.26,13.78-10.68,21.3-14.94,10.19-5.77,21.53-8.25,33.31-8.63Z"/>
  <path d="M127.57,313c-32.83-.48-57.71-26.19-57.27-59.18.36-27.43,22.38-55.81,57.25-55.77,32.33.04,57.89,24.77,57.66,57.67-.25,36.46-26.65,56.27-57.64,57.27ZM127.85,211.01c-24.61-.06-44.72,19.78-44.78,44.17-.06,24.93,19.9,44.96,44.82,45,23.99.04,44.29-20.09,44.33-43.95.05-25.32-19.42-45.16-44.37-45.22Z"/>
</g>
</svg>