<?xml version="1.0" encoding="UTF-8"?><svg id="steering" xmlns="http://www.w3.org/2000/svg" viewBox="0 0 335.44 335.34"><path d="M167.63,0c92.74,0,167.81,74.85,167.81,167.32,0,93.03-74.96,167.99-167.93,168.02C74.94,335.37-.55,259.56,0,166.11.54,74.87,75.67,0,167.63,0ZM167.81,323.32c86.88-.59,155.75-69.85,155.51-155.96-.24-87.13-70.51-155.71-156.55-155.29C80.47,12.5,11.02,83.11,12.18,169.3c1.16,86.6,70.66,153.58,155.63,154.03Z"/><path d="M264.45,143.71c-7.98,0-15.97.22-23.94-.14-2.15-.1-4.78-1.47-6.23-3.1-3.55-3.99-6.55-8.47-9.74-12.78-3.92-5.28-9.19-7.91-15.72-7.92-27.31-.03-54.63-.02-81.94,0-6.68,0-12.03,2.68-15.99,8.12-3.01,4.13-6.17,8.15-9.16,12.29-1.74,2.41-3.83,3.59-6.91,3.58-15.96-.1-31.93-.03-47.89-.05-5.77,0-8.29-3.17-6.66-8.75,15.34-52.74,49.66-85.94,103.56-96.62,68-13.48,133.94,29.1,151.36,96.13,1.65,6.34-.58,9.23-7.15,9.24-7.86.01-15.72,0-23.57,0ZM54.03,131.74c8.16,0,16.01.03,23.86-.01,4.97-.03,10.61,1.26,14.71-.68,3.81-1.8,5.96-7.09,8.85-10.84.08-.1.16-.19.23-.29,6.36-8.01,14.54-12.18,24.88-12.16,27.44.06,54.89.07,82.33,0,10.49-.03,18.77,4.19,25.15,12.37,2.99,3.83,5.22,9.15,9.13,11.08,3.93,1.94,9.52.51,14.38.52,7.93.02,15.86,0,23.9,0-11.37-40.35-52.12-83.06-112.51-83.72-58.35-.64-102.02,39.5-114.92,83.72Z"/><path d="M185.74,282.38c.02-49.69,33.22-90.69,82.1-100.78,7.84-1.62,16.07-1.54,24.14-1.87,4.62-.19,7.02,3.27,5.82,8.63-1.81,8.11-3.37,16.39-6.33,24.1-17.4,45.41-50.12,73.41-97.44,84.39-5.12,1.19-8.22-1.36-8.29-6.63-.03-2.62,0-5.24,0-7.85ZM284.73,192.07c-49.87.5-89.27,45.28-86.51,91.3,24.1-6.47,44.25-19.11,60.42-37.97,13.26-15.47,21.95-33.22,26.09-53.33Z"/><path d="M149.8,282.73c0,2.62.04,5.24,0,7.85-.1,4.75-3.25,7.34-7.91,6.36-18.5-3.87-35.6-11.05-50.88-22.23-29.33-21.45-46.94-50.23-53.27-85.96-1.13-6.37,1.23-8.95,7.69-9.13,47.68-1.33,89.06,30.89,100.94,75.43,1.06,3.96,1.99,7.98,2.5,12.03.66,5.18.84,10.41,1.22,15.63-.1,0-.19.02-.29.02ZM137.67,283.13c.74-54.57-44.78-91.38-86.53-90.97,7.19,42.89,44.28,81.49,86.53,90.97Z"/><path d="M203.7,179.62c-.03,20.07-16,35.96-36.12,35.95-19.96-.01-35.77-16.07-35.73-36.3.04-19.74,16.11-35.57,36.1-35.55,19.83.02,35.78,16.03,35.75,35.9ZM191.71,179.7c0-13.08-11.03-24.07-24.08-24-12.9.07-23.76,10.98-23.8,23.89-.04,13.04,11.04,24.08,24.08,24,12.9-.08,23.81-11.03,23.81-23.89Z"/></svg>