<?xml version="1.0" encoding="UTF-8"?><svg id="v-link" xmlns="http://www.w3.org/2000/svg" viewBox="0 0 595.65 129.91"><defs><style>.cls-1</style></defs><path class="cls-1" d="M6.69,40.44h12.97c17.32,0,20.87-6.16,20.87-11.38s-5.08-7.99-7.96-8.83c2.88-.78,6.76-3.78,6.76-8.72C39.33,6.3,35.11.25,18.66.25H6.69C2.34.25,0,2.19,0,5.8v29.09c0,3.61,2.34,5.55,6.69,5.55ZM15.85,10.69h3.01c2.94,0,3.88,1.22,3.88,2.83s-.74,3.05-3.88,3.05h-3.01v-5.88ZM15.85,24.06h4.15c3.28,0,4.08,1.44,4.08,3.05s-.8,3-4.08,3h-4.15v-6.05Z"/><path class="cls-1" d="M68.41,40.77c12.31,0,23.34-5.77,23.34-20.37S80.65,0,68.54,0s-23.34,6.08-23.34,20.4,10.9,20.37,23.21,20.37ZM68.41,11.63c4.08,0,7.16,3.05,7.16,8.72,0,6-3.08,8.88-7.16,8.88-4.28,0-7.22-2.89-7.22-8.88,0-5.66,2.94-8.72,7.22-8.72Z"/><path class="cls-1" d="M120.3,40.77c12.31,0,23.34-5.77,23.34-20.37S132.54,0,120.43,0s-23.34,6.08-23.34,20.4,10.9,20.37,23.21,20.37ZM120.3,11.63c4.08,0,7.16,3.05,7.16,8.72,0,6-3.08,8.88-7.16,8.88-4.28,0-7.22-2.89-7.22-8.88,0-5.66,2.94-8.72,7.22-8.72Z"/><path class="cls-1" d="M168.71,31.17c-2.33,0-4.36-.73-6.15-2.22-1.8-1.49-4.13-2.49-7.73-1.78l-1.23.24c-4.2.83-5.7,3.73-3.14,7.08,3.14,4.12,10.69,6.27,18.39,6.27h0c11.7,0,20.4-4.89,20.4-12.6,0-14.02-23.82-10.79-23.82-16.45,0-1.29,1.51-2.17,3.75-2.17,1.46,0,2.89.41,4.08,1.17,2.2,1.39,3.83,3.41,9.18,2.6l1.06-.16c4.92-.74,6.24-3.62,3.13-7.53C183.51,1.73,177.07,0,168.57,0c-11.4,0-19.19,4.77-19.19,12.35,0,14.27,23.35,12.05,23.35,16.6,0,1.33-1.61,2.22-4.01,2.22Z"/><path class="cls-1" d="M208.9,40.44h2.81c4.35,0,6.69-1.94,6.69-5.55V12.07h2.48c4.35,0,6.69-1.94,6.69-5.55v-.72c0-3.61-2.34-5.55-6.69-5.55h-21.2c-4.35,0-6.69,1.94-6.69,5.55v.72c0,3.61,2.34,5.55,6.69,5.55h2.54v22.82c0,3.61,2.34,5.55,6.69,5.55Z"/><path class="cls-1" d="M240.26,40.44h19.6c4.35,0,6.69-1.94,6.69-5.55v-.67c0-3.61-2.34-5.55-6.69-5.55h-10.1v-3.61h8.89c4.35,0,6.69-1.67,6.69-4.72v-.06c0-3-2.34-4.66-6.69-4.66h-8.89v-3.55h10.1c4.35,0,6.69-1.94,6.69-5.55v-.72c0-3.61-2.34-5.55-6.69-5.55h-19.6c-4.35,0-6.69,1.94-6.69,5.55v29.09c0,3.61,2.34,5.55,6.69,5.55Z"/><path class="cls-1" d="M281.25,40.44h9.23c19.46,0,26.55-7.83,26.55-20.04S309.94.25,290.48.25h-9.23c-4.35,0-6.69,1.94-6.69,5.55v29.09c0,3.61,2.34,5.55,6.69,5.55ZM290.74,11.91h.33c8.49,0,9.56,3.22,9.56,8.38s-1.07,8.38-9.43,8.38h-.47V11.91Z"/><path class="cls-1" d="M358.75,17.68l5.02,17.93c.94,3.22,3.34,4.83,7.36,4.83h3.08c4.01,0,6.42-1.61,7.36-4.83l5.02-17.93,2.07,17.49c.4,3.44,2.81,5.27,6.96,5.27h2.81c4.55,0,6.82-2.11,6.29-5.88l-4.35-29.14c-.53-3.39-2.94-5.16-7.09-5.16h-7.62c-4.01,0-6.42,1.61-7.29,4.89l-5.69,21.26-5.68-21.26c-.87-3.28-3.28-4.89-7.29-4.89h-7.62c-4.15,0-6.55,1.78-7.09,5.16l-4.35,29.14c-.53,3.78,1.74,5.88,6.29,5.88h2.81c4.15,0,6.55-1.83,6.96-5.27l2.07-17.49Z"/><path class="cls-1" d="M432.77,40.77c12.31,0,23.34-5.77,23.34-20.37S445.01,0,432.9,0s-23.34,6.08-23.34,20.4,10.9,20.37,23.21,20.37ZM432.77,11.63c4.08,0,7.16,3.05,7.16,8.72,0,6-3.08,8.88-7.16,8.88-4.28,0-7.22-2.89-7.22-8.88,0-5.66,2.94-8.72,7.22-8.72Z"/><path class="cls-1" d="M484.66,40.77c12.31,0,23.34-5.77,23.34-20.37S496.9,0,484.79,0s-23.34,6.08-23.34,20.4,10.9,20.37,23.21,20.37ZM484.66,11.63c4.08,0,7.16,3.05,7.16,8.72,0,6-3.08,8.88-7.16,8.88-4.28,0-7.22-2.89-7.22-8.88,0-5.66,2.94-8.72,7.22-8.72Z"/><path class="cls-1" d="M533.07,31.17c-2.33,0-4.36-.73-6.15-2.22-1.8-1.49-4.13-2.49-7.73-1.78l-1.23.24c-4.2.83-5.7,3.73-3.14,7.08,3.14,4.12,10.69,6.27,18.39,6.27h0c11.7,0,20.4-4.89,20.4-12.6,0-14.02-23.82-10.79-23.82-16.45,0-1.29,1.51-2.17,3.75-2.17,1.46,0,2.89.41,4.08,1.17,2.2,1.39,3.83,3.41,9.18,2.6l1.06-.16c4.92-.74,6.24-3.62,3.13-7.53C547.88,1.73,541.43,0,532.93,0c-11.4,0-19.19,4.77-19.19,12.35,0,14.27,23.35,12.05,23.35,16.6,0,1.33-1.6,2.22-4.01,2.22Z"/><path class="cls-1" d="M567.37,40.44h19.6c4.35,0,6.69-1.94,6.69-5.55v-.67c0-3.61-2.34-5.55-6.69-5.55h-10.1v-3.61h8.89c4.35,0,6.69-1.67,6.69-4.72v-.06c0-3-2.34-4.66-6.69-4.66h-8.89v-3.55h10.1c4.35,0,6.69-1.94,6.69-5.55v-.72c0-3.61-2.34-5.55-6.69-5.55h-19.6c-4.35,0-6.69,1.94-6.69,5.55v29.09c0,3.61,2.34,5.55,6.69,5.55Z"/><path class="cls-1" d="M119.48,55.32c-7.92,0-15.97.21-23.9-.1-2.39.52-5.53-.21-7.04,1.98-2.26,3.03-3.52,6.37-5.16,9.6-.63.94-1.01,1.98-1.51,2.92-.38.31.25.73,0,1.04-.25.1-.13-.21-.38-.21-.63,1.04-1.01,2.19-1.63,3.24-.63,1.77-2.26,3.44-1.76,5.11-.63-1.04-1.13,1.15-1.51,1.67-.25,1.04-1.51,1.98-1.13,2.92-.75.1-.88.94-.88,1.46q.13.21-.13.31c-.75.42-.88,1.36-1.38,1.98-.25.42.13.31.38.63-3.77,4.7-5.28,11.06-9.06,16.08-6.11-9.42-9.75-19.77-15.33-29.1-.09-.29-.2-.59-.32-.88-.85-2.88-3.29-6.15-4.34-9.16-1.76-2.92-2.26-6.79-5.91-8.77-4.28-1.36-9.06-.31-13.58-.52-2.52-.21-5.03,0-7.55-.1-.25,0-.5,0-.63.31-1.63-.94-4.28.1-6.29-.31-2.39.1-7.29-.63-9.06.83-.23.48-.03.86.39,1.08,0,0,0,0,0,0-.01.03-.01.06-.02.09-.73.13-.31.68.06,1.21-.36.33.51,1.12.71,1.63,0,.02.02.03.04.04.06.26.19.52.35.8.02,1,1.33,2.27,1.75,3.24,5.28,10.23,11.32,20.15,16.48,30.38,4.28,7.1,8.05,14.3,11.82,21.61,3.27,4.18,4.02,11.8,10.69,12.94,8.43.63,17.1-.21,25.66.1,4.15.1,8.18-.1,12.2.21,3.65-.21,7.8-.21,9.68-3.44,2.52-4.38,5.16-9.5,7.42-13.57.88-1.77,2.26-3.65,2.77-5.43-.13-.1-.38-.1-.38,0-.17.24-.35.3-.53.29.1-.2.18-.41.27-.61.32-.04.67-.05,1.02-.1.88-1.46,1.89-2.92,2.51-4.49,2.39-3.97,4.53-8.25,6.79-12.32.38-.94,1.64-1.88,1.38-2.82.88-.84,1.26-1.88,1.89-2.82,0-.31-.5-.42-.63-.1-.14.12-.29.17-.45.21.13-.24.27-.47.41-.71.28-.11.54-.16.79-.02,1.38-1.88,2.39-4.07,3.52-6.16,1.26-2.09,2.26-4.28,3.65-6.37,0-.91,2.96-3.5,1.15-3.64.03-.06.07-.12.09-.18.36-.05.92.35,1.02-.14.13-1.04,2.39-2.92,1.38-3.44,1.13,0,1.13-1.57,1.76-2.19,1.37-2.09,1.48-3.32.84-4.04.04-2.6-4.64-2-8.39-2.16ZM6.29,56.42c-.13,0-.26,0-.39,0-.5-.02-.97-.11-1.44.07-.05,0-.1,0-.14.01.13-.19.29-.36-.04-.46.5-.42,1.51-.21,2.14-.21-.13.1-.25.21-.25.31.13,0,.25.1.5.21-.13.03-.25.05-.38.05ZM7.29,56.37c.25-.1.63-.31,1.01-.21-.38.31-.75.1-1.01.21ZM45.11,74.3c-.14.02-.3.03-.47.03-.01,0-.01,0-.02,0,.31-.17.48-.41.75-.53.03.03.06.06.08.08-.1.14-.24.29-.34.43ZM45.45,74.19c0-.09.02-.18.03-.27.07.12.05.21-.03.27ZM49.73,76.46c-.08-.13-.15-.26-.23-.39.02-.03.03-.05.05-.08.32.16.31.35.18.46ZM61.42,124.17s.02-.08.04-.13c.01,0,.03,0,.05,0,.07.02.15,0,.23-.02.11.06.19.12.23.18-.18,0-.36-.02-.55-.03ZM68.01,99.58c.09-.33.23-.66.28-.82.04,0,.08,0,.13,0-.13.28-.27.55-.41.82ZM69.14,101.48c-.06,0-.13,0-.22.03-.13.04-.22.04-.31.03-.13-.26-.18-.44.56-.39,0,.12-.02.22-.03.33ZM68.54,100.42s-.05,0-.08,0c.08-.25.17-.47.21-.59.25,0,.63,0,.63.31.42.1.7.32.9.61-1.61.35-.67-.54-1.66-.34ZM76.71,122.06s-.07,0-.12,0c-.08-.07-.15-.15-.2-.26.17-.01.27-.06.37-.1.08.01.15.03.22.04-.28.12-.23.2-.27.3ZM77.18,118.62c-.1-.08-.17-.17-.18-.24.12.01.22.06.22.15.03.05,0,.08-.04.1ZM78.49,78.61s-.01,0-.02,0c.01-.04.03-.06.05-.09,0,.03-.02.06-.03.1ZM87.16,71.34c.13.1,0,.52.5.21,0,.16-.02.31-.01.44-.11.06-.26-.12-.57-.62.03-.01.05-.03.08-.04ZM87.41,72.34s-.01,0-.02,0c0,0,0-.01-.01-.02.01,0,.02,0,.03.01ZM82.74,72.16s0-.03.02-.04c.1-.1.58-.13.76-.06,0-.07,0-.11,0-.16.01.06.01.13,0,.19-.17-.02-.34.05-.64.18-.11-.04-.14-.08-.14-.12ZM83.13,73.49s-.06-.04-.09-.06c.06-.15.14-.31.23-.45-.06.16-.11.33-.14.51ZM83.63,74.11c-.35-.39-.04-.88.21-1.28.17.43-.05.81-.21,1.28ZM86.52,73.56s0-.02,0-.03c.18-.36-.19-.53-.44-.77,0-.09.02-.19.05-.29.27.1.45.14.57.14.01.04.03.08.07.14.11.62-.06.83-.26.8ZM86.86,72.09c.07.04.17.09.3.15,0,.05,0,.1,0,.14-.09.01-.17.02-.24.03,0-.09-.03-.2-.06-.32ZM87.16,73.49c-.05-.19-.07-.32-.07-.44.05.07.18.14.41.25-.09.09-.26.12-.34.19ZM88.11,72.98c-.08-.2-.25-.25-.4-.15-.04-.06-.09-.13-.14-.21.14-.01.26-.04.31-.15.05.04.1.08.16.12,0-.08,0-.16,0-.24.13,0,.24.02.29.05-.1.27-.16.47-.23.58ZM100.99,71.09s-.05-.04-.07-.05l.07-.12c.02.05.02.08.03.12-.01.02-.02.03-.03.04ZM101.48,65.76s.1-.06.14-.1c.06.13.09.24.08.33-.13-.05-.2-.14-.22-.23ZM102.97,72.63c.14.1.29.18.29.38.02,0,.04.02.06.02-.03.15-.06.31-.06.46-.25-.1-.38-.31-.25-.42.07-.15.04-.3-.04-.44ZM102.76,75.84c.25,0,.47.08.67.22-.23-.06-.45-.14-.67-.22ZM105.18,66.56s-.11-.03-.22-.03c-.01-.02-.03-.04-.03-.06.09-.12.19-.17.33-.27-.01.12-.04.24-.08.35ZM106.52,66.6c-.01-.13-.04-.23-.06-.31.33-.23.79-.22,1.17-.05.08.07.17.14.28.17.09.07.17.14.23.23,0,0,0,0,0,.01-.26-.08-.73.52-.36.52.09.04.17.1.24.17,0,.15-.02.29-.12.42-.38-1.36-1.13,0-1.38-1.15ZM107.94,83.77c.1-.02.2-.06.3-.12.02.06.05.11.05.17-.16.03-.26,0-.34-.05ZM116.06,79.31c.06-.11.12-.22.17-.33.2,0,.38-.07.48.18-.25.21-.55.27-.65.15Z"/><path class="cls-1" d="M195.07,87.83c.13-.76-.02-1.38-.35-1.88-.21-2.28-3.32-2.92-5.81-2.44-1.89-.1-4.4-.42-6.41,0-2.64-.63-6.16.21-9.06-.21-4.02.31-8.18,0-12.33,0-.5.1-.25.83-.88.94-.38.1-.5-.31-.75,0-.12.1-.34.2-.54.23-.1,0-.19-.02-.27-.02-.09-.03-.16-.1-.19-.21.5,0,1.51-.1,1.13-.73.25-.31-.75-.1-.88-.1-1.89-.21-.38.31-1.26.31.13-.94-4.28-.1-5.41-.31-6.41,0-12.95-.31-19.49.21-3.4,1.25-1.63,6.89-2.01,9.5.96-.1-.36.75.38,1.01,0,.02,0,.05,0,.08.03,0,.05,0,.07,0-.65.35-.08,1.34-.45,2.05.25,1.15-.25,2.4.25,3.44-.38,1.15-.25,2.92.13,3.86-.08.17.04.44.25.7.04.14.08.27.13.38-.25.52,1.26,1.88,2.01,1.46,1.38,0,4.4.94,4.4-.31.5,1.15,2.14.52,3.4.63,1.26-.1,2.77.1,4.02,0,.13-.42,2.89.42,3.02-.21.75.31,2.14.21,3.02.1,1.26.1,2.64.1,3.9,0,7.42.31,15.47-.1,23.14.21,3.77-.73,14.09,1.15,16.22-1.36,1.13-2.4.63-5.43.63-8.04v-9.29ZM137.35,94.78s0,0,0,0h0s0,0,0,0ZM138.73,94.68c-.22-.04-.39-.1-.55-.14.28-.08.55-.14.78-.14-.05.08-.12.18-.23.28ZM146.02,105.68c.13-.31.5-.31.63-.1,0,.31-.38.42-.63.1ZM150.09,87.71c-.66-.36-.47.06-1.42-.03-.23.25-.5.16-.77,0,.12-.14.26-.27.39-.38.25-.83,1.26-.94,1.51,0,.39.06.3.25.29.41ZM171.3,84.35c-.38-.1-.25-.31-.13-.52.13.21.63.31.13.52ZM186.39,103.48c-.1.51-.26.35-.44.1.1-.06.24-.12.45-.2,0,.04,0,.06,0,.1ZM188.91,105.47s-.05-.04-.07-.06c.03,0,.06,0,.09,0,0,.02,0,.04-.01.06ZM188.95,84.57c-.29-.02-.58-.04-.89-.06.24-.22.54-.4.73-.48,0,.1.13.21,0,.31h.25c-.04.07-.07.15-.09.23Z"/><path class="cls-1" d="M298.63,114.46c-.03-.23-.08-.45-.15-.65.11-.01.24.01.36.01.13-1.04.25-2.09.13-3.24-.08-1.02.03-2.39-.53-3.3-.19-1.12-.75-2.07-2.49-2.07-4.28-.31-8.55-.1-12.83-.1-1.63,0-3.4-.1-5.03.1.25.21.88.42.75.84-.5-.21-.75-.94-1.38-.94-1.01.1-4.02-.63-4.4.31-.88-.31-2.01-.52-3.02-.31-1.26-.21-3.02-.1-4.28.21q-.25-.21-.5-.1c-.63-.31-1.63-.1-2.39-.1-2.77.1-5.66-.21-8.43,0-4.02-.52-8.8.94-12.45-.94-.02-.03-.04-.07-.06-.11-.16-.92-.1-1.92-.45-2.77h.25c-.13-13.99.13-27.66-.13-41.76.04-.7-.12-1.23-.4-1.65-.37-3.55-6.55-2.16-9.66-2.35-5.03-.21-9.94.1-14.72-.21-2.01.1-4.02.1-5.91.21-2.64-.1-7.17-.52-7.42,2.51-.13,8.98,0,18.16,0,27.25.13,13.67-.38,27.45.13,41.34.1.2.23.37.36.53,0,.18,0,.37.02.55,1.26,2.51,5.66,1.88,8.3,1.67,1.63.21,3.9,0,5.66.1,9.43-.21,20.12.42,29.05-.21h.38c-.38.63,1.51.1,2.01.21.5-.1.13-.84.88-.52-.88.31.13.52.63.52.38,0,.5-.21.63.1.75-.21,2.51.1,2.64-.52.25.1.13.42.5.42.63-.1,1.26.1,1.89.1,3.9-.31,7.8,0,11.7-.1,7.3-.21,15.72.31,22.01-.31.13.42.75.21,1.13.31.38.1.13-.63.13-.84.25,0,.25.1.25.31-.5,1.04,3.52.21,4.4.42.75-.1,2.01-.31,2.26-1.15.13-.21.88-2.19.25-1.36-.25-.31,0-.52.13-.73-.15-.08-.23-.21-.28-.34.03-.15.03-.24-.04-.21,0-.13.02-.27.06-.39.63-1.67.25-3.55.38-5.32-.45-1.49.6-4.07-.34-5.42ZM208.91,55.85c.38,0,.38.1.38.42-.13.63-1.26-.42-.38-.42ZM209.79,80.31s-.02-.05-.07-.08c-.02-.03-.02-.06-.03-.1,0-.02.01-.05.02-.07.09-.01.16-.01.22,0-.05.07-.1.14-.14.24ZM213.31,90.3s-.03-.01-.04-.02c.05-.02.1-.04.14-.04,0,.02-.03.04-.1.06ZM214.19,116.5s0,0,0,0c0,0,0,0,0,0,0,0,0,0,0,0ZM214.52,116.69s.03-.03.05-.05c0-.06,0-.15.03-.22.05.02.07.06.1.1,0,.27.01.39-.13.5-.16-.13-.02-.22-.05-.32ZM214.7,117.63s-.01,0-.02,0c-.02-.02-.03-.04-.06-.06.04-.02.07-.03.1-.04,0,.04-.01.07-.02.11ZM221.32,63.83c-.04-.43-.25-.9.04-1.26.03.02.04.04.06.06-.04.1-.06.23-.06.42.17.29.05.52-.04.78ZM221.11,62.25c-.22-.09.13-.41.31-.36.06.06.11.11.14.15-.13.12-.3.22-.45.22ZM222.52,84.98s.06-.03.09-.05c.05.07.09.15.13.25-.08-.07-.16-.13-.23-.2ZM223.11,70.37c0-.08.04-.13.09-.14-.03.05-.06.09-.09.14ZM223.59,61.76s.03-.02.04-.03c0,0,0,0,.02,0-.02,0-.04.01-.05.02ZM224.47,64.51c0-.08.04-.14.16-.17.05-.01.09-.01.12,0-.01.15-.11.17-.28.18ZM225.03,85.05c-.01-.15-.02-.31-.02-.46.03.06.12.08.23.1-.01.15-.07.27-.21.36ZM227.37,71.72c-.07,0-.14,0-.22,0,.02-.04.05-.06.08-.09.06-.02.12-.02.18.03-.01.02-.02.05-.03.07ZM229.77,77.16s.07.04.1.11c-.12.05-.13,0-.1-.11ZM231.42,81.63c-.03-.08-.05-.19-.06-.31.08.06.15.04.24,0,.01.1-.01.21-.18.31ZM231.93,81.63s.1-.07.15-.08c.02.03.03.07.05.11-.07,0-.14-.01-.2-.03ZM234.44,67.24c-.11-.08-.2-.16-.25-.23h.13c0-.07,0-.13-.01-.19.12,0,.25.06.39.24-.07.12-.18.14-.26.19ZM234.78,67.42s.02-.03.04-.05c.01.03.04.05.05.07-.03,0-.06-.01-.09-.02ZM236.83,56.37c.13.03.22.08.27.14-.14,0-.28,0-.43,0,.04-.05.08-.1.16-.14ZM236.96,128.47s.09,0,.13,0c.05.07.09.14.12.18-.09-.05-.17-.11-.25-.18ZM237.9,81.02c.09.08.11.18.12.31-.21-.07-.32-.13-.12-.31ZM263.62,106.06c-.25-.21-.13-.52-.13-.84.38.21.25.63.13.84ZM270.16,119.42c-.15.03-.22.09-.25.16-.07-.26-.16-.53-.3-.79-.01-.07-.04-.14-.05-.21.07-.16.21-.18.34-.11.09.21.21.42.26.62,0,.06,0,.12.02.18,0,.05,0,.1-.01.15ZM270.55,106.19c.02-.15.09-.13.17-.02-.06,0-.12,0-.17.02ZM273.73,106.22c-.22-.47-.24-1.02.33-.27.02.06.04.09.06.13-.15.03-.29.07-.4.13ZM280.87,110.03s-.02.02-.02.04c-.04,0-.07,0-.09-.01.04-.02.08-.02.11-.03ZM278.65,125.3c-.27-.06,0-.3.31-.33-.09.1-.2.21-.31.33ZM279.1,106.25c.07-.15.18-.1.3-.03-.1,0-.2.02-.3.03ZM280.47,125.47c.1.04.18.05.26.06-.02.03-.06.04-.12.03-.05-.03-.1-.06-.14-.09ZM281.1,128.44c-.31.52-.48.27-.41-.04.19,0,.38,0,.57,0,.02.08-.01.12-.16.04ZM289.9,111.26c.15.14.09.28-.09.39-.06,0-.12-.02-.16-.02-.06-.15.08-.3.25-.37ZM288.68,125.17s-.09-.08-.22-.1c.07-.15.15-.06.22.1ZM288.89,126.17s.01-.05.01-.07c-.36-.36-.19-.65-.19-.83.04.12.06.25.06.35.13,0,.13-.1.25-.1-.13.37.03.45.21.5-.16.08-.02.28.17.51-.03.07.01.09.08.1.05.07.11.13.15.2-.02.04-.05.09-.11.16.05-.01.12-.03.19-.04.03.04.04.08.06.12-.27,0-.28.12-.18.28-.08.02-.21.02-.36.02.03-.06.05-.12.05-.18-.54-.53.1-.91-.39-1.01ZM289.4,128.44c-.35,0-.27-.18-.36-.29.29-.02.59-.04.86-.07.04.13.13.2.25.23-.06.11-.26.17-.75.12ZM292.04,110.34c-.23.1-.54.03-.81-.09.19-.3.69-.52.69-.91-.12-.51-.12-.81.46-.44.01,0,.02.02.03.03l-.12.1c-.25-.1-.38.94,0,.73.1,0,.2.05.3.1-.1.2-.29.41-.55.48ZM294.42,111.97c.03-.05.07-.1.14-.13.05.03.12.07.18.11-.09.05-.2.06-.32.01Z"/><path class="cls-1" d="M345.88,122.38c-.13-.21.13-.52-.13-.84v-.1c.38-.1,0-.31.25-.52.13-.43-.17-.55-.56-.59.2-.09.05-.23.11-.38.35-.19.63-.72.2-1.53.18-.23.03-.29-.16-.27,0-.05,0-.11,0-.17.75-.07.3-1.05.3-1.45-.12-.41.57-1.88-.31-1.78,0-.03.01-.06.02-.09.24-.28.06-.58.29-.96-.18-.12-.28-.07-.34.05-.08-.08-.2-.13-.41-.09.18-.15.22-.31.23-.47,0,0,0,0,.02,0,.13.1,0,.21.13.31.85-.78.43-.74,0-.87,0,0,0,0,0,0-.09-.06-.15-.07-.21-.07-.13-.06-.24-.16-.3-.31-.07-.01-.12-.03-.16-.06.05-.03.09-.06.16-.09.13.1,0,.21.13.31.24-.22.38-.38.45-.49.06.03.12.06.18.11-.25.21-.25.31,0,.52.5.1.13-1.04.13-1.25.05-.23-.1-.33-.27-.45-.03-.22-.08-.43-.1-.55.04,0,.08-.04.12-.14,0-.21-.25-.31,0-.52-.38-.1-.38-.73-.13-1.04-.18-.05-.28.05-.35.16,0-.06,0-.12.1-.2-.26-.07-.33-.38-.28-.67.53-.64.24.41.78-.13.38-.31.25-2.51.13-3.13,0-2.61.13-5.64,0-8.46,0-.42.25-.94-.25-1.36-.13-.31.25-.21.25,0,.25-3.97-.13-9.19,0-12.74,0-1.77.25-3.55,0-5.22-.07.04-.17.08-.28.1,0-.09-.02-.18-.02-.27.14.02.3.09.3-.15-.12-.79.55-4.98-.25-5.39,0-.06-.01-.11-.02-.16.68-.68.14-2.12.26-3.01-.25-.83.5-1.98-.25-2.71.38-.21.25-.73.13-.83-.15-.1-.28-.11-.38-.08-.04-.06-.07-.12-.13-.17.17-.09.23-.25.24-.4.14.06.17.15.26.44.38-.21-.13-.52.13-.63.38-.83-.25-1.77.13-2.61-.5.1,0-.52-.38-.73.35-.69.25-1.63-.18-2.18-.03-.47-.18-.91-.45-1.2-.33.37-.67-.07-1-.04-.04-.01-.08-.02-.13-.02-.09-.03-.16-.04-.22-.03-.23-.19.55-.35.97.1,0-.1,0-.21.13-.31.38.52.13-.52-.25-.42-.5.31-.5-.42-1.01-.42-.63-.21-.5.52-.25.63.26.22.11.47-.02.73.07-.27-.08-.43-.34-.48-.02-.13-.06-.26-.14-.35.38-.63-.13-.83-.75-.73-.5.1-2.26-.31-1.89.21-4.53-.73-10.06-.21-14.46-.31-1.64.1-3.52,0-5.03.1-.63-.31-1.26.1-2.01-.1-.38-.1-.38.1-.5.31-.13-.42-.88-.21-.88.1-.5,0-.13-.73-.88-.52,0,.21,0,.42.38.31.38.42-.75,0-.25.63-.25-.1-.5-.31-.5-.63-.13-.42-2.51,0-3.27-.21-2.77-.31-5.28.94-5.03,3.44,0,.1,0,.31.25.31-.63.31-.13.94-.25,1.46-.1.24.1.29.31.26,0,.06.02.13.03.2-.73,1.18-.11,3.09-.34,4.55-.13,5.22.13,10.33,0,15.55.13-.1.25-.1.25-.21-.88,11.38.25,22.97-.38,34.45.87,2.49-.73,6.1.48,8.2,0,.02,0,.04.01.06-.48.5-.24.1.01.61-.6.21-.38,2.02.1,2.82.19.97.67,1.86,1.16,1.29.75,1.67,3.77.94,5.41.83,2.01.52,1.38.21,1.63-.83h-.25s.01-.07.02-.1c.04.06.1.1.23.06.09,0,.23.02.38.03-.04.21-.46-.07-.38.53.13.21,0,.63.38.52.5,0,2.14.42,1.89-.21q.13,0,.25.1c-.63-.63-.5-1.67,0-.42,0,.31.25.1.5.42-.25.31,2.26.1,3.02.21-.25-.1-.63-.1-.38-.42q-.5.31-1.01-.1c.12-.29-.2-.41-.35-.59.54,0,1.07,0,1.35.03-.21-.09-.49-.1-.45-.28.07.03.14.06.2.11.63.31,1.01.83,1.63,1.04.75.52,1.26-.42,2.01-.1,3.14.73,6.79.1,10.06.21,0,0-.13,0-.13-.1.75,0,2.26.42,2.64-.31.5.83,2.26.31,3.4.42,1.13-.1,2.89.1,3.14-1.04.75.62,2.25-3.11,1.14-3.44,0,0,0-.02,0-.02.37-.35.61-2.49.24-2.59ZM345.55,99.38c.06-.03.12-.05.2-.06-.09.22-.12.6-.22.88,0-.27,0-.54.01-.81ZM345.51,103.23c.11,0,.21.04.25.26-.05.02-.15.03-.25.03,0-.09,0-.2,0-.29ZM307.9,118.69c0-.13.11-.28.27-.39,0,.07,0,.13,0,.2-.1.06-.2.13-.27.19ZM310.63,58.92s.02,0,.03,0c.02,0,.04,0,.06-.01.07.04.14.06.21.09,0,.01,0,.02-.02.03.15.13.21.24.21.32-.07.01-.18.03-.33.06.35-.29-.26-.31-.16-.48ZM310.2,116.77l-.03.04s-.02-.03-.03-.05c.02,0,.04,0,.06,0ZM308.91,116.71c.14,0,.23,0,.25.04-.22.09-.24.09-.25-.04ZM308.85,115.63c.08-.28-.1-.61-.2-.87-.09-.05-.16-.1-.21-.15.05-.11.06-.23.04-.35.05-.04.09-.08.17-.12.09-.04.15-.05.21-.06.03.1.08.19.17.23.05.02.08.06.13.09.04.35-.04.87.25.99.05.02.09.07.13.1,0,.02,0,.05,0,.07.04.07.12.1.22.12.16.22.21.5.19.76-.21-.22-.52-.34-.78-.56-.1-.17-.2-.26-.3-.24ZM309.28,118.62s-.01-.01-.01-.02c.02,0,.03,0,.05,0-.01.01-.02.02-.03.03ZM309.85,123.64c-.1-.08-.09-.18-.02-.29.07.1.08.2.02.29ZM309.87,117.18s.02-.04.04-.06c-.13-.1-.38-.21-.38-.31.56-.28.52.27.69.62-.11-.09-.23-.17-.35-.24ZM310.54,116.91s-.06-.08-.08-.12c.12,0,.24.02.33.05-.01.05,0,.1,0,.15-.06-.05-.14-.08-.25-.08ZM310.92,118s-.02-.04-.04-.06c.03-.11.11-.21.29-.29,0,0,0,0,0,0-.04.13,0,.32.07.49-.07-.08-.17-.15-.32-.15ZM311.12,60.16c-.1-.06-.19-.11-.08-.2.09.05.17.08.25.1-.04.04-.1.07-.17.1ZM312.79,124.52s.01-.03.01-.05c.07.04.11.08.13.13-.06-.02-.1-.05-.14-.08ZM314.94,126.68c-.16-.15-.12-.34.09-.53.08.1.11.41-.09.53ZM316.07,124.12c-.12-.72-1.2.36-.53-.48.09.04.18.07.28.1.08.1.19.2.3.3-.01.03-.03.04-.04.08ZM316.16,127.46c0-.06.02-.11.04-.17.03.05.05.09.07.13-.03.02-.07.02-.11.03ZM316.3,62.17s.01-.01.02-.02c.02.09.05.15.08.21-.11,0-.17-.02-.1-.19ZM316.95,61.63s.04.04.05.06c-.04.05-.06.1-.08.15.01-.08.02-.15.02-.21ZM316.92,61.88c0,.09.08.14.31.13.06.09.12.16.24.2,0,0,0,0-.01,0-.13.21-.38.63-.63.31-.02-.07-.05-.1-.09-.13.08-.13.15-.33.19-.52ZM317.33,62.74c-.34.36-.21.42.02.32.04.03.13.04.26.03-.09.18-.21.39-.35.56-.02-.01-.03-.02-.05-.04-.09-.29-.41-.13-.52-.18.07-.33.2-.64.64-.7ZM316.7,126.35c.31-.16.46-.16.54-.09-.15.1-.31.14-.46.15-.03-.02-.05-.04-.08-.06ZM317.1,126.83s0-.01,0-.02c.06-.12.16-.19.27-.2.01.07.03.14.04.21-.09-.02-.19-.02-.31,0ZM318.06,126.62s-.04-.05-.07-.07c.02-.01.05-.02.09-.02,0,.04-.02.07-.02.1ZM318.34,128.12s-.01,0-.02,0c-.06-.08-.1-.15-.14-.23.01.01.02.02.03.03.1-.08.05-.22.14-.28.02.05.05.09.07.15-.04.11-.08.2-.08.34ZM319.59,127.25c-.13-.63-.5-.42-.5-1.04-.36-.22-.97-.34-1.34-.62.15-.12-.05-.25-.26-.34,0-.03-.03-.05-.03-.08.34-.19-.34-.29-.19-.54.19,0,.45.13.57.38,0,.1.13.21.25.21,0,.42.38.42.63.52.25.21.5.42.5.63.08.27.43.5.7.77-.11.01-.22.05-.32.13ZM320.6,127.98s0-.08,0-.12c.27.13.58.2.84.31-.34.2-.41.16-.85-.2ZM321.46,63.47c-.06.04-.14.08-.23.11-.15-.12-.17-.35-.26-.45,0,0,0-.02,0-.03.25.1.5.1.63.1-.05.08-.09.18-.15.27ZM322.06,62.23c-.06-.23-.13-.44-.2-.6-.01.01-.02.01-.03.02-.02-.06-.04-.13-.06-.19.17.26.31.58.42.92-.05-.04-.09-.09-.13-.15ZM322.11,56.57s0,0,0,0c-.37-.11-.62-.83,0-.41,0-.31.13-.31.38-.21-.25.21-.5.31-.38.62ZM322.67,66.57s.05-.03.07-.04c.02.03.01.05,0,.08-.03-.01-.06-.02-.08-.04ZM324.28,63.85c-.05-.13.03-.36.18-.51.01,0,.03,0,.05,0,0,.04,0,.07,0,.1-.26.11-.19.17-.23.4ZM334.35,90.5c.1-.14.24-.24.4-.18.02.03.02.05.06.08-.14.16-.31.17-.46.1ZM335.34,56.44c-.13-.12-.2-.26-.15-.39l.13.1c.33,0,.55.02.61.3-.19,0-.39-.01-.58-.02ZM339.21,98.27c.1-.16.05-.32.08-.44.08.17.1.4-.08.5-.02-.04-.03-.06-.04-.09.02,0,.03.02.04.03ZM339.34,113.23c-.16-.16-.11-.49.11-.57,0,.09-.01.19-.11.29-.05.08-.02.18,0,.28ZM338.59,97.75c.29.06.33.15.38.26-.06.01-.13.07-.25-.09-.03-.07-.07-.12-.13-.16,0,0,0,0,0-.01ZM338.69,115.15s0-.07,0-.1c.43-.11.53-.46.62-.79.07.1.13.19.16.26-.22.18-.17.44-.31.71-.06-.06-.13-.12-.2-.15-.09.15-.18.14-.28.08ZM339.65,116.01c-.18-.09-.35-.19-.43.07-.03.03-.09.05-.15.06.02-.18.1-.33.28-.33.04-.07.03-.16,0-.25.12.03.24.06.24.1.03,0,.09.03.15.08-.04.08-.07.17-.09.27ZM339.84,56.58c.11.09.18.15.22.2-.25-.04-.5-.07-.76-.1.13-.11.28-.15.28-.31h-.13c.13-.31.13-.21.5,0,.38,0,0,.21-.13.21ZM340.6,56.47c0-.31.63-.42.63-.21-.06.15-.17.22-.28.3-.24,0-.42.01-.49.08-.14-.18-.16-.34.14-.17ZM341.06,120.01c-.05-.25-.1-.48-.21-.66.08-.03.15-.06.2-.08.05.08.11.15.17.21,0,.03,0,.04,0,.08-.02.14,0,.3.04.46-.05.01-.12.01-.21,0ZM341.48,57.41c-.17.05-.11.09-.03.14-.05.04-.11.08-.16.12-.19-.09-.12-.24-.03-.41.08-.02.16-.03.22-.02,0,.04,0,.09,0,.17ZM345.64,116.47c.15.08.17.18-.13.39-.02,0-.04-.02-.05-.02.12-.08.18-.21.19-.36ZM345.04,115.73c-.18-.09-.14-.24-.23-.33.3.07.33.15.23.33ZM344.89,115.25s-.08.09-.13.13c0,0,0,0-.01,0,0-.08,0-.14-.03-.18.05.02.11.04.17.06ZM345,75.79c0-.06.01-.1.03-.13.07.08.17.15.29.2-.08.03-.18.05-.27.07-.03-.03-.07-.07-.1-.1.02-.01.03-.02.05-.04ZM345.01,107.51c-.07,0-.12.04-.16.08-.09.04-.19.06-.3.07,0-.03,0-.04,0-.06.15-.17.41-.28.08-.56.79-.07.72.26.38.47ZM344.57,113.89c0,.09,0,.17-.05.25-.09-.09-.15-.22-.15-.32l.2.07ZM344.75,71.86s.08.04.13.06c-.1.03-.09.11-.07.21-.07-.06-.11-.15-.06-.28ZM344.62,99.41s0,0,0,0c0,0,0,0,0,0,0,0,0,0,0,0ZM344.24,74.11c.11.09.19.18.26.27,0,.08-.02.16-.04.24-.16-.17-.28-.34-.21-.51ZM344.04,102.83c.11.02.22.08.33,0l-.13-.07c.19-.02.37.14.51.42.02.02.04.03.06.05-.13.37-.24.24-.41.01,0,0,0,0,0,0-.1-.13-.22-.28-.38-.39,0,0,.01,0,.02-.01ZM343.92,103.96s-.03.07-.05.11c0-.06-.03-.11-.04-.17.03.02.06.04.09.06ZM343.77,103.14s0,.02.01.03c-.02,0-.03,0-.04.01,0-.02.02-.03.03-.04ZM343.42,115.07c.06.06.09.12-.05.18-.02,0-.03,0-.06,0,.04-.05.07-.12.11-.17ZM343.59,115.99s.01.02.02.02c.13.1.38.21.13.31-.24-.04-.37-.02-.44.03,0-.18.04-.32.29-.37ZM343.14,57.3s-.01.04-.02.06c0,0,0,0,0-.01.01-.02.01-.03.02-.05ZM342.04,114.89c.13.08.16.11.15.13-.07-.03-.12-.08-.15-.13ZM342.37,115.95s-.09.04-.14.06c0-.09,0-.1-.12-.2.11.06.19.1.26.14ZM342.48,116.08s0,.06.01.09c-.03.03-.05.08,0,.19-.05.17-.21.32-.38.46-.38-.1.13-.63.38-.73ZM342.25,119c-.01-.19.03-.36.21-.38.12.23.13.43-.21.38ZM342.51,119.12s-.01.04-.01.06c0-.03,0-.05-.01-.08.01,0,.02.01.03.02ZM342.48,117.75c-.05-.04-.08-.08-.1-.12.08-.18.33-.4.48-.47.05.13.03.24-.02.34-.12.03-.26.12-.36.24ZM342.5,115.81s-.01,0-.02,0c0-.03.02-.05.03-.08,0,.03,0,.06,0,.08ZM342.12,117.54c-.02.1-.02.21,0,.36-.07-.12-.07-.23-.11-.33.03-.02.07-.03.12-.03ZM342.17,119.46c-.05.08-.14.16-.29.26.07-.56.04-.31.29-.26ZM341.87,119.74c.07.03.13.06.19.07-.07.02-.14.04-.21.06,0-.06.01-.09.02-.14ZM341.98,126.73s-.04-.03-.06-.04c.02,0,.04-.02.06-.02.01.02.01.03.01.05,0,0-.01,0-.01.01ZM342.06,120.63c.08-.09.15-.26.17-.54.07.03.1.06.15.09-.03.19-.19.35-.28.5-.02,0-.03-.03-.05-.04ZM342.26,121.27c-.01-.06-.02-.12-.02-.14.12,0,0-.1-.11-.1.04-.11.11-.25.24-.46.05.02.07.05.08.09-.06.05-.12.1-.21.16.07.04.14.06.2.08-.03.1-.08.21-.08.3.18-.15.3-.18.38-.14.02.07.03.14.02.21-.16-.06-.36,0-.51.02ZM342.62,120.09h0c0-.23-.07-.31-.18-.33.09-.1.12-.27.09-.47.26.24.69.89.1.8ZM342.87,120.25s0-.04-.01-.06c.03,0,.05.03.08.04-.02.01-.04.02-.06.02ZM342.99,116.6c-.04-.1-.06-.24-.07-.38h.07c-.05-.08-.08-.17-.12-.25-.04-.16-.11-.3-.26-.37.09-.04.21-.01.31.1.1.29.25.65.07.9ZM343.15,114.22c-.04.1-.08.2-.1.3-.13.1-.31.18-.31.35-.05.08-.11.12-.18.15-.08-.19-.14-.38-.45-.3,0-.07.02-.13.06-.17.09,0,.15-.01.19-.05.1.02.2.08.26.22.06-.15.15-.3.25-.46.06,0,.13-.03.13-.13,0-.21.25-.21.13,0,.02.03.02.05.03.08ZM343.24,116.91s.04-.07.05-.11c.1.29.25.64.07.88-.09-.22-.06-.58-.2-.82.02.02.04.03.07.05ZM343.74,120.88c-.11.02-.18.01-.24-.01.03-.11-.02-.2-.08-.29.01-.03.03-.06.05-.09.09.07.18.13.27.13,0-.1.13-.1.13,0,.04.03.06.06.06.09,0,.02,0,.04,0,.07-.05.11-.27.19-.18.26,0,0,.1-.01.2-.08,0,.01,0,.03.01.04l-.17.36c-.16-.11-.15-.29-.05-.47ZM344.09,122.03s.02-.05.03-.07c-.03,0-.05,0-.07,0-.06-.14-.02-.34-.11-.49.02-.01.04-.03.06-.04.11.05.17-.02.23-.1-.02.26-.11.62.03.79-.08-.02-.12-.06-.16-.1ZM344.54,120.31c-.06,0-.12,0-.17-.02-.03,0-.05-.01-.08-.02-.01-.14,0-.29.08-.44.21.12.19.3.17.47ZM344.52,119.24c-.2,0-.39,0-.52-.02-.5,0,.13-.73-.38-.63-.09.02-.14.03-.18.03-.02-.01-.04-.02-.06-.03-.03-.04,0-.1,0-.1.16-.2.06-.32-.06-.43-.04-.16.03-.29.32-.05.18-.23-.03-.63.13-.82,0,.02,0,.04,0,.05.1.08.2.19.29.31-.26-.11.05.36.09.63-.08.1-.24.17-.51.2.32.33.44.2.61.03.24.24.46.59.29.83ZM344.55,118.51c-.05-.08-.08-.19-.08-.29.03-.02.07-.03.12-.04l.02.02c-.04.12-.06.22-.06.31ZM344.54,117.53s-.03-.03-.04-.06c.1-.26-.13-.16-.29,0-.09-.11-.14-.28-.1-.42,0,0,0,0,0,0,.02,0,.04,0,.06.01l.19.16s.03-.08.04-.12c.07,0,.13.02.19.03-.02.1-.03.2.01.3-.03.04-.06.07-.08.1ZM344.62,115.15s0,0,0,0c0,0,0,0,0,0,0,0,0,0-.01,0ZM344.5,114.93s-.07-.1-.13-.16h0s0-.01-.01-.02c-.05-.06-.1-.12-.15-.17.01,0,.02-.02.03-.03.17-.1.33-.07.46.01-.03.09-.11.2-.21.37ZM344.67,121.28c0-.11.02-.23.08-.35.09.05.14.11.16.18-.06.07-.15.13-.24.17ZM344.87,117.33s-.01-.07-.02-.11c.05.03.08.09.1.15-.05,0-.09,0-.09-.04ZM345,116.43c-.13,0-.13-.1,0-.21.04.02.1.05.15.07.1.2.36.1.15.41-.07-.13-.04-.27-.29-.27ZM345.41,117.09s.06-.03.09-.03c-.12.69.54.27.07.85-.03-.17-.09-.36-.2-.57.11-.14.1-.21.03-.24Z"/><path class="cls-1" d="M471.15,82.72c.38-3.76,0-7.62.13-11.27-.12-.7.09-1.39-.43-1.9,0-.03,0-.06,0-.09.6-.1-.18-.22.18-.72.5-1.25,0-2.61.25-3.97-.52-2.06.57-4.74-.48-6.68-.16-.85-.55-1.62-1.41-2.23-2.39-.73-5.03-.1-7.55-.52-1.38.21-5.53-.63-4.78.73-.5-.63-1.01-.83-2.01-.63-.38.1-1.13-.31-1.13.1l-.38.21c.25-.63-1.01-.21-1.51-.31-.5.1-1.01-.21-1.38.1-2.14-.31-4.65,0-6.92-.1-3.27.21-7.17-.83-9.94.83-1.51,3.13-.63,6.79-.63,10.02-.25,5.74,0,11.48-.13,17.33-.5,12.63,2.52,18.89-9.18,4.18-5.53-6.89-11.19-13.88-16.85-20.77-1.51-2.09-3.27-4.07-4.91-6.16-1.26-1.36-2.26-3.34-4.4-4.18.13.31-.13.1-.25.21.38-1.46-6.04-1.15-7.3-1.25.13.21.5.1.88.21-.75.42-1.01-.21-1.51-.21-.63.21-.25.63-.5.63-.63-.1.38-.73-.5-.63.38.21-.25.42-.25.1-.25-.31-.76,0-1.13,0,.63.42-1.01-.1-1.26-.1-.88.1-1.64.21-2.52.1-.5.1-.88.42-1.26.63q.13-.42.63-.42c.63-.42-.63-.21-1.01-.21-1.13.31-4.4-.83-4.03.94.76.52.5-1.36,1.26-.42,0,.3-.67.32-.41.59-.04.01-.07.03-.1.04-.13,0-.21.04-.23.15-.06.06-.1.13-.12.21-.14.07-.34-.11-.46-.22.02-.04.06-.07.07-.11-.01,0-.03,0-.04,0,.09-.08.14-.16.04-.24-.12,0-.13.1-.24.2,0,0,0,0,0,0,0-.4-.38-.2-.75-.2.25-.31.5-.52.63-.84-1.13-.31-2.52.1-3.65-.1.59.29,1.16.6,1.34,1.14-.17,0-.34,0-.51,0-.35-.24-.52-.64-.95-.82.38.63-.13.21-.38.52-.13.22-.06.46-.07.66-.02-.03-.02-.07-.06-.1-.25-.21-.63.31-.5.42,0,.08-.07.09-.15.07,0,0,.01,0,.02,0,0-.1-.05-.24-.09-.4.25-.23.22-.35.03-.42.02-.04.02-.08.05-.12.25-.1.5-.42.25-.63-.25-.21-.63.31-.5.42,0,.21-.38,0-.5-.1,1.63-1.15-1.38-.52-2.26-.63l.25.21c-.13,0-.25.1-.38.1,0-.31-.13-.42-.5-.31-1.89.1-3.65-.21-5.41,0-1.63.1-1.38-.63-1.89.83-.13-1.25-1.38-.73-2.64-.73-3.9.1-2.26,4.28-2.52,6.37-.38,5.85.13,15.87-.25,23.07.13.1.38.21.38.52l-.25-.21c0,.63-.25,1.36.13,1.88.21-.18.07-.43.25-.69-.01.27-.06.56-.07.85-.11.03-.24.05-.3.16h.3s0,.04,0,.06c-.1.08-.2.15-.3.15.25.21.38.42.38.63-.63,0-.3.71.12.59.04.04.09.09.12.13-.12.1-.32.13-.62.01.13,7.52-.25,15.45.13,23.07,0-.17.19-.34.32-.5,0,.08,0,.15,0,.23-.03.02-.05.04-.07.06-1.01,3.34,0,6.99-.38,10.33-.26,2.17-.11,3.58.39,4.5.82,4,5.25,2.29,11.06,2.64-.88-.94-.63-.31-.13-.94.25.42.13,1.15.88.94,2.26,0,4.4.1,6.67,0,3.9.1,7.8.1,11.7,0,2.27-.21,6.04.73,7.17-1.36,1.01-3.55.25-7.31.5-10.96-.13-7.1,0-14.3,0-21.4.13-1.98-.76-4.91,1.76-5.85.5.52,1.38,1.88,2.14,1.88.13-.21.13-.42.38-.42-.25.31-.38.83,0,1.04.13,0,.5-.1.38.1,0,.1,0,.21.13.31-.25.31.13.42.25.63,3.02,3.55,5.91,7.1,9.06,10.65,1.3,1.27,1.61,2.8,2.89,2.73.01.01.02.03.03.04-.28.07-.46.13-.16.47,1.64,1.77,2.89,3.97,4.78,5.64,3.65,4.8,7.67,9.5,11.7,14.09.88.83,4.78,3.55,5.41,1.67,1.13,1.88,9.56.31,12.58.73,5.28,0,10.69.1,15.97,0,1.38-.1,3.52.42,4.53-.42.25,0,.38,0,.5-.21.25-.31.88-.31.75-.73.38.52,1.01.31.88,1.25,3.9-1.04,2.77-4.59,2.77-7.2.25-5.12-.13-10.23.25-15.35-.38-8.25,0-16.18-.25-24.32ZM356.69,86.78l-.07-.06s.05-.05.08-.08c0,.06,0,.09-.01.14ZM356.32,110.86c.1-.03.19,0,.28.02,0,.04,0,.08,0,.12-.07-.04-.16-.09-.28-.14ZM359.34,62.21s0,0,0,0c0-.01,0-.03,0-.04,0,.02,0,.03,0,.04ZM356.87,112.03c-.05-.03-.09-.05-.17-.08.13-.04.24,0,.34.04-.06,0-.12.02-.17.04ZM357.45,111.9c-.11.09-.04.25-.19.14.08,0,.15-.08.19-.31,0,.06,0,.11.02.16,0,0-.01,0-.02.01ZM357.2,111.42c.14-.04.23-.1.29-.16.07.03.13.07.2.11-.21.19-.4.31-.49.04ZM358.38,89.79s-.1-.06-.17-.08c-.05-.07-.08-.13-.1-.18.06.05.12.08.22.04,0,0,.13,0,.13.1-.02.05-.05.08-.08.12ZM358.85,110.55s-.05-.09-.08-.13c.04-.03.08-.07.12-.11.05.03.1.07.14.11-.06.04-.12.08-.18.12ZM359.21,88.97c-.08-.07-.15-.14-.19-.21.06-.01.12-.01.18,0-.02.07-.01.14.01.21,0,0,0,0,0,0ZM359.43,112.1s-.05.03-.09.05c0-.12-.01-.25-.06-.38.07,0,.16,0,.25,0,0,.09-.03.2-.1.32ZM360.41,127.44s0-.09,0-.14c.14-.03.26-.08.39-.15-.01.1-.05.19-.09.28-.09,0-.19,0-.29,0ZM360.97,129.06c-.13,0-.13-.1-.25-.21h.13c-.03-.06-.05-.11-.06-.17.07,0,.14,0,.21,0-.04.12-.07.25-.03.38ZM361.23,89.67c-.25.21,0,.31,0,.42l.25-.21c.02.08.06.17.09.25-.07.15-.04.5.03.62-.02.01-.02.03-.03.04-.2-.12-.1-.4-.22-.5q0,.1-.13.21c-.08-.17-.11-.26-.13-.31,0-.02,0-.04,0-.07.09-.38-.09-.76-.38-1.05,0-.01,0-.02,0-.03.03-.14.03-.28,0-.42.44-.36.56-1.18.76-.17.13.31-.13.21-.38.21-.12.31.86.21.63-.2,0,0,.02,0,.02,0,.04,0,.07,0,.09,0-.03.34-.25.28-.37.68-.38-.52-.38.31-.25.52ZM371.79,56.68s.03.04.05.07c-.02,0-.05,0-.08,0,0-.02.02-.04.03-.07ZM371.54,58.35c-.03-.1-.03-.19-.01-.28.06.1.11.21.14.32.2-.41.32-.31.42-.44.03.03.06.05.08.09.02.04.02.07.03.11-.2.22-.65.43-.4.77,0,.02,0,.02,0,.04-.1,0-.19,0-.24-.08-.13-.1-.25-.21-.25-.1,0,.14.02.24.05.31-.12-.06-.17-.12-.23-.15.03-.08.05-.16.05-.27,0-.21.63,0,.38-.31ZM371.71,63.26c-.02-.12,0-.25.09-.39.13,0,.21.1.12.42-.07-.03-.14-.04-.21-.03ZM371.86,72.54c0,.06,0,.12-.01.19-.24-.1-.22.13-.27.21-.02-.1-.01-.22-.01-.33.09-.06.19-.08.29-.07ZM371.53,61.27c.06-.04.14-.08.18-.13.07.15.24.19.34.35-.25.1-.43-.05-.52-.22ZM371.29,72.03c-.24-.2.07-.84-.3-.66-.03,0-.05,0-.08,0,0-.06-.02-.12-.02-.17.28-.07.6.11.41.35.04.1.1.15.16.18-.03.1-.08.2-.16.3ZM371.41,88.56c-.12-.03-.21-.03-.29-.01.06-.04.15-.07.24-.1.02.04.04.07.05.11ZM370.81,66.54s.06,0,.1,0c-.01.03-.02.04-.03.06-.03-.02-.05-.03-.07-.05ZM371.41,60.69c-.07-.06-.1-.08-.2-.08-.04-.04-.07-.11-.11-.17.21-.15.36-.3.4-.57.26.19.22.63.04.79-.05-.01-.11,0-.14.02ZM371.15,56.98c-.12.32.07.6.26.89-.12.55-.25-.04-.37-.14q-.13.1,0,.31c-.25-.1-.25-.21-.38-.21-.35-.1-.16-.2-.13-.38,0,0,0,0,0,0,.24-.2.02-.6.58-.53.01.02.02.04.03.06ZM370.53,99.17s-.03,0-.05,0c0-.02.02-.03.02-.05,0,.02.01.04.02.05ZM370.35,99.39c.13.15.18.34.11.51-.06-.09-.14-.17-.31-.17,0-.08.1-.21.2-.34ZM370.25,99.1s.02,0,.03,0c0,.01,0,.02,0,.03-.01,0-.02-.02-.03-.03ZM370.28,98.9c.02-.06.05-.1.07-.14.07.01.09.08.1.17-.04-.02-.1-.03-.18-.03ZM370.16,56.37c.25-.21,0-.63.63-.52-.16.34.04.63.24.94-.49.03-.97.07-1.25.04l.25.21c-.13,0-.25.1-.38.1,0-.29-.11-.39-.42-.33.27-.18.46-.37.92-.44ZM370.11,72.62c.06,0,.1.02.12.05-.11.18-.3.53-.32.7,0,0-.01.01-.01.02,0-.18-.08-.33-.13-.48.15,0,.25-.17.33-.28ZM369.89,65.29c.08,0,.16.05.25.09-.1,0-.22-.03-.25-.09ZM369.65,58.56s-.03,0-.04,0c0-.02,0-.03,0-.05.02.01.03.03.04.04ZM369.48,96.93s-.04.06-.08.09c-.01-.02-.01-.04-.02-.06,0-.03.02-.05.02-.09.03.02.06.04.08.05ZM369.4,57.04c-.19-.06-.27-.02-.32.07-.04-.04-.1-.07-.17-.1.02-.02.04-.03.06-.04,0,0,.01,0,.02-.01.1-.04.23-.02.41.09ZM369.05,58.49s.04-.11.01-.17c.1.09.17.16-.01.17ZM366.63,56.06c.25.1.63.21,1.01,0,.25-.21.5.21.75.31,0-.31.13-.73.63-.42-.63-.21-.13.73-.75.52-.25,0-.5.21-.63-.1-.58-.1-.52.08-.71.44-.12,0-.24,0-.35-.01-.08-.25-.16-.49.06-.74ZM366.76,57.35c0,.52-.25.31-.63.31-.02.01-.04.01-.05.02-.09-.01-.2-.03-.31-.05,0,0,0,0,0,0,.12-.1.24-.1.37-.1-.04-.07-.08-.13-.11-.18.07-.05.11-.07.15-.08.07.05.15.1.22.13.07.05.17.07.37-.05ZM366.78,58.99c-.07.03-.15.08-.26.13,0,0,0,0,0,0,.3-.34.1-.33-.19-.37-.02-.03-.06-.05-.12-.07.1-.05.2-.07.3-.07-.07-.11-.12-.18-.16-.25.04-.02.07-.04.11-.07.06.05.14.1.21.15-.09.11.04.28.35.45-.13,0-.13.1-.25.1,0,0,.01,0,.02,0ZM366.54,88.34s0,0,0,.01c-.01,0-.02,0-.03,0,.01,0,.02,0,.03,0ZM366.38,66.83c-.06-.01-.11-.03-.12-.07.05.02.08.04.12.07ZM365.79,58.54s-.1-.03-.16-.05c-.02-.02-.03-.03-.05-.05.04,0,.09-.02.14-.02.02.04.05.08.07.12ZM365.63,56.26c.38-.31.25.31.75,0,0,.52-.25.31-.63.31-.38.21-.63-.31-.13-.31ZM364.87,56.47c.06.1.06.19.06.29-.09,0-.19.01-.28.02-.01-.03-.02-.06-.03-.09.13,0,.13-.1.25-.21ZM364.87,57.11c-.07-.06-.14-.14-.19-.24.1,0,.18.06.19.24ZM364.5,56.06c0,.52.13.31-.63.1.13-.31.63-.63.63-.1ZM363.83,57.48s0,.02,0,.03c-.17-.08-.26.02-.33.13-.11-.03-.15-.08-.15-.14.02-.04.03-.09.03-.13.03-.06.07-.12.12-.18.14.08.24.17.33.3ZM362.6,88.91c-.02-.17-.13-.17-.25-.07-.07-.11-.07-.2-.04-.27.12-.02.23-.11.3-.11.04,0,.05.01.08.02-.03.02-.04.03-.08.05.1.08.18.12.26.14-.05.07-.15.15-.26.24ZM363.24,55.95c.13.21.38.52.13.63-.63,0-.38-.31-.13-.63ZM363.26,88.67s-.08-.08-.09-.1c.02-.02.04-.03.07-.05,0,.06.02.1.02.15ZM363.42,126.23s-.04,0-.06-.02c.02,0,.05-.02.08-.03,0,.02-.02.04-.03.05ZM363.7,89.14c-.15-.03-.31-.06-.46-.06-.25,0-.38-.1-.13-.21.08,0,.17.03.26.07.07.07.16.11.29.09.09.02.16.01.2-.06,0,0,0,0,0,0,.04-.01.08-.02.12-.04-.03.09-.15.15-.29.2ZM364.62,117.75c-.5-.14-.34-.5-.36-.8.03-.04.07-.07.11-.1.14-.02.25,0,.35.06-.06.07-.02.14.15.21.25.21.13.94-.25.63ZM364.12,88.94c.25-.1.38-.31.63-.31-.25,1.25,0,.31-.63.31ZM366.51,92.13c-.09-.12-.13-.27,0-.37,0,.15.09.23.2.3-.07.07-.14.09-.2.08ZM366.26,89.15s0,.06,0,.08c-.02,0-.05.02-.07.03-.09-.13-.26-.56-.42-.63-.45.11-.93-.06-1.42-.24.01-.01.03-.02.04-.03.25-.21.63-.21,1.01-.31.2-.24.24-.04.37.16-.25.11-.38.27,0,.43.29.12.45-.04.46-.21.23-.02.28.2.55.1.04,0,.08,0,.12,0-.25.31-.75.1-.63.63ZM366.63,64.41c.2-.04.24-.1.22-.17.08.03.16.06.16.11.01.03.02.05.04.08-.11.06-.25.07-.41-.01ZM366.89,61.58v-.18s.07.02.13.02v.1s-.09.04-.13.06ZM366.89,59.6c-.06-.07-.1-.12-.14-.18.05-.03.1-.05.14-.09.03-.12.06-.21.08-.27.2.14.03.38-.08.55ZM366.88,58.51c.06,0,.11-.03.13-.11.09-.29-.12-.57-.14-.86.08.11.21.19.39.19.05.04.06.08.07.11-.01.02-.03.05-.04.07-.01,0-.01.02-.04.02-.31.05-.25.13-.1.22-.05.18,0,.41.16.55-.07,0-.14,0-.19-.03-.25.07-.22-.04-.25-.16ZM367.26,60.65v.04s-.03-.04-.05-.06c.02,0,.03,0,.05.02ZM367.14,88.73c.38-.21.13.42.5.42v-.37s.06.11.2.26c.08.29-.51.2-.71-.3ZM367.64,88.77v-.04s0,.01.01.02c0,0-.01.01-.01.02ZM367.77,126.3c-.06,0-.13-.02-.2-.04.01-.04.02-.08.04-.13.08,0,.17,0,.25,0-.02.06-.06.12-.1.17ZM368.02,88.21c-.25.21-.13-.21-.63.1l.25.21c-.25,0-.5,0-.5-.21,0-.01-.01-.02-.02-.02.01-.05.02-.12.02-.25.47,0,.4.26.89.05,0,.04,0,.07-.01.12ZM368.02,58.25s-.03,0-.05.01c-.04-.03,0-.05.08-.06,0,.02-.01.04-.03.05ZM368.02,57.45s-.07,0-.1-.01c.01-.07-.04-.15-.17-.2.09-.02.18-.05.27-.1-.06.29.24.21.49.12.06.05.12.1.19.14-.02,0-.02,0-.04,0-.18-.07-.17.06-.24.18-.16.04-.31.07-.39-.14ZM368.23,125.7c-.01-.1,0-.16.04-.19.09.04.18.13.26.32-.08-.07-.19-.11-.3-.13ZM368.7,98.36c-.18.04-.24.11-.42-.12.16.05.33,0,.49-.08,0,.09-.03.15-.07.19ZM368.4,78.02s-.03,0-.05,0c.01-.03.03-.06.05-.08.06.02.13.02.25-.01.12.14.22.31.31.49-.05.01-.11.03-.15.04-.03-.2-.09-.38-.41-.43ZM369,98.52s-.04-.11-.06-.15c.4-.16.7.28.82-.37.04,0,.07,0,.1,0,.01,0,.02.02.03.03-.02.39-.38.4-.75.5-.05,0-.1-.01-.15-.02ZM369.88,98.44s0,.09.02.14c.02.04.02.06.02.09-.04-.02-.09-.03-.15-.03,0-.05.04-.13.1-.21ZM369.78,99.17s0,0,.01,0c.16-.02.32.03.44.11-.05.1-.13.17-.24.22-.08-.11-.17-.22-.21-.33ZM370.41,102.51c0-.36-.09-.25-.36-.35.04-.06.08-.1.11-.13.13,0,.13.1.25.21.11-.18.02-.36-.25-.47,0-.04,0-.08-.03-.11.14-.09.24-.1.32-.07.14.36.35.76-.04.92ZM370.86,100.93s-.04.01-.07.01c-.1,0-.18.01-.24.03,0-.1-.05-.2-.11-.29.08,0,.19-.04.34-.15.09.12.12.26.08.4ZM371.26,101.52s.02-.01.02-.02c0,.02.02.04.03.06-.02-.01-.03-.03-.05-.04ZM371.56,98.71c-.22-.19-.73-.37-.53.04-.21,0-.26-.19-.25-.4.11-.08.18-.17.12-.39.38.21.38.42.63,0,.11.09.23.3.28.46-.05.04-.1.08-.16.13.04.06.1.09.16.11-.03.02-.08,0-.16-.07-.04.05-.08.09-.1.13ZM371.86,100.96c-.04-.07-.05-.13-.05-.18.09.03.12.11.05.18ZM372.1,84.51c.03.12,0,.19-.06.22-.04-.04-.08-.09-.12-.14.07-.04.13-.06.18-.09ZM371.99,98.29c-.02-.06.04-.07.14-.08-.04.02-.09.04-.14.08ZM372.13,62.57c.06-.04.13-.07.2-.1.03.03.06.06.09.1-.11.05-.21.04-.29,0ZM376.44,69.25s0,0,0,0c0,0,0,0,0,0,0,0,0,0,0,0ZM376.19,88.55c.04.12.05.23,0,.31-.09-.06-.19-.11-.24-.23.03-.11.12-.12.25-.08ZM374.68,57.31s.04-.07.06-.1c.34.22.62.48.7.87.15.31.38.59.55.9-.12.04-.28.17-.43.1.26-.36-.25-.47-.56-.65.02-.02.03-.03.06-.05.13-.1.13-.21,0-.31-.07-.03-.13-.08-.19-.12.02-.1.01-.2-.07-.34-.06.09-.11.14-.16.15-.05-.05-.11-.11-.15-.16,0-.1.05-.22.19-.3ZM375.47,59.57c.09-.09.11-.18.22-.28l.25.52s0,0-.01.01c-.11-.1-.3-.18-.46-.26ZM375.75,60.03s-.07.04-.1.06c.01-.05.03-.1.05-.13.03.02.04.05.06.07ZM375.44,59.55c-.1-.05-.18-.1-.22-.17,0-.11,0-.22.02-.31.01-.04.04-.08.04-.11.01-.03.02-.07.03-.09.24.2.14.4.13.68ZM374.79,60.78s-.09-.08-.14-.11c.08-.03.13.01.14.11ZM373.84,98.15c-.07.04-.13.07-.16.07-.13,0-.13.1-.13.1.25.29.22.48.1.65-.03-.03-.05-.07-.1-.09-.16-.05-.33-.17-.49-.26.07,0,.09-.09,0-.26.22.09.49.04.49-.31-.1,0-.19.06-.22.08.03-.11-.01-.23-.12-.3.21-.02.22-.21.22-.3.25-.31.13.31.5.21.09.15-.13.3-.09.41ZM373.93,69.04h.06s-.04.01-.05.02c0,0,0-.01,0-.02ZM374.04,100.05c-.08.12-.21.23-.34.36,0,0-.02,0-.02,0,.07-.22.21-.32.36-.37ZM373.4,59.86s-.07-.08-.11-.12c0-.03,0-.07,0-.1.05.01.11.03.16.04-.03.07-.02.15-.06.18ZM373.3,58.46c-.23,0-.23.15-.25.25,0,0,0,0,0,0-.02.03-.05.05-.08.07-.01,0-.03,0-.05-.01-.13-.52.63-.94.38-.31ZM372.73,97.31c.17.05.34.02.41-.16.06.03.12.09.16.18-.11.19-.22.3-.14.48-.15-.05-.3-.15-.45-.24-.02-.1-.02-.19.02-.26ZM372.53,101.65c0-.06.01-.11.01-.14.05,0,.13,0,.22,0-.07.03-.15.08-.23.13ZM373.78,101.98s0-.06.03-.1c0-.1-.63-.31-.75-.31-.02-.02-.04-.03-.06-.05.32,0,.6-.02.19-.22.2,0,.53.09.73.23,0,.01,0,.02.02.04h.03c.14.12.18.28-.03.46-.04-.01-.1-.03-.15-.05ZM374.33,102.55c-.14-.05-.27-.1-.41-.15.21-.11.41-.04.62.03,0,0,0,0,.01,0-.06.05-.16.08-.22.11ZM374.12,101.4s.02-.04.03-.06c.01,0,.01.02.03.02-.02.02-.04.02-.06.04ZM374.51,86.03c0,.15.02.31.03.45-.12-.18-.21-.34-.03-.45ZM374.68,68c-.25-.1-.13.31-.13.42-.38.21-.25-.1-.38-.31-.5.1.13.63-.25.73-.15-.06-.29-.2-.33-.35,0,0,0,0,0,0-.02-.09-.02-.19.08-.27,0-.02.01-.04.01-.06.06.49.35.65.24-.09.08.02.18,0,.29-.02,0,.05.04.05.11-.03.2-.05.38-.1.46,0-.02,0-.05.01-.1,0ZM373.77,63.8s.1.05.16.12c0,.02-.01.03-.02.05-.06-.02-.1-.12-.14-.18ZM373.93,67.36c.01-.09.12-.1.12-.1.04.03.08.05.12.06,0,0,0,0,0,0-.15.08-.21.07-.25.03ZM374.99,62.7c-.17-.14-.28-.02-.44-.01,0-.02,0-.04,0-.06.25,0,.38-.21.5-.31.13-.31-.5-.31-.38-.63-.25-.31-.38,0-.63-.1,0,0,0,0,0,0,.18-.07.25-.22.25-.37-.38.1-.5-.31-.75-.52.86.31.64-.48.75-.9.04.02.08.02.11.03.15.09.17.24.16.38-.04-.01-.09-.03-.14-.06-.13.21-.13.63,0,.73.03-.04.06-.06.09-.09.08.08.19.12.27.13,0,.18-.06.4-.11.48.03-.01.05-.02.07-.03-.06.22-.05.51.05.59.26-.32.35-.23.36-.04-.06,0-.03.06,0,.08,0,.17-.06.39-.11.47.17-.09.29-.06.37.04-.02.26-.14.41-.37.13-.03.02-.05.05-.07.07ZM375.24,71.18c.08-.03.19-.05.33-.05-.13-.1-.5-.21-.25-.31.2.08.4.22.65.28-.12.06-.32-.01-.4.2-.07.25-.23.09-.33-.12ZM375.38,102.88c.13-.33.41-.21.41.04-.14,0-.27-.02-.41-.04ZM376.01,101.04s.04.02.06.04c0,.02,0,.05,0,.07-.05,0-.1-.01-.15-.01.03-.03.06-.06.09-.09ZM376.07,102.3c-.13-.21-.25-.42,0-.63,0,.1,0,.21.13.31l.02-.02s.07.07.1.1c-.05.09-.17.16-.25.23ZM376.19,92.63c.1.03.21.04.31.04,0,.02.02.04.02.06-.18.04-.33.1-.33-.11ZM382.48,57.73v.2s-.03.05-.04.07c-.03-.03-.07-.05-.1-.07.04-.04.09-.1.14-.21,0,0,0,0,0,0ZM382.41,56.81c-.12,0-.23.02-.3.02-.04.01-.1.02-.15.03-.03-.02-.07-.05-.11-.07.1-.24.42-.17.56.02ZM381.22,102.03c-.04.18.02.34.11.49-.12,0-.24.1-.24.1.29,0,.13.13.1.28-.06-.05-.13-.1-.23-.14.1-.13,0-.19-.15-.26-.02-.18-.01-.37.15-.3,0-.04,0-.07-.01-.1.05.03.13.02.26-.07ZM380.72,101.4c.2-.05.16.23.16.46-.03-.04-.07-.08-.12-.11.02-.11-.13-.21-.04-.36ZM378.86,90.77c-.49.08-.65.09-.76-.07.13-.38.5-.14.76.07ZM378.38,96.04s-.02.04-.03.05c0,0-.01,0-.02,0,.02-.02.03-.02.05-.04ZM377.79,90.23s0,.03,0,.05c-.05.09-.09.16-.14.2-.12-.07-.26-.24-.31-.4.17.1.33.16.44.15ZM376.87,70.1s.04,0,.07-.02c0,.09.09.19.11.28,0,0-.01.02-.02.02-.05,0-.11-.02-.19-.05.02-.08.03-.16.02-.24ZM376.96,103.5s-.01,0-.01,0c0,0,.01,0,.02,0,0,0,0,0,0,.02ZM377.58,99.68s0,0,0,0c-.13,0-.13-.1-.25-.21-.13.31.25.52.13.83-.24.04-.35-.06-.41-.22.03-.04.07-.09.16-.16-.21-.26.01-.51.31-.6.09.03.13.08.1.23-.05,0-.1-.02-.15-.05.06.05.1.11.13.16ZM377.65,97.32s-.03.01-.05.02c.03-.06.05-.13.08-.2.3-.11.65-.05.88-.29.08.09.08.24.13.37-.11.05-.32,0-.63.02-.06-.11-.27-.06-.4.08ZM378.58,99.9c-.21-.09-.17.04-.29.15.08-.15.2-.33.28-.48.14,0,.23.11.02.33ZM378.83,98.75c.24.3.13.69-.44.35.04-.22.25-.5.07-.72,0-.11-.1-.13-.22-.1-.02-.04-.06-.07-.16-.05,0,0-.01-.02-.02-.02.11-.26.25-.54.52-.77,0,.21,0,.31.13.42.33,0,.28.24.35.45-.17.13-.39.17-.23.45ZM378.96,90.75s0-.1,0-.15c.06.04.11.06.17.08,0,.01.01.02.02.04-.07.01-.13.02-.19.03ZM380.97,126c0,.21-.12.31-.38.21,0,0,0,0,0,0,.16-.27.45-.41.7-.41.15.46.33,1.1-.32.2ZM381.85,103.34c-.25.1-.38-.1-.13-.21-.37-.1-.38-.3-.38-.6.16.23.41.44.58.69-.03.03-.06.06-.08.12ZM382.35,60.81c-.12-.08-.3-.13-.41-.17.08,0,.17,0,.3.05-.08-.13-.12-.25-.15-.37.05-.03.08-.05.15-.09.06.1.12.3.2.45-.03.04-.05.08-.08.12ZM382.49,59.42c-.12.04-.19-.03-.11-.27.11.01.23.04.35-.07l-.24.34ZM384.42,56.87c-.16-.14-.26-.27-.05-.39.35.07.52.2.63.38-.19.01-.39.02-.58.02ZM385.5,58.35c.05-.08.08-.1.11-.11.16.14-.09.4-.31.37.14-.05.26-.1.2-.26ZM385.75,62.78c-.09,0,0,.24-.02.42-.05.02-.1.03-.14.03-.07-.23-.22-.43-.13-.58.15,0,.25-.02.22-.16.02,0,.04-.02.06-.03q.13.1,0,.31ZM388.28,70.46c-.09-.05-.19-.16-.26-.32.09-.12.31-.22.5-.27.12.2-.21.31-.24.59ZM388.82,58.98s.05-.01.07-.02c0,0,0,.01.01.02-.02,0-.05,0-.08,0ZM389.72,60.57s-.05-.06-.07-.09c.03-.05.06-.07.09-.09,0,.06-.01.12-.02.18ZM389.9,56.72c-.13.04-.21.09-.26.15-.11-.14-.13-.39.14-.5.23,0,.25.18.25.37-.04,0-.08-.02-.12-.02ZM391.13,57.04s.13-.08.28-.11c0,0,0,0,0,0-.1.06-.19.09-.28.11ZM395.12,56.87c-.11,0-.21-.02-.32-.03.06-.71.47-.55.32.03ZM432.54,108.15s-.03-.05-.05-.08c.02-.06.05-.11.05-.19,0,0,0,.01,0,.02,0,.08.01.17,0,.26ZM432.79,128.54q.25-.31,0-.31c.08-.07.12-.14.14-.21.1.11.22.2.37.28-.11.14-.37.24-.51.24ZM434.8,66.12s-.03,0-.04,0c-.08-.16-.19-.28-.37-.25.03-.05.07-.1.1-.14.12.05.26.14.41.26-.03.04-.06.09-.1.12ZM455.92,119.15c.05-.06.14,0,.26.31-.12.05-.12.1-.08.15-.09-.16-.15-.33-.17-.46ZM456.23,119.81c-.04-.06-.08-.13-.12-.19.05.05.14.1.2.15-.03.02-.05.03-.08.04ZM456.38,119.99s.1-.03.18,0c.04.06.06.13.09.19-.08-.02-.18-.09-.27-.19ZM461.62,64.91s0-.01-.01-.02c0,0,0,0,0-.01.01,0,.02.01.03.02,0,0-.02,0-.03.01ZM466.75,127.81s-.06-.03-.09-.04c.1-.05.21-.1.3-.16-.05.08-.11.15-.2.2Z"/><path class="cls-1" d="M595.24,127.19c.4-1.46-4.56-4.56-12.78-11.01-6.92-5.22-18.49-14.2-27.04-20.88-.94-.51-1.61-1.05-2-1.62-.02-.85.57-1.74,1.87-2.62,2.39-2.4,5.41-4.38,7.92-6.68l9.18-7.62c.76-.52,1.51-1.04,2.14-1.77,0-.21.25-.21.25-.21.5,0,.88-.52.5-.94.38,0,.38.31.63.1.63-.63,1.38-.94,1.89-1.57,2.77-2.09,5.28-4.49,8.18-6.58-.25-.1-.38-.21-.5-.21,1.13-.1,1.89-.94,2.64-1.67-.25.1-.25-.21,0-.21,1.89-.84,3.27-2.71,4.9-3.97-.5-.1-.38-.1.13-.21.5,0,.13-.31.63-.31-.88-.52.63-.42.13-.52-.25,0-.38,0-.5-.21.5-.31.38-.1.75-.21-.12-.31.13-.63.13-.1,1.39-.6,1.18-.99-.02-1.26,5.12-2.67-24.67-.98-26.77-1.49-12.07,0-15.47-1.67-23.9,6.89-7.55,6.26-14.97,12.63-22.64,18.58-.87.72-1.41.67-1.74.19-.33-1.9.03-5.08-.27-5.89.13-4.91,0-9.81,0-14.72.1-.98-.04-1.85-.44-2.54-.32-1.72-1.65-2.84-4.34-2.51h-10.82c-4.28-.21-8.55,0-12.83,0-2.01.1-10.19-.63-9.18,1.77-1.26,1.25-.13,2.92-.63,4.38,0,1.25,0,2.61.13,3.76-.25.73.38,1.25.13,1.98-.5.1,0,2.09-.38,2.71.38.42,0,1.04.38,1.46.12.1,0,.21-.13.42-.25.63,0,1.46,0,2.19-.1.24.1.24.32.27,0,.03,0,.06,0,.09-.94.23-.09,1.46-.33,2.15,0,.21.38.21.13.31-.38,1.98-.25,4.38-.13,6.47-.38,1.88,0,4.18,0,6.16-.25.42.63.21.13.63-.25,0-.25.21-.13.31.13,6.47-.5,14.41,0,19.94.11-.02.21-.05.3-.07,0,.05,0,.1,0,.15-.13-.01-.27-.01-.44.02-.13.1-.13.63.25.73.12-.05.18,0,.24.08,0,.05,0,.11.01.17.03,0,.06-.01.09-.02.02.03.05.06.08.09-.09,0-.19,0-.29.03,0,0,0,.03-.02.03,0-.02,0-.05.01-.07.13-.1,0-.21-.12-.1-.25.1-.13.31,0,.42.04.03.05.05.06.08,0,.02.01.03.02.05,0,.19-.63.27-.2,1.23-.13.31.25,0,.25.31,0,0,0,.01.02.02-.03.11-.04.24,0,.42-.12.08-.27.16-.27.3-.13,1.67-.25,3.24,0,4.91,0,.67-.41,1.69.3,1.76,0,.04,0,.07-.01.11-.21.05-.41.01-.41.32.29,1.71-.4,4,.48,5.57.16.89.57,1.68,1.53,2.2,5.79.63,11.82.21,17.61.31,25.53,0,16.98,2.82,18.74-21.5-.63-7.83,9.31,3.34,12.07,4.7,6.79,5.22,13.21,10.96,20.37,15.87,2.89,1.46,6.67.83,9.94.83,5.41.31,10.94,0,16.35.1,14.65.12,19.36.25,17.43-2.29ZM592.35,58.55s.16-.04.35-.08c.2-.02.42-.04.58.02.13.1-.13.31-.13.21-.25-.1-.25.21-.38.21-.13-.1-.13-.21-.13-.42-.02.06-.07.1-.11.15-.14-.03-.2-.05-.21-.07,0,0,.01-.01.02-.02ZM586.99,55.64c.25,0-.13.31-.13.1-.5,0-1.63.42-1.63,0,.63,0,1.26-.1,1.76-.1ZM576.04,57.56s.05-.02.07-.03c.2.01.47.04.64.09-.27.02-.57.02-.71-.06ZM576.42,56.37c1.26,0-.38.31-.75.1.25-.1.38-.21.75-.1ZM572.85,65.59s.1-.06.18-.1c0,0,.01.01.02.02-.06.03-.13.05-.19.08ZM573.11,66.72s-.06.02-.08.03v-.04s.06,0,.08.01ZM574.86,56.57c-.32,0-.64.01-.95.02.18-.08.54-.13.95-.02ZM572.92,75.04c.11-.08.22-.17.32-.25-.07.26-.23.56-.32.25ZM573.12,56.59c-.25,0-.49,0-.72,0,.1-.09.46-.11.72,0ZM562.46,79.65s-.04-.02-.07-.02c.03-.22.06-.45.2-.56.16,0,.33-.04.53-.01.02.5-.04,1.03-.66.6ZM564.1,79.44c.03-.06.01-.11-.02-.16.12.02.22.02.27-.01.09.1.22.13.35.13-.03.01-.05.03-.09.04.63,0,.75.83.13.52-.25-.31-.63-.1-.88-.1,0,0,0,0,0,0,.26-.2.2-.36-.11-.33.04-.15.16-.26.37-.09ZM562.96,55.95c.5-.21.38.21.76.31-.25.21-1.26,0-.76-.31ZM562.21,77.98c.11,0,.21-.02.33-.02.09.04.12.11.05.27h-.13c-.09-.08-.22-.08-.35-.08.03-.07.05-.13.1-.17ZM561.83,79.17c.59,0,.26.25.09.51-.05-.01-.09-.05-.09-.13,0-.03-.01-.06-.02-.09.02-.09.03-.18.03-.28ZM561.78,78.16c-.09,0-.17-.03-.24-.07.13,0,.21.03.24.07ZM557.3,76.49s.07.05.13.06c-.08.07-.2.09-.3.08-.04-.02-.07-.06-.07-.12.09-.03.17-.03.25-.02ZM555.47,75.1c0,.1-.02.19-.07.27-.07-.07-.11-.16-.11-.32.07.02.13.03.18.05ZM481.12,68.84c-.05.02-.1.04-.16.06.08-.12.15-.21.21-.3-.03.07-.05.14-.06.24ZM481.34,68.41s-.07.05-.1.08c.06-.09.1-.18.14-.27,0,.06-.02.12-.04.19ZM481.69,111.64c-.07-.02-.14-.04-.23-.04,0-.04,0-.09,0-.13.09-.02.17-.04.24-.06.02.07.03.15,0,.23ZM485.53,113.6c-.1-.04-.17-.1-.22-.18.14-.11.38-.18.68-.02-.11.1-.33.11-.46.19ZM488.38,90.34c.35-.19.06-.47.51-.43-.11.07-.21.26-.26.7-.08-.13-.2-.17-.35-.19.03-.03.06-.06.1-.08ZM488.65,91.5c.08-.32-.23-.88.37-.78.23.06.23.17.25.29-.06.05-.11.14-.16.29-.13.07-.1.21-.09.4-.08-.13-.21-.18-.36-.19ZM489.39,92.46c-.05-.05-.1-.1-.13-.18-.05-.13-.15-.19-.25-.25,0-.06.02-.11.05-.15.09.08.29.04.5,0,.12.11.01.27.21.44-.25,0-.35.05-.38.14ZM489.15,89.9c.1-.27.17-.56.49-.29.12-.1.13-.19.24-.2-.07,1.04-.41.62-.73.5ZM493.36,75.36s.03-.04.05-.06c.08.07.13.15.18.23-.06.07-.15.03-.23-.17ZM496.35,113.83c-.21.03-.33-.05-.37-.16.08-.03.15-.06.2-.1.21-.12.19.06.17.26ZM498.7,65.24c-.05-.08-.09-.15-.12-.21.06.03.12.06.17.07-.01.04-.03.08-.04.14ZM513.16,63.4c-.06.16-.06.34-.03.5-.08,0-.2-.04-.35-.11.06-.23.27-.45.63-.5.13.31-.13.52-.25.1ZM533.16,93c.09-.1.19-.2.28-.28.05.12.05.26.02.4-.08,0-.18,0-.27,0-.01-.04-.03-.08-.03-.12ZM534.16,99.38c-.3.06-.77-.03-.95-.15.2-.05.41-.13.57-.33v.1c.08.07.24.08.41.08,0,.12,0,.24-.03.3ZM535.19,96.7c-.14-.03-.29-.06-.44-.08.1-.04.21-.08.32-.11.12.04.23.08.33.13-.07.02-.13.04-.21.05ZM535.92,92.82s.08-.07.13-.1c.07-.02.15-.02.25,0-.03.08-.07.24-.13.37-.07.04-.14.05-.24-.03-.04-.1-.03-.17,0-.23ZM536.05,94.37s-.09-.04-.12-.06c0,0,0,0,0,0,.05-.08.19-.24.36-.38.18.16-.12.26-.23.45ZM536.38,92.82s-.01-.07-.02-.09c.02,0,.04,0,.06,0-.02.03-.03.05-.05.08ZM536.77,94.01c-.06-.47-.09-.23-.18.02-.2-.05-.03-.26.22-.41.06,0,.1.04.1.13-.1.1-.04.2-.15.26ZM537.85,88.29c-.34-.26-.3-.33-.12-.33.15.07.17.17.12.33ZM539.07,88s-.07-.04-.1-.07c.04,0,.08.02.12.03-.01.01-.01.03-.03.04ZM576.07,114.57c-.31-.27-.12-.64.17-.6.08.22-.02.48-.17.6ZM579.31,114.41c-.13-.1-.38-.1-.38-.21-.05-.08-.14-.08-.24-.07-.05-.04-.1-.08-.15-.12,0,0,0,0,.01-.02.5-.42.5.21,1.01.31,0,0-.13.1-.25.1Z"/></svg>