<?xml version="1.0" encoding="UTF-8"?>
<svg xmlns="http://www.w3.org/2000/svg" xmlns:xlink="http://www.w3.org/1999/xlink" id="volvo" viewBox="0 0 350.8 48.95">
  <defs>
    <style type="text/css">
    <![CDATA[
        .cls-1{fill:url(#linear-gradient);}
        .cls-2{fill:#bcbec0;}
        ]]>
        </style>
    <linearGradient id="linear-gradient" x1="175.4" y1="46.11" x2="175.4" y2="2.83" gradientUnits="userSpaceOnUse">
      <stop offset="64%" stop-color="#68696b"></stop>
      <stop offset="76%" stop-color="#646567"></stop>
      <stop offset="89%" stop-color="#58585a"></stop>
      <stop offset="1" stop-color="#48484a"></stop>
    </linearGradient>
  </defs>
  <g id="Layer_2" data-name="Layer 2">
    <g id="Background" fill="#222222">
      <path class="cls-1" d="M312.67,49H38.13A18.87,18.87,0,0,1,21.62,39.2L0,0H350.8L329.18,39.2A18.87,18.87,0,0,1,312.67,49Z"></path>
    </g>
    <g id="Volvo" fill="#7c7c7c">
      <path class="cls-2" d="M138.45,32.09A14.11,14.11,0,0,1,132.24,31a6.5,6.5,0,0,1-3.57-8.25,6.21,6.21,0,0,1,3.63-3.69,13.27,13.27,0,0,1,11.49.35,6,6,0,0,1,3.38,5.6,6.21,6.21,0,0,1-3.37,5.68A11.11,11.11,0,0,1,138.45,32.09ZM141,24.57a5.65,5.65,0,0,0-.94-3.16,2.67,2.67,0,0,0-4.46-.08,7.42,7.42,0,0,0-.31,7.1,2.75,2.75,0,0,0,5-.14A7.92,7.92,0,0,0,141,24.57Z"></path>
      <path class="cls-2" d="M256,32.1a13.1,13.1,0,0,1-6.18-1.27,6.46,6.46,0,0,1,.79-11.9,13.71,13.71,0,0,1,10.23.06,6.19,6.19,0,0,1,4.28,5.87,6.48,6.48,0,0,1-4.5,6.42A13.43,13.43,0,0,1,256,32.1Zm2.93-7.21a6.61,6.61,0,0,0-.72-3.13,2.68,2.68,0,0,0-4.81-.21,6.62,6.62,0,0,0-.11,6.94,2.67,2.67,0,0,0,4.79,0A7,7,0,0,0,258.88,24.89Z"></path>
      <path class="cls-2" d="M220,31.68h-7.2L206.63,20.4h-3v-2h13.25v2H213.7c1.49,2.75,2.93,5.4,4.45,8.18,1.48-2.75,2.9-5.41,4.38-8.17h-2.59v-2H229v2h-3Z"></path>
      <path class="cls-2" d="M102.08,31.68H94.89L88.72,20.4h-3v-2H98.94v2H95.79l4.45,8.18,4.38-8.15H102v-2h9.13v2h-3Z"></path>
      <path class="cls-2" d="M167.41,31.64v-2h3V20.41h-3V18.36h12.2v2h-3v9.16c.19,0,.37,0,.55,0,.74,0,1.49,0,2.24,0a4,4,0,0,0,4.28-3.83.91.91,0,0,1,0-.22h2v6.12Z"></path>
    </g>
  </g>
</svg>
