<?xml version="1.0" encoding="UTF-8"?>
<svg id="wifi" xmlns="http://www.w3.org/2000/svg" xmlns:xlink="http://www.w3.org/1999/xlink" viewBox="0 0 31.69 31.69">
  <defs>
    <style>
      .cls-1 {
        mask: url(#mask);
      }

      .cls-2 {
        fill: #dbdbdb;
      }

      .cls-3 {
        fill: #d9d9d9;
      }
    </style>
    <mask id="mask" x="-5.59" y="-7.46" width="44.75" height="44.75" maskUnits="userSpaceOnUse">
      <g id="mask0_82_8251">
        <rect id="Bounding_box" class="cls-3" x="-5.59" y="-7.46" width="44.75" height="44.75"/>
      </g>
    </mask>
  </defs>
  <g id="wifi">
    <g class="cls-1">
      <path id="rss_feed_2" class="cls-2" d="M3.73,31.69c-1.03,0-1.9-.37-2.63-1.1-.73-.73-1.1-1.61-1.1-2.63s.37-1.9,1.1-2.63c.73-.73,1.61-1.1,2.63-1.1s1.9.37,2.63,1.1c.73.73,1.1,1.61,1.1,2.63s-.37,1.9-1.1,2.63c-.73.73-1.61,1.1-2.63,1.1ZM26.1,31.69c0-3.64-.68-7.03-2.05-10.18-1.37-3.15-3.23-5.91-5.59-8.27-2.36-2.36-5.12-4.23-8.27-5.59-3.15-1.37-6.55-2.05-10.18-2.05V0c4.41,0,8.53.82,12.35,2.47,3.82,1.65,7.18,3.92,10.07,6.8,2.89,2.89,5.16,6.25,6.8,10.07,1.65,3.82,2.47,7.94,2.47,12.35h-5.59ZM14.92,31.69c0-2.08-.39-4.02-1.17-5.8-.78-1.79-1.85-3.36-3.22-4.73-1.37-1.37-2.94-2.44-4.73-3.22-1.79-.78-3.72-1.17-5.8-1.17v-5.59c2.86,0,5.52.54,7.99,1.61,2.47,1.07,4.64,2.54,6.5,4.4s3.33,4.03,4.4,6.5c1.07,2.47,1.61,5.13,1.61,7.99h-5.59Z"/>
    </g>
  </g>
</svg>