<svg id="phone" data-name="phone" fill="currentcolor" xmlns="http://www.w3.org/2000/svg" viewBox="0 0 113.23 195.98"><path d="M233.58,423q0-39.21,0-78.44c0-12.2,6.88-19.23,19.08-19.28q37.22-.13,74.44,0c12.77,0,19.53,7,19.53,19.91V501.54c0,12.46-6.87,19.5-19.4,19.54-24.81.08-49.63-.17-74.44.09-12.19.13-19.59-9.08-19.39-19.75C233.91,475.28,233.58,449.13,233.58,423ZM241,340.87V496.36h98.37V340.87ZM297.63,509a7.38,7.38,0,0,0-7-7.51c-4.42-.23-7.74,2.65-8,6.9a7.68,7.68,0,0,0,7.14,7.93A7.79,7.79,0,0,0,297.63,509Zm8.88-175.33,0-1.11H273.84l0,1.11Z" transform="translate(-233.41 -325.19)"/></svg>