<?xml version="1.0" encoding="utf-8"?>
<!-- Generator: Adobe Illustrator 19.0.0, SVG Export Plug-In . SVG Version: 6.00 Build 0)  -->
<svg version="1.1" id="settings" xmlns="http://www.w3.org/2000/svg" xmlns:xlink="http://www.w3.org/1999/xlink" x="0px" y="0px"
	 viewBox="0 0 512 512" style="enable-background:new 0 0 512 512;" xml:space="preserve">
<g id="XMLID_1_">
	<path id="XMLID_7_" d="M502.8,239.5l-32.1-5.5c-4.6-0.9-7.3-3.7-8.2-8.2c-0.9-3.7-0.9-8.2-1.8-11.9c-0.9-4.6,0.9-8.2,4.6-11
		l28.4-15.6c4.6-1.8,6.4-7.3,4.6-11.9l-4.6-13.7c-1.8-4.6-6.4-7.3-11.9-6.4l-32.1,6.4c-4.6,0.9-8.2-0.9-11-4.6
		c-1.8-3.7-3.7-6.4-5.5-10.1c-1.8-3.7-1.8-8.2,0.9-11.9l21.1-24.7c3.7-3.7,3.7-9.2,0-12.8l-9.2-11c-2.7-3.7-8.2-4.6-12.8-1.8
		l-27.5,16.5c-3.7,1.8-8.2,1.8-11.9-0.9c-2.7-2.7-6.4-5.5-9.2-7.3c-3.7-2.7-4.6-7.3-2.7-11l11.9-30.2c1.8-4.6,0-10.1-3.7-12.8
		l-12.8-7.3c-4.6-2.7-10.1-0.9-12.8,2.7L344.4,60c-2.7,2.7-6.4,4.6-10.1,2.7c0,0-6.4-2.7-11.9-4.6c-3.7-0.9-6.4-5.5-6.4-9.2
		l0.9-32.1c0-4.6-2.7-9.2-8.2-10.1l-15.6-2.7c-4.6-0.9-10.1,1.8-11,6.4l-11,30.2c-0.9,3.7-5.5,6.4-9.2,6.4c-1.8,0-3.7,0-6.4,0
		c-1.8,0-3.7,0-6.4,0c-4.6,0-8.2-2.7-9.2-6.4l-11-30.2c-1.8-4.6-6.4-7.3-11-6.4l-14.7,2.7c-4.6,0.9-8.2,5.5-8.2,10.1L196,49
		c0,4.6-2.7,8.2-6.4,9.2c-2.7,0.9-9.2,3.7-11.9,4.6c-3.7,0.9-7.3,0-11-3.7l-20.2-24.7c-2.7-3.7-8.2-5.5-12.8-2.7l-12.8,7.3
		c-4.6,2.7-6.4,8.2-3.7,12.8L129.1,82c1.8,3.7,0,8.2-2.7,11c-2.7,2.7-6.4,4.6-9.2,7.3s-8.2,3.7-11.9,0.9L77.9,84.7
		C73.3,82,67.8,82.9,65,86.6l-9.2,11c-2.7,3.7-2.7,9.2,0,12.8l21.1,24.7c2.7,2.7,2.7,8.2,0.9,11.9c-1.8,3.7-3.7,6.4-5.5,10.1
		c-1.8,3.7-6.4,5.5-11,4.6l-32.1-6.4c-4.6-0.9-10.1,1.8-11.9,6.4l-4.6,13.7c-1.8,4.6,0,10.1,4.6,11.9l28.4,15.6
		c3.7,1.8,5.5,6.4,4.6,11c-0.9,3.7-1.8,7.3-1.8,11.9c-0.9,4.6-3.7,7.3-8.2,8.2l-32.1,5.5c-4.6,0.9-8.2,4.6-8.2,10.1v14.7
		c0,4.6,3.7,9.2,8.2,10.1l32.1,5.5c4.6,0.9,7.3,3.7,8.2,8.2c0.9,3.7,0.9,8.2,1.8,11.9c0.9,4.6-0.9,8.2-4.6,11l-28.4,15.6
		c-4.6,1.8-6.4,7.3-4.6,11.9l4.6,13.7c1.8,4.6,6.4,7.3,11.9,6.4l32.1-6.4c4.6-0.9,8.2,0.9,11,4.6c1.8,3.7,3.7,6.4,5.5,10.1
		c1.8,3.7,1.8,8.2-0.9,11.9l-21.1,24.7c-3.7,3.7-3.7,9.2,0,12.8l9.2,11c2.7,3.7,8.2,4.6,12.8,1.8l27.5-16.5
		c3.7-1.8,8.2-1.8,11.9,0.9c2.7,2.7,6.4,5.5,9.2,7.3c3.7,2.7,4.6,7.3,2.7,11l-10.1,28.4c-1.8,4.6,0,10.1,3.7,12.8l12.8,7.3
		c4.6,2.7,10.1,0.9,12.8-2.7l20.2-25.6c2.7-2.7,6.4-4.6,10.1-2.7c4.6,1.8,7.3,2.7,11.9,4.6c3.7,0.9,6.4,5.5,6.4,9.2l-0.9,32.1
		c0,4.6,2.7,9.2,8.2,10.1l14.7,2.7c4.6,0.9,10.1-1.8,11-6.4l11-30.2c0.9-3.7,5.5-6.4,9.2-6.4c1.8,0,3.7,0,6.4,0c2.7,0,3.7,0,6.4,0
		c4.6,0,8.2,2.7,9.2,6.4l11,30.2c1.8,4.6,6.4,7.3,11,6.4l14.7-2.7c4.6-0.9,8.2-5.5,8.2-10.1L316,463c0-4.6,2.7-8.2,6.4-9.2
		c5.5-1.8,8.2-2.7,11.9-4.6c2.7-0.9,7.3-0.9,10.1,2.7l21.1,25.6c2.7,3.7,8.2,5.5,12.8,2.7l12.8-7.3c4.6-2.7,6.4-8.2,3.7-12.8
		L382.9,430c-1.8-3.7,0-8.2,2.7-11c2.7-2.7,6.4-4.6,9.2-7.3c2.7-2.7,8.2-3.7,11.9-0.9l27.5,16.5c4.6,2.7,10.1,1.8,12.8-1.8l9.2-11
		c2.7-3.7,2.7-9.2,0-12.8l-21.1-24.7c-2.7-2.7-2.7-8.2-0.9-11.9c1.8-3.7,3.7-6.4,5.5-10.1c1.8-3.7,6.4-5.5,11-4.6l32.1,6.4
		c4.6,0.9,10.1-1.8,11.9-6.4l4.6-13.7c1.8-4.6,0-10.1-4.6-11.9l-28.4-15.6c-3.7-1.8-5.5-6.4-4.6-11c0.9-3.7,1.8-7.3,1.8-11.9
		c0.9-4.6,3.7-7.3,8.2-8.2l32.1-5.5c4.6-0.9,8.2-4.6,8.2-10.1v-14.7C511.1,244.1,507.4,239.5,502.8,239.5z M165.8,379.6
		c-6.4,11-21.1,12.8-30.2,4.6c-33.9-32.1-55-77.9-55-128.2s21.1-95.3,55-127.3c9.2-9.2,23.8-6.4,30.2,4.6l68.7,118.2
		c1.8,2.7,1.8,6.4,0,10.1L165.8,379.6z M427.7,297.2c-18.3,77.9-87.9,135.6-171.3,135.6c-17.4,0-33.9-2.7-49.5-7.3
		c-11.9-3.7-17.4-17.4-11-28.4L263.8,278c1.8-2.7,4.6-4.6,8.2-4.6h136.5C421.3,273.4,430.5,285.3,427.7,297.2L427.7,297.2z
		 M408.5,238.6H271.1c-3.7,0-6.4-1.8-8.2-4.6l-68.7-118.2c-6.4-11-0.9-24.7,11-28.4c15.6-4.6,33-7.3,50.4-7.3
		c83.3,0,153,57.7,171.3,135.6C430.5,227.6,421.3,238.6,408.5,238.6z"/>
</g>
</svg>
