<svg version="1.1" id="settings" xmlns="http://www.w3.org/2000/svg" xmlns:xlink="http://www.w3.org/1999/xlink" x="0px" y="0px"
	 viewBox="0 0 512 512" style="enable-background:new 0 0 512 512;" xml:space="preserve">
<g id="XMLID_1_">
	<path id="XMLID_5_" d="M468.9,255.5c0-27.8,17.6-51.8,41.7-61.1c-6.5-26.8-17.6-52.8-31.5-75.9c-8.3,3.7-17.6,5.6-26.8,5.6
		c-16.7,0-33.3-6.5-46.3-19.4c-19.4-19.4-24.1-49.1-13.9-73.1C369,17.6,344,6.5,316.2,0c-8.3,25-32.4,42.6-60.2,42.6
		S204.2,25,194.9,0.9C168,7.4,142.1,18.5,119,32.4c11.1,24.1,6.5,52.8-13.9,73.1c-13,13-29.6,19.4-46.3,19.4
		c-9.3,0-18.5-1.9-26.8-5.6c-13.9,23.1-25,49.1-31.5,75.9c24.1,9.3,41.7,33.3,41.7,61.1s-17.6,51.8-41.7,61.1
		c6.5,26.8,17.6,52.8,31.5,75.9c8.3-3.7,17.6-5.6,26.8-5.6c16.7,0,33.3,6.5,46.3,19.4c19.4,19.4,24.1,49.1,13.9,73.1
		c23.1,13.9,49.1,25,75.9,31.5c9.3-24.1,33.3-41.7,61.1-41.7s51.8,17.6,61.1,41.7c26.8-6.5,52.8-17.6,75.9-31.5
		c-10.2-24.1-6.5-52.8,13.9-73.1c13-13,29.6-19.4,46.3-19.4c9.3,0,18.5,1.9,26.8,5.6c13.9-23.1,25-49.1,31.5-75.9
		C485.6,307.4,468.9,283.3,468.9,255.5L468.9,255.5z M256.9,361.1c-58.3,0-106.5-47.2-106.5-106.5s47.2-106.5,106.5-106.5
		s106.5,49.1,106.5,107.4S316.2,361.1,256.9,361.1z"/>
</g>
</svg>
