<?xml version="1.0" encoding="UTF-8"?>
<svg id="col" xmlns="http://www.w3.org/2000/svg" xmlns:xlink="http://www.w3.org/1999/xlink" viewBox="0 0 20.63 17.71">
  <g class="cls-1">
    <path class="cls-3" d="M.74,1.2c2.49,0,2.74,2.1,4.56,2.1S8.19.74,10.32.74s3.32,2.56,5.02,2.56,2.07-2.1,4.56-2.1M.74,5.24c.9,0,1.51.27,2,.62M19.89,5.24c-2.49,0-2.85,2.1-4.56,2.1s-2.89-2.56-5.02-2.56c-.37,0-.7.08-1.02.2M.74,9.35c.9,0,1.51.27,2,.62M19.89,9.35c-2.49,0-2.85,2.1-4.56,2.1s-2.89-2.56-5.02-2.56c-.37,0-.7.08-1.02.2" />
    <path class="cls-2" d="M6.51,15.45c0,.83-.68,1.51-1.51,1.51s-1.51-.68-1.51-1.51.68-1.51,1.51-1.51,1.51.68,1.51,1.51Z" />
    <path class="cls-4" d="M4.99,5.74v7.68M7.06,9.36h-2.03M7.06,11.84h-2.03M7.09,6.94h-2.03" />
  </g>
</svg>