<?xml version="1.0" encoding="UTF-8"?>
<svg id="err" xmlns="http://www.w3.org/2000/svg" xmlns:xlink="http://www.w3.org/1999/xlink" viewBox="0 0 27.37 24">
  <g id="warning">
    <g class="cls-1">
      <path id="warning_2" class="cls-2" d="M1.32,24c-.24,0-.47-.06-.67-.18-.2-.12-.36-.28-.47-.48-.11-.2-.17-.42-.18-.65-.01-.23.05-.46.18-.68L12.52.67c.13-.22.31-.39.52-.5.21-.11.43-.17.65-.17s.44.06.65.17c.21.11.38.28.52.5l12.33,21.33c.13.22.19.45.18.68-.01.23-.07.45-.18.65-.11.2-.27.36-.47.48-.2.12-.42.18-.67.18H1.32ZM3.62,21.33h20.13L13.68,4,3.62,21.33ZM13.68,20c.38,0,.69-.13.95-.38s.38-.57.38-.95-.13-.69-.38-.95c-.26-.26-.57-.38-.95-.38s-.69.13-.95.38c-.26.26-.38.57-.38.95s.13.69.38.95c.26.26.57.38.95.38ZM13.68,16c.38,0,.69-.13.95-.38s.38-.57.38-.95v-4c0-.38-.13-.69-.38-.95-.26-.26-.57-.38-.95-.38s-.69.13-.95.38c-.26.26-.38.57-.38.95v4c0,.38.13.69.38.95.26.26.57.38.95.38Z" />
    </g>
  </g>
</svg>