<?xml version="1.0" encoding="UTF-8"?>
<svg id="iat" xmlns="http://www.w3.org/2000/svg" xmlns:xlink="http://www.w3.org/1999/xlink" viewBox="0 0 21.5 19.72">
  <g class="cls-1">
    <path class="cls-3" d="M.75,5.64h9.5c3.49,0,3.43-4.89.13-4.89-2.38,0-2.72,1.65-2.72,2.39M.75,8.95h1M15.55,6.28c0-.74.34-2.39,2.72-2.39,3.3,0,3.36,5.06-.13,5.06H7.75M.75,11.35h1M9.02,14.25c0,.74.34,2.39,2.72,2.39,3.3,0,3.36-5.29-.13-5.29h-3.86" />
    <path class="cls-2" d="M5.27,17.46c0,.83-.68,1.51-1.51,1.51s-1.51-.68-1.51-1.51.68-1.51,1.51-1.51,1.51.68,1.51,1.51Z" />
    <path class="cls-3" d="M3.75,7.75v7.68M5.82,11.36h-2.03M5.82,13.85h-2.03M5.85,8.95h-2.03" />
  </g>
</svg>