<?xml version="1.0" encoding="UTF-8"?>
<svg id="oilp" xmlns="http://www.w3.org/2000/svg" xmlns:xlink="http://www.w3.org/1999/xlink" viewBox="0 0 21.81 29.94">
  <g class="cls-1">
    <path class="cls-3" d="M1.3,10.9h1.61M10.91,1.34v1.65M4.18,4.31l1.16,1.19M4.82,16.84l-.96.99M20.52,10.9h-1.6M17.95,17.83l-.96-.99M17.63,4.31l-1.16,1.19M1.03,25.13h8.32v-4.17c-2.46-.4-4.69-1.72-6.23-3.7-1.54-1.98-2.29-4.48-2.1-7,.2-2.52,1.32-4.87,3.15-6.58,1.83-1.71,4.23-2.67,6.72-2.67s4.89.95,6.72,2.67c1.83,1.71,2.96,4.07,3.15,6.58.2,2.52-.55,5.02-2.1,7-1.54,1.98-3.77,3.31-6.23,3.7v4.17h8.32M1.03,28.94h19.75" />
    <path class="cls-2" d="M13.09,13.83c-.59.59-1.31.88-2.16.88s-1.57-.29-2.16-.88c-.59-.59-.89-1.3-.89-2.14,0-.34.04-.64.11-.88.08-.25.23-.53.47-.86l1.68-2c.2-.24.46-.36.77-.36s.57.12.77.36l1.7,2.02c.24.32.39.61.47.84.08.24.11.53.11.87,0,.84-.3,1.55-.89,2.14Z" />
  </g>
</svg>