<?xml version="1.0" encoding="UTF-8"?>
<svg id="oilt" xmlns="http://www.w3.org/2000/svg" xmlns:xlink="http://www.w3.org/1999/xlink" viewBox="0 0 30.34 18.9">
  <g class="cls-1">
    <path class="cls-2" d="M13.03,16.64c0,.83-.68,1.51-1.51,1.51s-1.51-.68-1.51-1.51.68-1.51,1.51-1.51,1.51.68,1.51,1.51Z" />
    <path class="cls-2" d="M29.2,9.92c-.21.23-.44.32-.73.32s-.52-.1-.73-.32c-.22-.23-.32-.5-.32-.84,0-.17.02-.28.04-.35.01-.05.06-.15.16-.31l.85-1.08.86,1.1c.11.16.15.26.17.31l.64-.19-.64.19c.02.06.04.17.04.34,0,.35-.11.61-.32.84Z" />
    <path class="cls-3" d="M9.49,11.67h-3.39V3.09L1.81,1.06l-.9,3.16,5.2,2.03M28.47,3.77c-.23-1.36-.41-1.45-2.03-.9-3.61,1.2-4.74,1.58-8.81,2.94-1.58.53-2.41-.9-2.48-1.58H6.1M15.14,11.67h3.61l6.78-8.5M9.49,1.28h3.84M11.53,4.22V1.28M11.53,6.7v7.68M13.59,10.32h-2.03M13.59,12.8h-2.03M13.63,7.9h-2.03" />
  </g>
</svg>