<?xml version="1.0" encoding="UTF-8"?>
<svg id="spd" xmlns="http://www.w3.org/2000/svg" xmlns:xlink="http://www.w3.org/1999/xlink" viewBox="0 0 31 27">
  <g class="cls-1">
    <path class="cls-2" d="M2.02,15.43h2.27M15.58,2.04v2.31M6.09,6.19l1.63,1.67M6.99,23.74l-1.35,1.39M29.13,15.43h-2.26M25.51,25.13l-1.35-1.39M25.06,6.19l-1.63,1.67M15.57,15.89l-4.57-4.57M5.18,25.5c-1.73-1.93-2.91-4.31-3.42-6.89-.54-2.78-.26-5.66.8-8.27,1.06-2.62,2.85-4.85,5.16-6.43,2.3-1.57,5.01-2.41,7.78-2.41s5.48.84,7.78,2.41,4.1,3.81,5.16,6.43c1.06,2.62,1.34,5.5.8,8.27-.5,2.58-1.68,4.96-3.42,6.89M15.96,15.39c-.11-.09-.24-.14-.39-.14-.35,0-.63.29-.63.65s.28.65.63.65.63-.29.63-.65c0-.14-.04-.26-.11-.37" />
  </g>
</svg>