<svg version="1.1" id="carplay" xmlns="http://www.w3.org/2000/svg" viewBox="0 0 367.65 384.06"><path d="M309.56,595c61.7-2.78,107.93-30.37,136.69-85.85,3.34-6.44,5.48-7.44,12.33-4.7s13.86,5.65,20.75,8.58c5.25,2.23,6.56,5.63,4.11,10.81q-28.87,60.87-89.13,91c-29,14.48-60,21.67-92.28,19.52-78.72-5.23-136.42-43.38-168.4-115.6C98.71,439.89,120,352.49,185.41,296.2c30.91-26.6,67.18-41.1,107.92-44.76,79.83-7.18,156.11,37.56,189.56,109,3.13,6.7,2.11,9.5-4.72,12.36-6.44,2.71-12.85,5.48-19.33,8.07-7.25,2.9-9.31,2.05-12.65-4.81a150.77,150.77,0,0,0-43-53.17c-82.93-65.1-206.6-27.28-238.72,73a152.41,152.41,0,0,0,97.71,191.55A146.18,146.18,0,0,0,309.56,595Z" transform="translate(-116.98 -250.68)"/><path d="M249.88,442.64q0-41.22,0-82.44c0-10.22,4.25-12.58,13.13-7.55q72.51,41.09,145.06,82.1c1,.57,2,1.13,3,1.76,5.92,3.76,6,8.82-.1,12.37-11.21,6.53-22.55,12.82-33.85,19.21Q320,500.42,262.93,532.75c-8.86,5-13,2.65-13.05-7.66Q249.85,483.87,249.88,442.64Z" transform="translate(-116.98 -250.68)"/></svg>