<svg id="link" data-name="link" xmlns="http://www.w3.org/2000/svg" viewBox="0 0 956.5 399.13"><path d="M-1.44,516.65c-8.49-1.3-17.1-2.08-25.46-4-80.72-18.3-133.93-67.12-154.84-146.88-28-106.76,36.33-213.27,143.19-241.67a191.29,191.29,0,0,1,49.26-6.45c67.25,0,134.51-.37,201.76.1,56.2.39,104.08,21.26,143.2,61.53,29.18,30,46.59,66.18,53.16,107.38,2.26,14.2,4.31,28.65.49,43A49.66,49.66,0,0,1,312.13,325c-1.64-10.29-1.72-20.89-4-31-9-40.68-44.7-71.79-86.22-75.72-5.46-.52-10.95-.81-16.43-.82q-96.39-.08-192.77,0c-48.1,0-87.86,31.75-98.71,78.58C-98.42,349.75-61.24,405.82-6.9,414.92a142.43,142.43,0,0,0,22.31,1.9c32,.21,63.92,0,95.88.11a49.78,49.78,0,0,1,8.94,98.8,19.49,19.49,0,0,0-2.8.92Z" transform="translate(188.29 -117.52)"/><path d="M581.36,117.52c8.49,1.3,17.1,2.09,25.46,4,80.72,18.31,133.93,67.13,154.84,146.88,28,106.76-36.33,213.27-143.19,241.67a191.29,191.29,0,0,1-49.26,6.45c-67.25,0-134.51.37-201.76-.09-56.2-.4-104.08-21.27-143.2-61.53-29.18-30-46.59-66.19-53.16-107.39-2.26-14.2-4.31-28.65-.49-43a49.66,49.66,0,0,1,97.19,4.68c1.64,10.29,1.72,20.89,4,31,9,40.68,44.7,71.79,86.22,75.72,5.46.52,11,.82,16.43.82q96.39.09,192.77,0c48.1,0,87.86-31.75,98.71-78.57,12.46-53.77-24.72-109.84-79-118.93a141.48,141.48,0,0,0-22.32-1.91c-32-.2-63.92,0-95.88-.1a49.78,49.78,0,0,1-8.94-98.81,19.09,19.09,0,0,0,2.8-.92Z" transform="translate(188.29 -117.52)"/></svg>