<?xml version="1.0" encoding="UTF-8"?>
<svg id="general" xmlns="http://www.w3.org/2000/svg" xmlns:xlink="http://www.w3.org/1999/xlink" viewBox="0 0 42.38 42.76">
  <defs>
    <mask id="general" x="-5.73" y="-5.62" width="52.76" height="52.76" maskUnits="userSpaceOnUse">
      <g id="mask0_82_8183">
        <rect id="Bounding_box" class="cls-3" x="-5.73" y="-5.62" width="52.76" height="52.76" />
      </g>
    </mask>
  </defs>
  <g id="general">
    <g class="cls-1">
      <path id="general-2" class="cls-2" d="M7.68,19.53l-.45-2.62c-.57-.17-1.1-.39-1.6-.65-.5-.26-.97-.6-1.41-1.01l-2.53.91-1.69-2.81,2.08-1.78c-.16-.59-.24-1.19-.24-1.81s.08-1.22.24-1.81l-2.08-1.78,1.69-2.81,2.53.91c.45-.41.92-.74,1.41-1.01.5-.26,1.03-.48,1.6-.65l.45-2.62h3.3l.45,2.62c.57.17,1.1.39,1.6.65.5.26.97.6,1.41,1.01l2.53-.91,1.69,2.81-2.08,1.78c.16.59.24,1.19.24,1.81s-.08,1.22-.24,1.81l2.08,1.78-1.69,2.81-2.53-.91c-.45.41-.92.74-1.41,1.01-.5.26-1.03.48-1.6.65l-.45,2.62h-3.3ZM9.33,14.33c1.27,0,2.34-.44,3.23-1.33.89-.89,1.33-1.97,1.33-3.23s-.44-2.34-1.33-3.23c-.89-.89-1.97-1.33-3.23-1.33s-2.34.44-3.23,1.33c-.89.89-1.33,1.97-1.33,3.23s.44,2.34,1.33,3.23,1.97,1.33,3.23,1.33ZM27.69,42.76l-.69-3.47c-.81-.16-1.56-.45-2.25-.85-.69-.4-1.32-.9-1.87-1.5l-3.28,1.13-2.21-3.75,2.67-2.27c-.24-.81-.36-1.64-.36-2.49s.12-1.67.36-2.49l-2.67-2.27,2.21-3.75,3.28,1.13c.56-.6,1.18-1.1,1.87-1.5.69-.4,1.44-.69,2.25-.85l.69-3.47h4.38l.69,3.47c.81.16,1.56.45,2.25.85.69.4,1.32.9,1.87,1.5l3.28-1.13,2.21,3.75-2.67,2.27c.24.81.36,1.64.36,2.49s-.12,1.67-.36,2.49l2.67,2.27-2.21,3.75-3.28-1.13c-.55.6-1.18,1.1-1.87,1.5-.69.4-1.44.69-2.25.85l-.69,3.47h-4.38ZM29.88,36.14c1.83,0,3.39-.64,4.67-1.92,1.28-1.28,1.92-2.84,1.92-4.67s-.64-3.39-1.92-4.67c-1.28-1.28-2.84-1.92-4.67-1.92s-3.39.64-4.67,1.92c-1.28,1.28-1.92,2.84-1.92,4.67s.64,3.39,1.92,4.67c1.28,1.28,2.84,1.92,4.67,1.92Z" />
    </g>
  </g>
</svg>