<?xml version="1.0" encoding="UTF-8"?>
<svg id="interface" xmlns="http://www.w3.org/2000/svg" xmlns:xlink="http://www.w3.org/1999/xlink" viewBox="0 0 31.69 27.97">
  <defs>
    <mask id="mask" x="-6.53" y="-10.25" width="44.75" height="44.75" maskUnits="userSpaceOnUse">
      <g id="mask0_82_8187">
        <rect id="Bounding_box" class="cls-3" x="-6.53" y="-10.25" width="44.75" height="44.75"/>
      </g>
    </mask>
  </defs>
  <g id="interface">
    <g class="cls-1">
      <path id="interface" data-name="interface" class="cls-2" d="M3.94,24.24v2.33c0,.4-.13.73-.4,1s-.6.4-1,.4h-1.15c-.4,0-.73-.13-1-.4-.27-.27-.4-.6-.4-1v-14.31L3.81,1.4c.14-.43.39-.77.76-1.02.37-.25.78-.38,1.24-.38h20.15c.44,0,.83.13,1.19.38.36.26.6.59.74,1.01l3.81,10.86v14.31c0,.4-.13.73-.4,1-.27.27-.6.4-1,.4h-1.15c-.4,0-.73-.13-1-.4s-.4-.6-.4-1v-2.33H3.94ZM3.93,9.47h23.84l-2.35-6.67H6.28l-2.35,6.67ZM7.39,19.29c.68,0,1.25-.24,1.73-.71.47-.47.71-1.05.71-1.73s-.24-1.25-.71-1.73c-.48-.47-1.05-.71-1.73-.71s-1.25.24-1.73.71c-.47.48-.71,1.05-.71,1.73s.24,1.25.71,1.73c.47.47,1.05.71,1.73.71ZM24.31,19.29c.68,0,1.25-.24,1.73-.71.47-.47.71-1.05.71-1.73s-.24-1.25-.71-1.73c-.47-.47-1.05-.71-1.73-.71s-1.25.24-1.73.71c-.47.48-.71,1.05-.71,1.73s.24,1.25.71,1.73c.48.47,1.05.71,1.73.71ZM2.8,21.44h26.1v-9.18H2.8v9.18Z"/>
    </g>
  </g>
</svg>