<?xml version="1.0" encoding="UTF-8"?>
<svg id="keymap" xmlns="http://www.w3.org/2000/svg" xmlns:xlink="http://www.w3.org/1999/xlink" viewBox="0 0 31.69 36.27">
  <defs>
    <mask id="mask" x="-6.53" y="-3.73" width="44.75" height="44.75" maskUnits="userSpaceOnUse">
      <g id="mask0_82_8175">
        <rect id="Bounding_box" class="cls-3" x="-6.53" y="-3.73" width="44.75" height="44.75"/>
      </g>
    </mask>
  </defs>
  <g id="keymap">
    <g class="cls-1">
      <path id="keymap" data-name="keymap" class="cls-2" d="M5.15,21.08l10.41,6.01c.1.06.19.09.29.09s.19-.03.29-.09l10.39-6.01-9.28-5.36v6.19h-2.8v-6.19l-9.3,5.36ZM14.45,12.51v-1.51c-1.22-.31-2.23-.96-3.02-1.95-.79-.99-1.18-2.14-1.18-3.45,0-1.55.54-2.87,1.63-3.96,1.09-1.09,2.41-1.63,3.96-1.63s2.87.54,3.96,1.63,1.63,2.41,1.63,3.96c0,1.31-.39,2.46-1.18,3.45-.79.99-1.79,1.64-3.02,1.95v1.51l12.76,7.34c.53.31.95.72,1.24,1.24.29.52.44,1.08.44,1.7v2.9c0,.62-.15,1.18-.44,1.7-.29.52-.71.93-1.24,1.24l-12.48,7.18c-.53.31-1.1.46-1.69.46s-1.15-.15-1.68-.46L1.69,28.63c-.53-.31-.95-.72-1.24-1.24-.29-.52-.44-1.08-.44-1.7v-2.9c0-.62.15-1.18.44-1.7.29-.52.71-.93,1.24-1.24l12.76-7.34ZM14.16,29.5l-11.37-6.54v2.73c0,.1.02.19.07.28.05.09.12.16.21.22l12.48,7.21c.1.06.19.09.29.09s.19-.03.29-.09l12.48-7.21c.1-.06.17-.13.21-.22.05-.09.07-.18.07-.28v-2.73l-11.37,6.54c-.53.31-1.1.46-1.69.46s-1.15-.15-1.68-.46ZM15.85,8.39c.78,0,1.44-.27,1.98-.82.54-.54.82-1.2.82-1.98s-.27-1.44-.82-1.98c-.54-.54-1.2-.82-1.98-.82s-1.44.27-1.98.82c-.54.54-.82,1.2-.82,1.98s.27,1.44.82,1.98c.54.54,1.2.82,1.98.82Z"/>
    </g>
  </g>
</svg>