<?xml version="1.0" encoding="UTF-8"?>
<svg id="system" xmlns="http://www.w3.org/2000/svg" xmlns:xlink="http://www.w3.org/1999/xlink" viewBox="0 0 31.69 33.7">
  <defs>
    <mask id="system" x="-6.53" y="-4.52" width="44.75" height="44.75" maskUnits="userSpaceOnUse">
      <g id="mask0_82_8179">
        <rect id="Bounding_box" class="cls-3" x="-6.53" y="-4.52" width="44.75" height="44.75"/>
      </g>
    </mask>
  </defs>
  <g id="system">
    <g class="cls-1">
      <path id="system" data-name="system" class="cls-2" d="M15.85,17.86c-.4,0-.73-.13-1-.4-.27-.27-.4-.6-.4-1V1.4c0-.4.13-.73.4-1,.27-.27.6-.4,1-.4s.73.13,1,.4c.27.27.4.6.4,1v15.06c0,.4-.13.73-.4,1-.27.27-.6.4-1,.4ZM15.85,33.7c-2.2,0-4.26-.42-6.18-1.25-1.92-.83-3.6-1.96-5.03-3.39-1.43-1.43-2.56-3.1-3.39-5.03-.83-1.92-1.25-3.98-1.25-6.18,0-1.86.32-3.66.96-5.4.64-1.74,1.56-3.32,2.75-4.74.25-.33.58-.48.97-.47.39.02.74.18,1.05.48.26.26.37.57.34.94-.03.37-.17.71-.41,1.04-.93,1.14-1.65,2.41-2.14,3.82-.49,1.4-.73,2.84-.73,4.33,0,3.64,1.27,6.72,3.8,9.25,2.53,2.53,5.62,3.8,9.25,3.8s6.72-1.27,9.25-3.8c2.53-2.53,3.8-5.62,3.8-9.25,0-1.5-.24-2.95-.72-4.36-.48-1.41-1.21-2.69-2.18-3.83-.24-.31-.37-.64-.41-1.01-.03-.36.08-.67.34-.93.29-.29.63-.44,1.02-.45.39,0,.72.14.97.45,1.21,1.42,2.14,2.99,2.79,4.72.65,1.73.97,3.53.97,5.41,0,2.2-.42,4.26-1.25,6.18-.83,1.92-1.96,3.6-3.39,5.03-1.43,1.43-3.1,2.56-5.03,3.39-1.92.83-3.98,1.25-6.18,1.25Z"/>
    </g>
  </g>
</svg>